<ttFont>
    <TTGlyph name=".ttfautohint" xMin="0" yMin="0" xMax="0" yMax="0">
      <contour>
        <pt x="0" y="0" on="1"/>
      </contour>
    </TTGlyph>
    <TTGlyph name="A" xMin="-10" yMin="0" xMax="530" yMax="700">
      <contour>
        <pt x="430" y="0" on="1"/>
        <pt x="406" y="180" on="1"/>
        <pt x="176" y="180" on="1"/>
        <pt x="90" y="0" on="1"/>
        <pt x="-10" y="0" on="1"/>
        <pt x="318" y="700" on="1"/>
        <pt x="448" y="700" on="1"/>
        <pt x="530" y="0" on="1"/>
      </contour>
      <contour>
        <pt x="209" y="250" on="1"/>
        <pt x="399" y="250" on="1"/>
        <pt x="367" y="525" on="1"/>
        <pt x="365" y="536" on="0"/>
        <pt x="365" y="561" on="0"/>
        <pt x="365" y="572" on="1"/>
        <pt x="365" y="584" on="0"/>
        <pt x="366" y="595" on="1"/>
        <pt x="362" y="595" on="1"/>
        <pt x="359" y="583" on="0"/>
        <pt x="355" y="571" on="1"/>
        <pt x="351" y="560" on="0"/>
        <pt x="342" y="536" on="0"/>
        <pt x="337" y="525" on="1"/>
      </contour>
    </TTGlyph>
    <TTGlyph name="AE" xMin="-45" yMin="0" xMax="883" yMax="700">
      <contour>
        <pt x="370" y="0" on="1"/>
        <pt x="405" y="200" on="1"/>
        <pt x="175" y="200" on="1"/>
        <pt x="55" y="0" on="1"/>
        <pt x="-45" y="0" on="1"/>
        <pt x="373" y="700" on="1"/>
        <pt x="883" y="700" on="1"/>
        <pt x="871" y="630" on="1"/>
        <pt x="581" y="630" on="1"/>
        <pt x="540" y="400" on="1"/>
        <pt x="770" y="400" on="1"/>
        <pt x="758" y="330" on="1"/>
        <pt x="528" y="330" on="1"/>
        <pt x="482" y="70" on="1"/>
        <pt x="772" y="70" on="1"/>
        <pt x="760" y="0" on="1"/>
      </contour>
      <contour>
        <pt x="217" y="270" on="1"/>
        <pt x="417" y="270" on="1"/>
        <pt x="481" y="630" on="1"/>
        <pt x="431" y="630" on="1"/>
      </contour>
    </TTGlyph>
    <TTGlyph name="Aacute" xMin="-10" yMin="0" xMax="530" yMax="900">
      <component glyphName=".ttfautohint" x="0" y="0" flags="0x1000"/>
      <component glyphName="A" x="0" y="0" flags="0x1204"/>
      <component glyphName="acute" x="262" y="200" flags="0x1004"/>
    </TTGlyph>
    <TTGlyph name="Abreve" xMin="-10" yMin="0" xMax="566" yMax="890">
      <component glyphName=".ttfautohint" x="0" y="0" flags="0x1000"/>
      <component glyphName="A" x="0" y="0" flags="0x1204"/>
      <component glyphName="breve" x="160" y="200" flags="0x1004"/>
    </TTGlyph>
    <TTGlyph name="Acircumflex" xMin="-10" yMin="0" xMax="531" yMax="880">
      <component glyphName=".ttfautohint" x="0" y="0" flags="0x1000"/>
      <component glyphName="A" x="0" y="0" flags="0x1204"/>
      <component glyphName="circumflex" x="158" y="190" flags="0x1004"/>
    </TTGlyph>
    <TTGlyph name="Adieresis" xMin="-10" yMin="0" xMax="542" yMax="865">
      <component glyphName=".ttfautohint" x="0" y="0" flags="0x1000"/>
      <component glyphName="A" x="0" y="0" flags="0x1204"/>
      <component glyphName="dieresis" x="163" y="190" flags="0x1004"/>
    </TTGlyph>
    <TTGlyph name="Agrave" xMin="-10" yMin="0" xMax="530" yMax="900">
      <component glyphName=".ttfautohint" x="0" y="0" flags="0x1000"/>
      <component glyphName="A" x="0" y="0" flags="0x1204"/>
      <component glyphName="grave" x="192" y="200" flags="0x1004"/>
    </TTGlyph>
    <TTGlyph name="Amacron" xMin="-10" yMin="0" xMax="544" yMax="850">
      <component glyphName=".ttfautohint" x="0" y="0" flags="0x1000"/>
      <component glyphName="A" x="0" y="0" flags="0x1204"/>
      <component glyphName="macron" x="163" y="190" flags="0x1004"/>
    </TTGlyph>
    <TTGlyph name="Aogonek" xMin="-10" yMin="-155" xMax="566" yMax="700">
      <component glyphName=".ttfautohint" x="0" y="0" flags="0x1000"/>
      <component glyphName="A" x="0" y="0" flags="0x1004"/>
      <component glyphName="ogonek" x="425" y="0" flags="0x1004"/>
    </TTGlyph>
    <TTGlyph name="Aring" xMin="-10" yMin="0" xMax="530" yMax="930">
      <component glyphName=".ttfautohint" x="0" y="0" flags="0x1000"/>
      <component glyphName="A" x="0" y="0" flags="0x1204"/>
      <component glyphName="ring" x="210" y="200" flags="0x1004"/>
    </TTGlyph>
    <TTGlyph name="Atilde" xMin="-10" yMin="0" xMax="537" yMax="865">
      <component glyphName=".ttfautohint" x="0" y="0" flags="0x1000"/>
      <component glyphName="A" x="0" y="0" flags="0x1204"/>
      <component glyphName="tilde" x="160" y="170" flags="0x1004"/>
    </TTGlyph>
    <TTGlyph name="B" xMin="65" yMin="0" xMax="567" yMax="700">
      <contour>
        <pt x="425" y="370" on="1"/>
        <pt x="463" y="361" on="0"/>
        <pt x="489" y="338" on="1"/>
        <pt x="500" y="328" on="0"/>
        <pt x="520" y="301" on="0"/>
        <pt x="534" y="265" on="0"/>
        <pt x="538" y="219" on="0"/>
        <pt x="533" y="190" on="1"/>
        <pt x="518" y="104" on="0"/>
        <pt x="382" y="0" on="0"/>
        <pt x="255" y="0" on="1"/>
        <pt x="65" y="0" on="1"/>
        <pt x="188" y="700" on="1"/>
        <pt x="378" y="700" on="1"/>
        <pt x="432" y="700" on="0"/>
        <pt x="510" y="673" on="0"/>
        <pt x="557" y="627" on="0"/>
        <pt x="574" y="562" on="0"/>
        <pt x="567" y="525" on="1"/>
        <pt x="558" y="476" on="0"/>
        <pt x="512" y="416" on="0"/>
        <pt x="487" y="399" on="1"/>
        <pt x="458" y="379" on="0"/>
      </contour>
      <contour>
        <pt x="235" y="400" on="1"/>
        <pt x="325" y="400" on="1"/>
        <pt x="382" y="400" on="0"/>
        <pt x="456" y="462" on="0"/>
        <pt x="465" y="515" on="1"/>
        <pt x="475" y="568" on="0"/>
        <pt x="423" y="630" on="0"/>
        <pt x="366" y="630" on="1"/>
        <pt x="276" y="630" on="1"/>
      </contour>
      <contour>
        <pt x="223" y="330" on="1"/>
        <pt x="177" y="70" on="1"/>
        <pt x="267" y="70" on="1"/>
        <pt x="342" y="70" on="0"/>
        <pt x="424" y="136" on="0"/>
        <pt x="435" y="200" on="1"/>
        <pt x="446" y="264" on="0"/>
        <pt x="388" y="330" on="0"/>
        <pt x="313" y="330" on="1"/>
      </contour>
    </TTGlyph>
    <TTGlyph name="C" xMin="80" yMin="-10" xMax="570" yMax="710">
      <contour>
        <pt x="91" y="350" on="1"/>
        <pt x="108" y="447" on="0"/>
        <pt x="168" y="584" on="0"/>
        <pt x="249" y="671" on="0"/>
        <pt x="349" y="710" on="0"/>
        <pt x="405" y="710" on="1"/>
        <pt x="447" y="710" on="0"/>
        <pt x="508" y="693" on="0"/>
        <pt x="529" y="682" on="1"/>
        <pt x="553" y="670" on="0"/>
        <pt x="570" y="655" on="1"/>
        <pt x="524" y="595" on="1"/>
        <pt x="514" y="595" on="1"/>
        <pt x="501" y="607" on="0"/>
        <pt x="484" y="617" on="1"/>
        <pt x="470" y="625" on="0"/>
        <pt x="428" y="640" on="0"/>
        <pt x="402" y="640" on="1"/>
        <pt x="368" y="640" on="0"/>
        <pt x="305" y="611" on="0"/>
        <pt x="250" y="544" on="0"/>
        <pt x="206" y="432" on="0"/>
        <pt x="191" y="350" on="1"/>
        <pt x="176" y="267" on="0"/>
        <pt x="182" y="156" on="0"/>
        <pt x="215" y="89" on="0"/>
        <pt x="272" y="60" on="0"/>
        <pt x="310" y="60" on="1"/>
        <pt x="336" y="60" on="0"/>
        <pt x="383" y="74" on="0"/>
        <pt x="400" y="82" on="1"/>
        <pt x="420" y="92" on="0"/>
        <pt x="438" y="105" on="1"/>
        <pt x="448" y="105" on="1"/>
        <pt x="472" y="45" on="1"/>
        <pt x="449" y="29" on="0"/>
        <pt x="421" y="17" on="1"/>
        <pt x="397" y="6" on="0"/>
        <pt x="330" y="-10" on="0"/>
        <pt x="288" y="-10" on="1"/>
        <pt x="228" y="-10" on="0"/>
        <pt x="138" y="29" on="0"/>
        <pt x="86" y="116" on="0"/>
        <pt x="74" y="252" on="0"/>
      </contour>
    </TTGlyph>
    <TTGlyph name="Cacute" xMin="74" yMin="-10" xMax="570" yMax="900">
      <component glyphName=".ttfautohint" x="74" y="0" flags="0x1000"/>
      <component glyphName="C" x="0" y="0" flags="0x1204"/>
      <component glyphName="acute" x="295" y="200" flags="0x1004"/>
    </TTGlyph>
    <TTGlyph name="Ccaron" xMin="74" yMin="-10" xMax="578" yMax="890">
      <component glyphName=".ttfautohint" x="74" y="0" flags="0x1000"/>
      <component glyphName="C" x="0" y="0" flags="0x1204"/>
      <component glyphName="caron" x="182" y="200" flags="0x1004"/>
    </TTGlyph>
    <TTGlyph name="Ccedilla" xMin="74" yMin="-190" xMax="570" yMax="710">
      <component glyphName=".ttfautohint" x="74" y="0" flags="0x1000"/>
      <component glyphName="C" x="0" y="0" flags="0x1204"/>
      <component glyphName="cedilla" x="220" y="0" flags="0x1004"/>
    </TTGlyph>
    <TTGlyph name="D" xMin="65" yMin="0" xMax="576" yMax="700">
      <contour>
        <pt x="65" y="0" on="1"/>
        <pt x="188" y="700" on="1"/>
        <pt x="338" y="700" on="1"/>
        <pt x="409" y="700" on="0"/>
        <pt x="511" y="661" on="0"/>
        <pt x="569" y="577" on="0"/>
        <pt x="582" y="444" on="0"/>
        <pt x="566" y="350" on="1"/>
        <pt x="549" y="256" on="0"/>
        <pt x="489" y="123" on="0"/>
        <pt x="401" y="39" on="0"/>
        <pt x="286" y="0" on="0"/>
        <pt x="215" y="0" on="1"/>
      </contour>
      <contour>
        <pt x="227" y="70" on="1"/>
        <pt x="272" y="70" on="0"/>
        <pt x="348" y="98" on="0"/>
        <pt x="408" y="164" on="0"/>
        <pt x="452" y="271" on="0"/>
        <pt x="466" y="350" on="1"/>
        <pt x="480" y="429" on="0"/>
        <pt x="473" y="536" on="0"/>
        <pt x="436" y="602" on="0"/>
        <pt x="371" y="630" on="0"/>
        <pt x="326" y="630" on="1"/>
        <pt x="276" y="630" on="1"/>
        <pt x="177" y="70" on="1"/>
      </contour>
    </TTGlyph>
    <TTGlyph name="Dcaron" xMin="65" yMin="0" xMax="576" yMax="890">
      <component glyphName=".ttfautohint" x="65" y="0" flags="0x1000"/>
      <component glyphName="D" x="0" y="0" flags="0x1204"/>
      <component glyphName="caron" x="142" y="200" flags="0x1004"/>
    </TTGlyph>
    <TTGlyph name="Dcroat" xMin="65" yMin="0" xMax="576" yMax="700">
      <contour>
        <pt x="65" y="0" on="1"/>
        <pt x="121" y="320" on="1"/>
        <pt x="66" y="320" on="1"/>
        <pt x="80" y="400" on="1"/>
        <pt x="135" y="400" on="1"/>
        <pt x="188" y="700" on="1"/>
        <pt x="338" y="700" on="1"/>
        <pt x="409" y="700" on="0"/>
        <pt x="511" y="661" on="0"/>
        <pt x="569" y="577" on="0"/>
        <pt x="582" y="444" on="0"/>
        <pt x="566" y="350" on="1"/>
        <pt x="549" y="256" on="0"/>
        <pt x="489" y="123" on="0"/>
        <pt x="401" y="39" on="0"/>
        <pt x="286" y="0" on="0"/>
        <pt x="215" y="0" on="1"/>
      </contour>
      <contour>
        <pt x="227" y="70" on="1"/>
        <pt x="272" y="70" on="0"/>
        <pt x="348" y="98" on="0"/>
        <pt x="408" y="164" on="0"/>
        <pt x="452" y="271" on="0"/>
        <pt x="466" y="350" on="1"/>
        <pt x="480" y="429" on="0"/>
        <pt x="473" y="536" on="0"/>
        <pt x="436" y="602" on="0"/>
        <pt x="371" y="630" on="0"/>
        <pt x="326" y="630" on="1"/>
        <pt x="276" y="630" on="1"/>
        <pt x="235" y="400" on="1"/>
        <pt x="350" y="400" on="1"/>
        <pt x="336" y="320" on="1"/>
        <pt x="221" y="320" on="1"/>
        <pt x="177" y="70" on="1"/>
      </contour>
    </TTGlyph>
    <TTGlyph name="E" xMin="65" yMin="0" xMax="578" yMax="700">
      <contour>
        <pt x="65" y="0" on="1"/>
        <pt x="188" y="700" on="1"/>
        <pt x="578" y="700" on="1"/>
        <pt x="566" y="630" on="1"/>
        <pt x="276" y="630" on="1"/>
        <pt x="235" y="400" on="1"/>
        <pt x="465" y="400" on="1"/>
        <pt x="453" y="330" on="1"/>
        <pt x="223" y="330" on="1"/>
        <pt x="177" y="70" on="1"/>
        <pt x="467" y="70" on="1"/>
        <pt x="455" y="0" on="1"/>
      </contour>
    </TTGlyph>
    <TTGlyph name="Eacute" xMin="65" yMin="0" xMax="578" yMax="900">
      <component glyphName=".ttfautohint" x="65" y="0" flags="0x1000"/>
      <component glyphName="E" x="0" y="0" flags="0x1204"/>
      <component glyphName="acute" x="255" y="200" flags="0x1004"/>
    </TTGlyph>
    <TTGlyph name="Ecaron" xMin="65" yMin="0" xMax="578" yMax="890">
      <component glyphName=".ttfautohint" x="65" y="0" flags="0x1000"/>
      <component glyphName="E" x="0" y="0" flags="0x1204"/>
      <component glyphName="caron" x="172" y="200" flags="0x1004"/>
    </TTGlyph>
    <TTGlyph name="Ecircumflex" xMin="65" yMin="0" xMax="578" yMax="890">
      <component glyphName=".ttfautohint" x="65" y="0" flags="0x1000"/>
      <component glyphName="E" x="0" y="0" flags="0x1204"/>
      <component glyphName="circumflex" x="162" y="200" flags="0x1004"/>
    </TTGlyph>
    <TTGlyph name="Edieresis" xMin="65" yMin="0" xMax="578" yMax="875">
      <component glyphName=".ttfautohint" x="65" y="0" flags="0x1000"/>
      <component glyphName="E" x="0" y="0" flags="0x1204"/>
      <component glyphName="dieresis" x="167" y="200" flags="0x1004"/>
    </TTGlyph>
    <TTGlyph name="Edotaccent" xMin="65" yMin="0" xMax="578" yMax="880">
      <component glyphName=".ttfautohint" x="65" y="0" flags="0x1000"/>
      <component glyphName="E" x="0" y="0" flags="0x1204"/>
      <component glyphName="dotaccent" x="262" y="200" flags="0x1004"/>
    </TTGlyph>
    <TTGlyph name="Egrave" xMin="65" yMin="0" xMax="578" yMax="900">
      <component glyphName=".ttfautohint" x="65" y="0" flags="0x1000"/>
      <component glyphName="E" x="0" y="0" flags="0x1204"/>
      <component glyphName="grave" x="205" y="200" flags="0x1004"/>
    </TTGlyph>
    <TTGlyph name="Emacron" xMin="65" yMin="0" xMax="578" yMax="860">
      <component glyphName=".ttfautohint" x="65" y="0" flags="0x1000"/>
      <component glyphName="E" x="0" y="0" flags="0x1204"/>
      <component glyphName="macron" x="167" y="200" flags="0x1004"/>
    </TTGlyph>
    <TTGlyph name="Eogonek" xMin="65" yMin="-155" xMax="578" yMax="700">
      <component glyphName=".ttfautohint" x="65" y="0" flags="0x1000"/>
      <component glyphName="E" x="0" y="0" flags="0x1204"/>
      <component glyphName="ogonek" x="210" y="0" flags="0x1004"/>
    </TTGlyph>
    <TTGlyph name="Eth" xMin="65" yMin="0" xMax="576" yMax="700">
      <contour>
        <pt x="65" y="0" on="1"/>
        <pt x="121" y="320" on="1"/>
        <pt x="66" y="320" on="1"/>
        <pt x="80" y="400" on="1"/>
        <pt x="135" y="400" on="1"/>
        <pt x="188" y="700" on="1"/>
        <pt x="338" y="700" on="1"/>
        <pt x="409" y="700" on="0"/>
        <pt x="511" y="661" on="0"/>
        <pt x="569" y="577" on="0"/>
        <pt x="582" y="444" on="0"/>
        <pt x="566" y="350" on="1"/>
        <pt x="549" y="256" on="0"/>
        <pt x="489" y="123" on="0"/>
        <pt x="401" y="39" on="0"/>
        <pt x="286" y="0" on="0"/>
        <pt x="215" y="0" on="1"/>
      </contour>
      <contour>
        <pt x="227" y="70" on="1"/>
        <pt x="272" y="70" on="0"/>
        <pt x="348" y="98" on="0"/>
        <pt x="408" y="164" on="0"/>
        <pt x="452" y="271" on="0"/>
        <pt x="466" y="350" on="1"/>
        <pt x="480" y="429" on="0"/>
        <pt x="473" y="536" on="0"/>
        <pt x="436" y="602" on="0"/>
        <pt x="371" y="630" on="0"/>
        <pt x="326" y="630" on="1"/>
        <pt x="276" y="630" on="1"/>
        <pt x="235" y="400" on="1"/>
        <pt x="350" y="400" on="1"/>
        <pt x="336" y="320" on="1"/>
        <pt x="221" y="320" on="1"/>
        <pt x="177" y="70" on="1"/>
      </contour>
    </TTGlyph>
    <TTGlyph name="Euro" xMin="30" yMin="-10" xMax="600" yMax="710">
      <contour>
        <pt x="77" y="440" on="1"/>
        <pt x="141" y="440" on="1"/>
        <pt x="162" y="512" on="0"/>
        <pt x="222" y="615" on="0"/>
        <pt x="297" y="680" on="0"/>
        <pt x="385" y="710" on="0"/>
        <pt x="435" y="710" on="1"/>
        <pt x="477" y="710" on="0"/>
        <pt x="538" y="693" on="0"/>
        <pt x="559" y="682" on="1"/>
        <pt x="583" y="670" on="0"/>
        <pt x="600" y="655" on="1"/>
        <pt x="554" y="595" on="1"/>
        <pt x="544" y="595" on="1"/>
        <pt x="531" y="607" on="0"/>
        <pt x="514" y="617" on="1"/>
        <pt x="500" y="625" on="0"/>
        <pt x="458" y="640" on="0"/>
        <pt x="432" y="640" on="1"/>
        <pt x="403" y="640" on="0"/>
        <pt x="348" y="619" on="0"/>
        <pt x="299" y="572" on="0"/>
        <pt x="257" y="496" on="0"/>
        <pt x="241" y="440" on="1"/>
        <pt x="461" y="440" on="1"/>
        <pt x="441" y="380" on="1"/>
        <pt x="227" y="380" on="1"/>
        <pt x="216" y="320" on="1"/>
        <pt x="426" y="320" on="1"/>
        <pt x="405" y="260" on="1"/>
        <pt x="209" y="260" on="1"/>
        <pt x="206" y="204" on="0"/>
        <pt x="222" y="127" on="0"/>
        <pt x="257" y="80" on="0"/>
        <pt x="308" y="60" on="0"/>
        <pt x="340" y="60" on="1"/>
        <pt x="366" y="60" on="0"/>
        <pt x="413" y="74" on="0"/>
        <pt x="430" y="82" on="1"/>
        <pt x="450" y="92" on="0"/>
        <pt x="468" y="105" on="1"/>
        <pt x="478" y="105" on="1"/>
        <pt x="502" y="45" on="1"/>
        <pt x="479" y="29" on="0"/>
        <pt x="451" y="17" on="1"/>
        <pt x="427" y="6" on="0"/>
        <pt x="360" y="-10" on="0"/>
        <pt x="318" y="-10" on="1"/>
        <pt x="265" y="-10" on="0"/>
        <pt x="184" y="20" on="0"/>
        <pt x="129" y="85" on="0"/>
        <pt x="104" y="187" on="0"/>
        <pt x="109" y="260" on="1"/>
        <pt x="30" y="260" on="1"/>
        <pt x="51" y="320" on="1"/>
        <pt x="116" y="320" on="1"/>
        <pt x="127" y="380" on="1"/>
        <pt x="57" y="380" on="1"/>
      </contour>
    </TTGlyph>
    <TTGlyph name="F" xMin="65" yMin="0" xMax="578" yMax="700">
      <contour>
        <pt x="65" y="0" on="1"/>
        <pt x="188" y="700" on="1"/>
        <pt x="578" y="700" on="1"/>
        <pt x="566" y="630" on="1"/>
        <pt x="276" y="630" on="1"/>
        <pt x="233" y="390" on="1"/>
        <pt x="463" y="390" on="1"/>
        <pt x="451" y="320" on="1"/>
        <pt x="221" y="320" on="1"/>
        <pt x="165" y="0" on="1"/>
      </contour>
    </TTGlyph>
    <TTGlyph name="G" xMin="82" yMin="-10" xMax="570" yMax="710">
      <contour>
        <pt x="482" y="45" on="1"/>
        <pt x="458" y="29" on="0"/>
        <pt x="428" y="17" on="1"/>
        <pt x="402" y="6" on="0"/>
        <pt x="331" y="-10" on="0"/>
        <pt x="288" y="-10" on="1"/>
        <pt x="232" y="-10" on="0"/>
        <pt x="144" y="32" on="0"/>
        <pt x="90" y="120" on="0"/>
        <pt x="74" y="256" on="0"/>
        <pt x="91" y="350" on="1"/>
        <pt x="107" y="444" on="0"/>
        <pt x="170" y="580" on="0"/>
        <pt x="254" y="668" on="0"/>
        <pt x="352" y="710" on="0"/>
        <pt x="405" y="710" on="1"/>
        <pt x="447" y="710" on="0"/>
        <pt x="508" y="693" on="0"/>
        <pt x="529" y="682" on="1"/>
        <pt x="553" y="670" on="0"/>
        <pt x="570" y="655" on="1"/>
        <pt x="524" y="595" on="1"/>
        <pt x="514" y="595" on="1"/>
        <pt x="501" y="607" on="0"/>
        <pt x="484" y="617" on="1"/>
        <pt x="470" y="625" on="0"/>
        <pt x="428" y="640" on="0"/>
        <pt x="402" y="640" on="1"/>
        <pt x="368" y="640" on="0"/>
        <pt x="305" y="611" on="0"/>
        <pt x="250" y="544" on="0"/>
        <pt x="206" y="432" on="0"/>
        <pt x="191" y="350" on="1"/>
        <pt x="176" y="267" on="0"/>
        <pt x="182" y="156" on="0"/>
        <pt x="215" y="89" on="0"/>
        <pt x="272" y="60" on="0"/>
        <pt x="310" y="60" on="1"/>
        <pt x="325" y="60" on="0"/>
        <pt x="353" y="67" on="0"/>
        <pt x="376" y="74" on="0"/>
        <pt x="389" y="80" on="0"/>
        <pt x="389" y="80" on="1"/>
        <pt x="429" y="310" on="1"/>
        <pt x="314" y="310" on="1"/>
        <pt x="327" y="380" on="1"/>
        <pt x="512" y="380" on="1"/>
        <pt x="536" y="350" on="1"/>
      </contour>
    </TTGlyph>
    <TTGlyph name="Gbreve" xMin="74" yMin="-10" xMax="576" yMax="880">
      <component glyphName=".ttfautohint" x="74" y="0" flags="0x1000"/>
      <component glyphName="G" x="0" y="0" flags="0x1204"/>
      <component glyphName="breve" x="170" y="190" flags="0x1004"/>
    </TTGlyph>
    <TTGlyph name="Gcommaaccent" xMin="74" yMin="-265" xMax="570" yMax="710">
      <component glyphName=".ttfautohint" x="74" y="0" flags="0x1000"/>
      <component glyphName="G" x="0" y="0" flags="0x1204"/>
      <component glyphName="commaaccent" x="236" y="-29" flags="0x1004"/>
    </TTGlyph>
    <TTGlyph name="H" xMin="65" yMin="0" xMax="638" yMax="700">
      <contour>
        <pt x="638" y="700" on="1"/>
        <pt x="515" y="0" on="1"/>
        <pt x="415" y="0" on="1"/>
        <pt x="471" y="320" on="1"/>
        <pt x="221" y="320" on="1"/>
        <pt x="165" y="0" on="1"/>
        <pt x="65" y="0" on="1"/>
        <pt x="188" y="700" on="1"/>
        <pt x="288" y="700" on="1"/>
        <pt x="233" y="390" on="1"/>
        <pt x="483" y="390" on="1"/>
        <pt x="538" y="700" on="1"/>
      </contour>
    </TTGlyph>
    <TTGlyph name="I" xMin="65" yMin="0" xMax="288" yMax="700">
      <contour>
        <pt x="188" y="700" on="1"/>
        <pt x="288" y="700" on="1"/>
        <pt x="165" y="0" on="1"/>
        <pt x="65" y="0" on="1"/>
      </contour>
    </TTGlyph>
    <TTGlyph name="Iacute" xMin="65" yMin="0" xMax="390" yMax="900">
      <component glyphName=".ttfautohint" x="65" y="0" flags="0x1000"/>
      <component glyphName="I" x="0" y="0" flags="0x1004"/>
      <component glyphName="acute" x="127" y="200" flags="0x1004"/>
    </TTGlyph>
    <TTGlyph name="Icircumflex" xMin="61" yMin="0" xMax="383" yMax="890">
      <component glyphName=".ttfautohint" x="61" y="0" flags="0x1000"/>
      <component glyphName="I" x="-4" y="0" flags="0x1004"/>
      <component glyphName="circumflex" x="10" y="200" flags="0x1004"/>
    </TTGlyph>
    <TTGlyph name="Idieresis" xMin="56" yMin="0" xMax="389" yMax="875">
      <component glyphName=".ttfautohint" x="56" y="0" flags="0x1000"/>
      <component glyphName="I" x="-9" y="0" flags="0x1004"/>
      <component glyphName="dieresis" x="10" y="200" flags="0x1004"/>
    </TTGlyph>
    <TTGlyph name="Idotaccent" xMin="56" yMin="0" xMax="309" yMax="880">
      <component glyphName=".ttfautohint" x="56" y="0" flags="0x1000"/>
      <component glyphName="I" x="-9" y="0" flags="0x1004"/>
      <component glyphName="dotaccent" x="95" y="200" flags="0x1004"/>
    </TTGlyph>
    <TTGlyph name="Igrave" xMin="64" yMin="0" xMax="287" yMax="900">
      <component glyphName=".ttfautohint" x="64" y="0" flags="0x1000"/>
      <component glyphName="I" x="-1" y="0" flags="0x1004"/>
      <component glyphName="grave" x="45" y="200" flags="0x1004"/>
    </TTGlyph>
    <TTGlyph name="Imacron" xMin="56" yMin="0" xMax="389" yMax="850">
      <component glyphName=".ttfautohint" x="56" y="0" flags="0x1000"/>
      <component glyphName="I" x="-9" y="0" flags="0x1004"/>
      <component glyphName="macron" x="8" y="190" flags="0x1004"/>
    </TTGlyph>
    <TTGlyph name="Iogonek" xMin="20" yMin="-155" xMax="284" yMax="700">
      <component glyphName=".ttfautohint" x="20" y="0" flags="0x1000"/>
      <component glyphName="I" x="-4" y="0" flags="0x1004"/>
      <component glyphName="ogonek" x="55" y="0" flags="0x1004"/>
    </TTGlyph>
    <TTGlyph name="Itilde" xMin="51" yMin="0" xMax="383" yMax="895">
      <component glyphName=".ttfautohint" x="51" y="0" flags="0x1000"/>
      <component glyphName="I" x="-14" y="0" flags="0x1004"/>
      <component glyphName="tilde" x="6" y="200" flags="0x1004"/>
    </TTGlyph>
    <TTGlyph name="J" xMin="-19" yMin="-10" xMax="438" yMax="700">
      <contour>
        <pt x="110" y="60" on="1"/>
        <pt x="167" y="60" on="0"/>
        <pt x="236" y="122" on="0"/>
        <pt x="248" y="190" on="1"/>
        <pt x="338" y="700" on="1"/>
        <pt x="438" y="700" on="1"/>
        <pt x="348" y="190" on="1"/>
        <pt x="331" y="92" on="0"/>
        <pt x="210" y="-10" on="0"/>
        <pt x="108" y="-10" on="1"/>
        <pt x="78" y="-10" on="0"/>
        <pt x="31" y="4" on="0"/>
        <pt x="14" y="12" on="1"/>
        <pt x="-5" y="22" on="0"/>
        <pt x="-19" y="35" on="1"/>
        <pt x="22" y="100" on="1"/>
        <pt x="32" y="100" on="1"/>
        <pt x="42" y="89" on="0"/>
        <pt x="54" y="80" on="1"/>
        <pt x="65" y="72" on="0"/>
        <pt x="93" y="60" on="0"/>
      </contour>
    </TTGlyph>
    <TTGlyph name="Jcircumflex" xMin="-19" yMin="-10" xMax="529" yMax="870">
      <component glyphName=".ttfautohint" x="0" y="0" flags="0x1000"/>
      <component glyphName="J" x="0" y="0" flags="0x1004"/>
      <component glyphName="circumflex" x="156" y="180" flags="0x1004"/>
    </TTGlyph>
    <TTGlyph name="K" xMin="65" yMin="0" xMax="628" yMax="700">
      <contour>
        <pt x="515" y="0" on="1"/>
        <pt x="400" y="0" on="1"/>
        <pt x="226" y="350" on="1"/>
        <pt x="165" y="0" on="1"/>
        <pt x="65" y="0" on="1"/>
        <pt x="188" y="700" on="1"/>
        <pt x="288" y="700" on="1"/>
        <pt x="230" y="370" on="1"/>
        <pt x="513" y="700" on="1"/>
        <pt x="628" y="700" on="1"/>
        <pt x="338" y="360" on="1"/>
      </contour>
    </TTGlyph>
    <TTGlyph name="Kcommaaccent" xMin="65" yMin="-226" xMax="628" yMax="700">
      <component glyphName=".ttfautohint" x="65" y="0" flags="0x1000"/>
      <component glyphName="K" x="0" y="0" flags="0x1204"/>
      <component glyphName="commaaccent" x="228" y="10" flags="0x1004"/>
    </TTGlyph>
    <TTGlyph name="L" xMin="65" yMin="0" xMax="467" yMax="700">
      <contour>
        <pt x="288" y="700" on="1"/>
        <pt x="177" y="70" on="1"/>
        <pt x="467" y="70" on="1"/>
        <pt x="455" y="0" on="1"/>
        <pt x="65" y="0" on="1"/>
        <pt x="188" y="700" on="1"/>
      </contour>
    </TTGlyph>
    <TTGlyph name="Lacute" xMin="65" yMin="0" xMax="467" yMax="900">
      <component glyphName=".ttfautohint" x="65" y="0" flags="0x1000"/>
      <component glyphName="L" x="0" y="0" flags="0x1204"/>
      <component glyphName="acute" x="145" y="200" flags="0x1004"/>
    </TTGlyph>
    <TTGlyph name="Lcaron" xMin="65" yMin="0" xMax="467" yMax="700">
      <contour>
        <pt x="353" y="645" on="1"/>
        <pt x="358" y="668" on="0"/>
        <pt x="394" y="700" on="0"/>
        <pt x="413" y="700" on="1"/>
        <pt x="439" y="700" on="0"/>
        <pt x="467" y="665" on="0"/>
        <pt x="462" y="636" on="1"/>
        <pt x="454" y="596" on="0"/>
        <pt x="419" y="539" on="0"/>
        <pt x="401" y="520" on="1"/>
        <pt x="380" y="498" on="0"/>
        <pt x="355" y="484" on="1"/>
        <pt x="330" y="515" on="1"/>
        <pt x="346" y="525" on="0"/>
        <pt x="359" y="537" on="1"/>
        <pt x="370" y="548" on="0"/>
        <pt x="391" y="575" on="0"/>
        <pt x="394" y="590" on="1"/>
        <pt x="375" y="590" on="0"/>
        <pt x="349" y="622" on="0"/>
      </contour>
      <contour>
        <pt x="288" y="700" on="1"/>
        <pt x="177" y="70" on="1"/>
        <pt x="467" y="70" on="1"/>
        <pt x="455" y="0" on="1"/>
        <pt x="65" y="0" on="1"/>
        <pt x="188" y="700" on="1"/>
      </contour>
    </TTGlyph>
    <TTGlyph name="Lcommaaccent" xMin="65" yMin="-265" xMax="467" yMax="700">
      <component glyphName=".ttfautohint" x="65" y="0" flags="0x1000"/>
      <component glyphName="L" x="0" y="0" flags="0x1204"/>
      <component glyphName="commaaccent" x="216" y="-29" flags="0x1004"/>
    </TTGlyph>
    <TTGlyph name="Lslash" xMin="28" yMin="0" xMax="449" yMax="700">
      <contour>
        <pt x="280" y="700" on="1"/>
        <pt x="237" y="455" on="1"/>
        <pt x="365" y="540" on="1"/>
        <pt x="345" y="430" on="1"/>
        <pt x="217" y="345" on="1"/>
        <pt x="169" y="70" on="1"/>
        <pt x="449" y="70" on="1"/>
        <pt x="437" y="0" on="1"/>
        <pt x="57" y="0" on="1"/>
        <pt x="104" y="270" on="1"/>
        <pt x="28" y="220" on="1"/>
        <pt x="48" y="330" on="1"/>
        <pt x="124" y="380" on="1"/>
        <pt x="180" y="700" on="1"/>
      </contour>
    </TTGlyph>
    <TTGlyph name="M" xMin="65" yMin="0" xMax="848" yMax="700">
      <contour>
        <pt x="423" y="275" on="1"/>
        <pt x="428" y="261" on="0"/>
        <pt x="430" y="244" on="1"/>
        <pt x="431" y="234" on="0"/>
        <pt x="432" y="225" on="1"/>
        <pt x="436" y="225" on="1"/>
        <pt x="441" y="234" on="0"/>
        <pt x="445" y="244" on="1"/>
        <pt x="449" y="252" on="0"/>
        <pt x="458" y="269" on="0"/>
        <pt x="463" y="275" on="1"/>
        <pt x="748" y="700" on="1"/>
        <pt x="848" y="700" on="1"/>
        <pt x="725" y="0" on="1"/>
        <pt x="625" y="0" on="1"/>
        <pt x="699" y="420" on="1"/>
        <pt x="701" y="431" on="0"/>
        <pt x="707" y="460" on="0"/>
        <pt x="710" y="474" on="1"/>
        <pt x="714" y="489" on="0"/>
        <pt x="718" y="505" on="1"/>
        <pt x="714" y="505" on="1"/>
        <pt x="707" y="489" on="0"/>
        <pt x="699" y="474" on="1"/>
        <pt x="692" y="460" on="0"/>
        <pt x="677" y="431" on="0"/>
        <pt x="669" y="420" on="1"/>
        <pt x="467" y="125" on="1"/>
        <pt x="367" y="125" on="1"/>
        <pt x="269" y="420" on="1"/>
        <pt x="265" y="431" on="0"/>
        <pt x="260" y="460" on="0"/>
        <pt x="258" y="474" on="1"/>
        <pt x="255" y="489" on="0"/>
        <pt x="254" y="505" on="1"/>
        <pt x="250" y="505" on="1"/>
        <pt x="248" y="489" on="0"/>
        <pt x="246" y="474" on="1"/>
        <pt x="244" y="460" on="0"/>
        <pt x="241" y="431" on="0"/>
        <pt x="239" y="420" on="1"/>
        <pt x="165" y="0" on="1"/>
        <pt x="65" y="0" on="1"/>
        <pt x="188" y="700" on="1"/>
        <pt x="288" y="700" on="1"/>
      </contour>
    </TTGlyph>
    <TTGlyph name="N" xMin="65" yMin="0" xMax="638" yMax="700">
      <contour>
        <pt x="273" y="445" on="1"/>
        <pt x="269" y="456" on="0"/>
        <pt x="264" y="485" on="0"/>
        <pt x="262" y="499" on="1"/>
        <pt x="259" y="514" on="0"/>
        <pt x="258" y="530" on="1"/>
        <pt x="254" y="530" on="1"/>
        <pt x="252" y="514" on="0"/>
        <pt x="250" y="499" on="1"/>
        <pt x="248" y="485" on="0"/>
        <pt x="245" y="456" on="0"/>
        <pt x="243" y="445" on="1"/>
        <pt x="165" y="0" on="1"/>
        <pt x="65" y="0" on="1"/>
        <pt x="188" y="700" on="1"/>
        <pt x="298" y="700" on="1"/>
        <pt x="429" y="255" on="1"/>
        <pt x="432" y="244" on="0"/>
        <pt x="438" y="214" on="0"/>
        <pt x="440" y="201" on="1"/>
        <pt x="443" y="185" on="0"/>
        <pt x="444" y="170" on="1"/>
        <pt x="448" y="170" on="1"/>
        <pt x="450" y="185" on="0"/>
        <pt x="452" y="201" on="1"/>
        <pt x="454" y="214" on="0"/>
        <pt x="457" y="244" on="0"/>
        <pt x="459" y="255" on="1"/>
        <pt x="538" y="700" on="1"/>
        <pt x="638" y="700" on="1"/>
        <pt x="515" y="0" on="1"/>
        <pt x="405" y="0" on="1"/>
      </contour>
    </TTGlyph>
    <TTGlyph name="Nacute" xMin="65" yMin="0" xMax="638" yMax="890">
      <component glyphName=".ttfautohint" x="65" y="0" flags="0x1000"/>
      <component glyphName="N" x="0" y="0" flags="0x1204"/>
      <component glyphName="acute" x="290" y="190" flags="0x1004"/>
    </TTGlyph>
    <TTGlyph name="Ncaron" xMin="65" yMin="0" xMax="638" yMax="880">
      <component glyphName=".ttfautohint" x="65" y="0" flags="0x1000"/>
      <component glyphName="N" x="0" y="0" flags="0x1204"/>
      <component glyphName="caron" x="188" y="190" flags="0x1004"/>
    </TTGlyph>
    <TTGlyph name="Ncommaaccent" xMin="65" yMin="-226" xMax="638" yMax="700">
      <component glyphName=".ttfautohint" x="65" y="0" flags="0x1000"/>
      <component glyphName="N" x="0" y="0" flags="0x1204"/>
      <component glyphName="commaaccent" x="251" y="10" flags="0x1004"/>
    </TTGlyph>
    <TTGlyph name="Ntilde" xMin="65" yMin="0" xMax="638" yMax="865">
      <component glyphName=".ttfautohint" x="65" y="0" flags="0x1000"/>
      <component glyphName="N" x="0" y="0" flags="0x1204"/>
      <component glyphName="tilde" x="190" y="170" flags="0x1004"/>
    </TTGlyph>
    <TTGlyph name="O" xMin="80" yMin="-10" xMax="593" yMax="710">
      <contour>
        <pt x="191" y="350" on="1"/>
        <pt x="176" y="267" on="0"/>
        <pt x="181" y="156" on="0"/>
        <pt x="209" y="89" on="0"/>
        <pt x="257" y="60" on="0"/>
        <pt x="285" y="60" on="1"/>
        <pt x="313" y="60" on="0"/>
        <pt x="370" y="89" on="0"/>
        <pt x="423" y="156" on="0"/>
        <pt x="466" y="267" on="0"/>
        <pt x="481" y="350" on="1"/>
        <pt x="496" y="432" on="0"/>
        <pt x="491" y="544" on="0"/>
        <pt x="462" y="611" on="0"/>
        <pt x="415" y="640" on="0"/>
        <pt x="387" y="640" on="1"/>
        <pt x="359" y="640" on="0"/>
        <pt x="302" y="611" on="0"/>
        <pt x="249" y="544" on="0"/>
        <pt x="206" y="432" on="0"/>
      </contour>
      <contour>
        <pt x="581" y="350" on="1"/>
        <pt x="564" y="252" on="0"/>
        <pt x="504" y="116" on="0"/>
        <pt x="424" y="29" on="0"/>
        <pt x="327" y="-10" on="0"/>
        <pt x="273" y="-10" on="1"/>
        <pt x="219" y="-10" on="0"/>
        <pt x="135" y="29" on="0"/>
        <pt x="86" y="116" on="0"/>
        <pt x="74" y="252" on="0"/>
        <pt x="91" y="350" on="1"/>
        <pt x="108" y="447" on="0"/>
        <pt x="168" y="584" on="0"/>
        <pt x="248" y="671" on="0"/>
        <pt x="346" y="710" on="0"/>
        <pt x="400" y="710" on="1"/>
        <pt x="454" y="710" on="0"/>
        <pt x="537" y="671" on="0"/>
        <pt x="587" y="584" on="0"/>
        <pt x="598" y="447" on="0"/>
      </contour>
    </TTGlyph>
    <TTGlyph name="OE" xMin="81" yMin="0" xMax="883" yMax="700">
      <contour>
        <pt x="320" y="0" on="1"/>
        <pt x="249" y="0" on="0"/>
        <pt x="147" y="39" on="0"/>
        <pt x="88" y="123" on="0"/>
        <pt x="74" y="256" on="0"/>
        <pt x="91" y="350" on="1"/>
        <pt x="107" y="444" on="0"/>
        <pt x="168" y="577" on="0"/>
        <pt x="256" y="661" on="0"/>
        <pt x="372" y="700" on="0"/>
        <pt x="443" y="700" on="1"/>
        <pt x="883" y="700" on="1"/>
        <pt x="871" y="630" on="1"/>
        <pt x="581" y="630" on="1"/>
        <pt x="540" y="400" on="1"/>
        <pt x="770" y="400" on="1"/>
        <pt x="758" y="330" on="1"/>
        <pt x="528" y="330" on="1"/>
        <pt x="482" y="70" on="1"/>
        <pt x="772" y="70" on="1"/>
        <pt x="760" y="0" on="1"/>
      </contour>
      <contour>
        <pt x="382" y="70" on="1"/>
        <pt x="481" y="630" on="1"/>
        <pt x="431" y="630" on="1"/>
        <pt x="386" y="630" on="0"/>
        <pt x="310" y="602" on="0"/>
        <pt x="250" y="536" on="0"/>
        <pt x="205" y="429" on="0"/>
        <pt x="191" y="350" on="1"/>
        <pt x="177" y="271" on="0"/>
        <pt x="184" y="164" on="0"/>
        <pt x="221" y="98" on="0"/>
        <pt x="287" y="70" on="0"/>
        <pt x="332" y="70" on="1"/>
      </contour>
    </TTGlyph>
    <TTGlyph name="Oacute" xMin="74" yMin="-10" xMax="593" yMax="900">
      <component glyphName=".ttfautohint" x="74" y="0" flags="0x1000"/>
      <component glyphName="O" x="0" y="0" flags="0x1204"/>
      <component glyphName="acute" x="277" y="200" flags="0x1004"/>
    </TTGlyph>
    <TTGlyph name="Ocircumflex" xMin="74" yMin="-10" xMax="593" yMax="890">
      <component glyphName=".ttfautohint" x="74" y="0" flags="0x1000"/>
      <component glyphName="O" x="0" y="0" flags="0x1204"/>
      <component glyphName="circumflex" x="175" y="200" flags="0x1004"/>
    </TTGlyph>
    <TTGlyph name="Odieresis" xMin="74" yMin="-10" xMax="593" yMax="875">
      <component glyphName=".ttfautohint" x="74" y="0" flags="0x1000"/>
      <component glyphName="O" x="0" y="0" flags="0x1204"/>
      <component glyphName="dieresis" x="180" y="200" flags="0x1004"/>
    </TTGlyph>
    <TTGlyph name="Ograve" xMin="74" yMin="-10" xMax="593" yMax="900">
      <component glyphName=".ttfautohint" x="74" y="0" flags="0x1000"/>
      <component glyphName="O" x="0" y="0" flags="0x1204"/>
      <component glyphName="grave" x="217" y="200" flags="0x1004"/>
    </TTGlyph>
    <TTGlyph name="Ohungarumlaut" xMin="74" yMin="-10" xMax="610" yMax="900">
      <component glyphName=".ttfautohint" x="74" y="0" flags="0x1000"/>
      <component glyphName="O" x="0" y="0" flags="0x1204"/>
      <component glyphName="hungarumlaut" x="227" y="200" flags="0x1004"/>
    </TTGlyph>
    <TTGlyph name="Omacron" xMin="74" yMin="-10" xMax="593" yMax="860">
      <component glyphName=".ttfautohint" x="74" y="0" flags="0x1000"/>
      <component glyphName="O" x="0" y="0" flags="0x1204"/>
      <component glyphName="macron" x="180" y="200" flags="0x1004"/>
    </TTGlyph>
    <TTGlyph name="Oslash" xMin="35" yMin="-10" xMax="638" yMax="710">
      <contour>
        <pt x="101" y="89" on="1"/>
        <pt x="81" y="133" on="0"/>
        <pt x="75" y="261" on="0"/>
        <pt x="91" y="350" on="1"/>
        <pt x="108" y="447" on="0"/>
        <pt x="168" y="584" on="0"/>
        <pt x="248" y="671" on="0"/>
        <pt x="346" y="710" on="0"/>
        <pt x="400" y="710" on="1"/>
        <pt x="483" y="710" on="0"/>
        <pt x="532" y="665" on="1"/>
        <pt x="558" y="700" on="1"/>
        <pt x="638" y="700" on="1"/>
        <pt x="571" y="610" on="1"/>
        <pt x="591" y="567" on="0"/>
        <pt x="597" y="438" on="0"/>
        <pt x="581" y="350" on="1"/>
        <pt x="564" y="252" on="0"/>
        <pt x="504" y="116" on="0"/>
        <pt x="424" y="29" on="0"/>
        <pt x="327" y="-10" on="0"/>
        <pt x="273" y="-10" on="1"/>
        <pt x="232" y="-10" on="0"/>
        <pt x="165" y="12" on="0"/>
        <pt x="141" y="35" on="1"/>
        <pt x="115" y="0" on="1"/>
        <pt x="35" y="0" on="1"/>
      </contour>
      <contour>
        <pt x="191" y="350" on="1"/>
        <pt x="183" y="302" on="0"/>
        <pt x="178" y="225" on="0"/>
        <pt x="180" y="194" on="1"/>
        <pt x="473" y="586" on="1"/>
        <pt x="459" y="615" on="0"/>
        <pt x="413" y="640" on="0"/>
        <pt x="387" y="640" on="1"/>
        <pt x="359" y="640" on="0"/>
        <pt x="302" y="611" on="0"/>
        <pt x="249" y="544" on="0"/>
        <pt x="206" y="432" on="0"/>
      </contour>
      <contour>
        <pt x="481" y="350" on="1"/>
        <pt x="489" y="398" on="0"/>
        <pt x="495" y="475" on="0"/>
        <pt x="493" y="505" on="1"/>
        <pt x="199" y="113" on="1"/>
        <pt x="214" y="84" on="0"/>
        <pt x="259" y="60" on="0"/>
        <pt x="285" y="60" on="1"/>
        <pt x="313" y="60" on="0"/>
        <pt x="370" y="89" on="0"/>
        <pt x="423" y="156" on="0"/>
        <pt x="466" y="267" on="0"/>
      </contour>
    </TTGlyph>
    <TTGlyph name="Otilde" xMin="74" yMin="-10" xMax="593" yMax="875">
      <component glyphName=".ttfautohint" x="74" y="0" flags="0x1000"/>
      <component glyphName="O" x="0" y="0" flags="0x1204"/>
      <component glyphName="tilde" x="177" y="180" flags="0x1004"/>
    </TTGlyph>
    <TTGlyph name="P" xMin="65" yMin="0" xMax="577" yMax="700">
      <contour>
        <pt x="299" y="310" on="1"/>
        <pt x="374" y="310" on="0"/>
        <pt x="463" y="387" on="0"/>
        <pt x="477" y="470" on="1"/>
        <pt x="492" y="553" on="0"/>
        <pt x="431" y="630" on="0"/>
        <pt x="356" y="630" on="1"/>
        <pt x="276" y="630" on="1"/>
        <pt x="219" y="310" on="1"/>
      </contour>
      <contour>
        <pt x="207" y="240" on="1"/>
        <pt x="165" y="0" on="1"/>
        <pt x="65" y="0" on="1"/>
        <pt x="188" y="700" on="1"/>
        <pt x="368" y="700" on="1"/>
        <pt x="496" y="700" on="0"/>
        <pt x="597" y="583" on="0"/>
        <pt x="577" y="470" on="1"/>
        <pt x="557" y="357" on="0"/>
        <pt x="415" y="240" on="0"/>
        <pt x="287" y="240" on="1"/>
      </contour>
    </TTGlyph>
    <TTGlyph name="Q" xMin="79" yMin="-155" xMax="593" yMax="710">
      <contour>
        <pt x="581" y="350" on="1"/>
        <pt x="566" y="264" on="0"/>
        <pt x="515" y="137" on="0"/>
        <pt x="448" y="51" on="0"/>
        <pt x="368" y="2" on="0"/>
        <pt x="324" y="-5" on="1"/>
        <pt x="316" y="-47" on="0"/>
        <pt x="345" y="-85" on="0"/>
        <pt x="375" y="-85" on="1"/>
        <pt x="388" y="-85" on="0"/>
        <pt x="400" y="-80" on="1"/>
        <pt x="405" y="-78" on="0"/>
        <pt x="411" y="-75" on="1"/>
        <pt x="421" y="-75" on="1"/>
        <pt x="430" y="-140" on="1"/>
        <pt x="418" y="-144" on="0"/>
        <pt x="406" y="-148" on="1"/>
        <pt x="395" y="-151" on="0"/>
        <pt x="367" y="-155" on="0"/>
        <pt x="352" y="-155" on="1"/>
        <pt x="280" y="-155" on="0"/>
        <pt x="212" y="-73" on="0"/>
        <pt x="224" y="-5" on="1"/>
        <pt x="182" y="2" on="0"/>
        <pt x="119" y="51" on="0"/>
        <pt x="82" y="137" on="0"/>
        <pt x="76" y="264" on="0"/>
        <pt x="91" y="350" on="1"/>
        <pt x="108" y="447" on="0"/>
        <pt x="168" y="584" on="0"/>
        <pt x="248" y="671" on="0"/>
        <pt x="346" y="710" on="0"/>
        <pt x="400" y="710" on="1"/>
        <pt x="454" y="710" on="0"/>
        <pt x="537" y="671" on="0"/>
        <pt x="587" y="584" on="0"/>
        <pt x="598" y="447" on="0"/>
      </contour>
      <contour>
        <pt x="191" y="350" on="1"/>
        <pt x="176" y="267" on="0"/>
        <pt x="181" y="156" on="0"/>
        <pt x="209" y="89" on="0"/>
        <pt x="257" y="60" on="0"/>
        <pt x="285" y="60" on="1"/>
        <pt x="313" y="60" on="0"/>
        <pt x="370" y="89" on="0"/>
        <pt x="423" y="156" on="0"/>
        <pt x="466" y="267" on="0"/>
        <pt x="481" y="350" on="1"/>
        <pt x="496" y="432" on="0"/>
        <pt x="491" y="544" on="0"/>
        <pt x="462" y="611" on="0"/>
        <pt x="415" y="640" on="0"/>
        <pt x="387" y="640" on="1"/>
        <pt x="359" y="640" on="0"/>
        <pt x="302" y="611" on="0"/>
        <pt x="249" y="544" on="0"/>
        <pt x="206" y="432" on="0"/>
      </contour>
    </TTGlyph>
    <TTGlyph name="R" xMin="65" yMin="0" xMax="569" yMax="700">
      <contour>
        <pt x="210" y="260" on="1"/>
        <pt x="165" y="0" on="1"/>
        <pt x="65" y="0" on="1"/>
        <pt x="188" y="700" on="1"/>
        <pt x="358" y="700" on="1"/>
        <pt x="486" y="700" on="0"/>
        <pt x="588" y="586" on="0"/>
        <pt x="569" y="480" on="1"/>
        <pt x="542" y="320" on="0"/>
        <pt x="396" y="275" on="1"/>
        <pt x="515" y="0" on="1"/>
        <pt x="400" y="0" on="1"/>
        <pt x="290" y="260" on="1"/>
      </contour>
      <contour>
        <pt x="293" y="330" on="1"/>
        <pt x="443" y="330" on="0"/>
        <pt x="469" y="480" on="1"/>
        <pt x="496" y="630" on="0"/>
        <pt x="346" y="630" on="1"/>
        <pt x="276" y="630" on="1"/>
        <pt x="223" y="330" on="1"/>
      </contour>
    </TTGlyph>
    <TTGlyph name="Racute" xMin="65" yMin="0" xMax="569" yMax="900">
      <component glyphName=".ttfautohint" x="65" y="0" flags="0x1000"/>
      <component glyphName="R" x="0" y="0" flags="0x1204"/>
      <component glyphName="acute" x="260" y="200" flags="0x1004"/>
    </TTGlyph>
    <TTGlyph name="Rcaron" xMin="65" yMin="0" xMax="569" yMax="890">
      <component glyphName=".ttfautohint" x="65" y="0" flags="0x1000"/>
      <component glyphName="R" x="0" y="0" flags="0x1204"/>
      <component glyphName="caron" x="147" y="200" flags="0x1004"/>
    </TTGlyph>
    <TTGlyph name="Rcommaaccent" xMin="65" yMin="-226" xMax="569" yMax="700">
      <component glyphName=".ttfautohint" x="65" y="0" flags="0x1000"/>
      <component glyphName="R" x="0" y="0" flags="0x1204"/>
      <component glyphName="commaaccent" x="228" y="10" flags="0x1004"/>
    </TTGlyph>
    <TTGlyph name="S" xMin="17" yMin="-10" xMax="540" yMax="710">
      <contour>
        <pt x="355" y="710" on="1"/>
        <pt x="404" y="710" on="0"/>
        <pt x="473" y="693" on="0"/>
        <pt x="496" y="682" on="1"/>
        <pt x="522" y="670" on="0"/>
        <pt x="540" y="655" on="1"/>
        <pt x="494" y="595" on="1"/>
        <pt x="484" y="595" on="1"/>
        <pt x="471" y="607" on="0"/>
        <pt x="452" y="617" on="1"/>
        <pt x="435" y="625" on="0"/>
        <pt x="386" y="640" on="0"/>
        <pt x="352" y="640" on="1"/>
        <pt x="326" y="640" on="0"/>
        <pt x="279" y="622" on="0"/>
        <pt x="242" y="592" on="0"/>
        <pt x="217" y="552" on="0"/>
        <pt x="213" y="530" on="1"/>
        <pt x="206" y="490" on="0"/>
        <pt x="245" y="439" on="0"/>
        <pt x="311" y="400" on="0"/>
        <pt x="389" y="365" on="0"/>
        <pt x="452" y="316" on="0"/>
        <pt x="488" y="245" on="0"/>
        <pt x="478" y="190" on="1"/>
        <pt x="470" y="145" on="0"/>
        <pt x="428" y="71" on="0"/>
        <pt x="360" y="19" on="0"/>
        <pt x="269" y="-10" on="0"/>
        <pt x="213" y="-10" on="1"/>
        <pt x="164" y="-10" on="0"/>
        <pt x="91" y="6" on="0"/>
        <pt x="66" y="17" on="1"/>
        <pt x="37" y="29" on="0"/>
        <pt x="17" y="45" on="1"/>
        <pt x="63" y="105" on="1"/>
        <pt x="73" y="105" on="1"/>
        <pt x="89" y="92" on="0"/>
        <pt x="110" y="82" on="1"/>
        <pt x="128" y="74" on="0"/>
        <pt x="181" y="60" on="0"/>
        <pt x="215" y="60" on="1"/>
        <pt x="283" y="60" on="0"/>
        <pt x="367" y="127" on="0"/>
        <pt x="376" y="180" on="1"/>
        <pt x="383" y="220" on="0"/>
        <pt x="344" y="271" on="0"/>
        <pt x="278" y="310" on="0"/>
        <pt x="200" y="345" on="0"/>
        <pt x="137" y="394" on="0"/>
        <pt x="101" y="465" on="0"/>
        <pt x="111" y="520" on="1"/>
        <pt x="118" y="561" on="0"/>
        <pt x="160" y="631" on="0"/>
        <pt x="223" y="682" on="0"/>
        <pt x="306" y="710" on="0"/>
      </contour>
    </TTGlyph>
    <TTGlyph name="Sacute" xMin="17" yMin="-10" xMax="540" yMax="900">
      <component glyphName=".ttfautohint" x="17" y="0" flags="0x1000"/>
      <component glyphName="S" x="0" y="0" flags="0x1204"/>
      <component glyphName="acute" x="240" y="200" flags="0x1004"/>
    </TTGlyph>
    <TTGlyph name="Scaron" xMin="17" yMin="-10" xMax="540" yMax="890">
      <component glyphName=".ttfautohint" x="17" y="0" flags="0x1000"/>
      <component glyphName="S" x="0" y="0" flags="0x1204"/>
      <component glyphName="caron" x="127" y="200" flags="0x1004"/>
    </TTGlyph>
    <TTGlyph name="Scedilla" xMin="17" yMin="-190" xMax="540" yMax="710">
      <component glyphName=".ttfautohint" x="17" y="0" flags="0x1000"/>
      <component glyphName="S" x="0" y="0" flags="0x1204"/>
      <component glyphName="cedilla" x="165" y="0" flags="0x1004"/>
    </TTGlyph>
    <TTGlyph name="Scommaaccent" xMin="17" yMin="-270" xMax="540" yMax="710">
      <component glyphName=".ttfautohint" x="17" y="0" flags="0x1000"/>
      <component glyphName="S" x="0" y="0" flags="0x1204"/>
      <component glyphName="commaaccent" x="188" y="-34" flags="0x1004"/>
    </TTGlyph>
    <TTGlyph name="T" xMin="96" yMin="0" xMax="568" yMax="700">
      <contour>
        <pt x="165" y="0" on="1"/>
        <pt x="276" y="630" on="1"/>
        <pt x="96" y="630" on="1"/>
        <pt x="108" y="700" on="1"/>
        <pt x="568" y="700" on="1"/>
        <pt x="556" y="630" on="1"/>
        <pt x="376" y="630" on="1"/>
        <pt x="265" y="0" on="1"/>
      </contour>
    </TTGlyph>
    <TTGlyph name="Tcaron" xMin="96" yMin="0" xMax="568" yMax="890">
      <component glyphName=".ttfautohint" x="96" y="0" flags="0x1000"/>
      <component glyphName="T" x="0" y="0" flags="0x1204"/>
      <component glyphName="caron" x="115" y="200" flags="0x1004"/>
    </TTGlyph>
    <TTGlyph name="Tcommaaccent" xMin="96" yMin="-275" xMax="568" yMax="700">
      <component glyphName=".ttfautohint" x="96" y="0" flags="0x1000"/>
      <component glyphName="T" x="0" y="0" flags="0x1204"/>
      <component glyphName="commaaccent" x="167" y="-39" flags="0x1004"/>
    </TTGlyph>
    <TTGlyph name="Thorn" xMin="61" yMin="-20" xMax="606" yMax="720">
      <contour>
        <pt x="265" y="570" on="1"/>
        <pt x="187" y="130" on="1"/>
        <pt x="277" y="130" on="1"/>
        <pt x="364" y="130" on="0"/>
        <pt x="487" y="241" on="0"/>
        <pt x="506" y="350" on="1"/>
        <pt x="516" y="404" on="0"/>
        <pt x="503" y="487" on="0"/>
        <pt x="463" y="542" on="0"/>
        <pt x="398" y="570" on="0"/>
        <pt x="355" y="570" on="1"/>
      </contour>
      <contour>
        <pt x="277" y="640" on="1"/>
        <pt x="367" y="640" on="1"/>
        <pt x="507" y="640" on="0"/>
        <pt x="631" y="490" on="0"/>
        <pt x="606" y="350" on="1"/>
        <pt x="582" y="210" on="0"/>
        <pt x="405" y="60" on="0"/>
        <pt x="265" y="60" on="1"/>
        <pt x="175" y="60" on="1"/>
        <pt x="161" y="-20" on="1"/>
        <pt x="61" y="-20" on="1"/>
        <pt x="191" y="720" on="1"/>
        <pt x="291" y="720" on="1"/>
      </contour>
    </TTGlyph>
    <TTGlyph name="U" xMin="98" yMin="-10" xMax="633" yMax="700">
      <contour>
        <pt x="295" y="60" on="1"/>
        <pt x="352" y="60" on="0"/>
        <pt x="434" y="137" on="0"/>
        <pt x="448" y="220" on="1"/>
        <pt x="533" y="700" on="1"/>
        <pt x="633" y="700" on="1"/>
        <pt x="548" y="220" on="1"/>
        <pt x="528" y="107" on="0"/>
        <pt x="392" y="-10" on="0"/>
        <pt x="283" y="-10" on="1"/>
        <pt x="174" y="-10" on="0"/>
        <pt x="78" y="107" on="0"/>
        <pt x="98" y="220" on="1"/>
        <pt x="183" y="700" on="1"/>
        <pt x="283" y="700" on="1"/>
        <pt x="198" y="220" on="1"/>
        <pt x="184" y="137" on="0"/>
        <pt x="238" y="60" on="0"/>
      </contour>
    </TTGlyph>
    <TTGlyph name="Uacute" xMin="78" yMin="-10" xMax="633" yMax="880">
      <component glyphName=".ttfautohint" x="78" y="0" flags="0x1000"/>
      <component glyphName="U" x="0" y="0" flags="0x1204"/>
      <component glyphName="acute" x="293" y="180" flags="0x1004"/>
    </TTGlyph>
    <TTGlyph name="Ucircumflex" xMin="78" yMin="-10" xMax="633" yMax="890">
      <component glyphName=".ttfautohint" x="78" y="0" flags="0x1000"/>
      <component glyphName="U" x="0" y="0" flags="0x1204"/>
      <component glyphName="circumflex" x="185" y="200" flags="0x1004"/>
    </TTGlyph>
    <TTGlyph name="Udieresis" xMin="78" yMin="-10" xMax="633" yMax="875">
      <component glyphName=".ttfautohint" x="78" y="0" flags="0x1000"/>
      <component glyphName="U" x="0" y="0" flags="0x1204"/>
      <component glyphName="dieresis" x="190" y="200" flags="0x1004"/>
    </TTGlyph>
    <TTGlyph name="Ugrave" xMin="78" yMin="-10" xMax="633" yMax="880">
      <component glyphName=".ttfautohint" x="78" y="0" flags="0x1000"/>
      <component glyphName="U" x="0" y="0" flags="0x1204"/>
      <component glyphName="grave" x="223" y="180" flags="0x1004"/>
    </TTGlyph>
    <TTGlyph name="Uhungarumlaut" xMin="78" yMin="-10" xMax="633" yMax="890">
      <component glyphName=".ttfautohint" x="78" y="0" flags="0x1000"/>
      <component glyphName="U" x="0" y="0" flags="0x1204"/>
      <component glyphName="hungarumlaut" x="235" y="190" flags="0x1004"/>
    </TTGlyph>
    <TTGlyph name="Umacron" xMin="78" yMin="-10" xMax="633" yMax="850">
      <component glyphName=".ttfautohint" x="78" y="0" flags="0x1000"/>
      <component glyphName="U" x="0" y="0" flags="0x1204"/>
      <component glyphName="macron" x="188" y="190" flags="0x1004"/>
    </TTGlyph>
    <TTGlyph name="Uogonek" xMin="78" yMin="-155" xMax="633" yMax="700">
      <component glyphName=".ttfautohint" x="78" y="0" flags="0x1000"/>
      <component glyphName="U" x="0" y="0" flags="0x1204"/>
      <component glyphName="ogonek" x="225" y="0" flags="0x1004"/>
    </TTGlyph>
    <TTGlyph name="Uring" xMin="78" yMin="-10" xMax="633" yMax="920">
      <component glyphName=".ttfautohint" x="78" y="0" flags="0x1000"/>
      <component glyphName="U" x="0" y="0" flags="0x1204"/>
      <component glyphName="ring" x="233" y="190" flags="0x1004"/>
    </TTGlyph>
    <TTGlyph name="V" xMin="113" yMin="0" xMax="633" yMax="700">
      <contour>
        <pt x="270" y="105" on="1"/>
        <pt x="274" y="117" on="0"/>
        <pt x="278" y="129" on="1"/>
        <pt x="282" y="140" on="0"/>
        <pt x="290" y="164" on="0"/>
        <pt x="295" y="175" on="1"/>
        <pt x="533" y="700" on="1"/>
        <pt x="633" y="700" on="1"/>
        <pt x="315" y="0" on="1"/>
        <pt x="185" y="0" on="1"/>
        <pt x="113" y="700" on="1"/>
        <pt x="213" y="700" on="1"/>
        <pt x="265" y="175" on="1"/>
        <pt x="266" y="164" on="0"/>
        <pt x="267" y="140" on="0"/>
        <pt x="267" y="129" on="1"/>
        <pt x="267" y="117" on="0"/>
        <pt x="266" y="105" on="1"/>
      </contour>
    </TTGlyph>
    <TTGlyph name="W" xMin="113" yMin="0" xMax="943" yMax="700">
      <contour>
        <pt x="617" y="210" on="1"/>
        <pt x="617" y="199" on="0"/>
        <pt x="616" y="171" on="0"/>
        <pt x="615" y="159" on="1"/>
        <pt x="614" y="145" on="0"/>
        <pt x="613" y="130" on="1"/>
        <pt x="617" y="130" on="1"/>
        <pt x="621" y="145" on="0"/>
        <pt x="625" y="159" on="1"/>
        <pt x="629" y="171" on="0"/>
        <pt x="637" y="199" on="0"/>
        <pt x="642" y="210" on="1"/>
        <pt x="843" y="700" on="1"/>
        <pt x="943" y="700" on="1"/>
        <pt x="655" y="0" on="1"/>
        <pt x="535" y="0" on="1"/>
        <pt x="506" y="490" on="1"/>
        <pt x="504" y="515" on="0"/>
        <pt x="506" y="541" on="1"/>
        <pt x="506" y="555" on="0"/>
        <pt x="507" y="570" on="1"/>
        <pt x="503" y="570" on="1"/>
        <pt x="498" y="555" on="0"/>
        <pt x="494" y="541" on="1"/>
        <pt x="490" y="529" on="0"/>
        <pt x="481" y="501" on="0"/>
        <pt x="476" y="490" on="1"/>
        <pt x="275" y="0" on="1"/>
        <pt x="155" y="0" on="1"/>
        <pt x="113" y="700" on="1"/>
        <pt x="213" y="700" on="1"/>
        <pt x="242" y="210" on="1"/>
        <pt x="242" y="199" on="0"/>
        <pt x="241" y="171" on="0"/>
        <pt x="240" y="159" on="1"/>
        <pt x="239" y="145" on="0"/>
        <pt x="237" y="130" on="1"/>
        <pt x="241" y="130" on="1"/>
        <pt x="245" y="145" on="0"/>
        <pt x="249" y="159" on="1"/>
        <pt x="253" y="171" on="0"/>
        <pt x="262" y="199" on="0"/>
        <pt x="267" y="210" on="1"/>
        <pt x="468" y="700" on="1"/>
        <pt x="588" y="700" on="1"/>
      </contour>
    </TTGlyph>
    <TTGlyph name="X" xMin="-10" yMin="0" xMax="608" yMax="700">
      <contour>
        <pt x="303" y="475" on="1"/>
        <pt x="305" y="468" on="0"/>
        <pt x="308" y="453" on="0"/>
        <pt x="310" y="446" on="1"/>
        <pt x="312" y="438" on="0"/>
        <pt x="313" y="430" on="1"/>
        <pt x="317" y="430" on="1"/>
        <pt x="321" y="438" on="0"/>
        <pt x="325" y="446" on="1"/>
        <pt x="329" y="453" on="0"/>
        <pt x="338" y="468" on="0"/>
        <pt x="343" y="475" on="1"/>
        <pt x="498" y="700" on="1"/>
        <pt x="608" y="700" on="1"/>
        <pt x="367" y="355" on="1"/>
        <pt x="490" y="0" on="1"/>
        <pt x="380" y="0" on="1"/>
        <pt x="301" y="235" on="1"/>
        <pt x="299" y="241" on="0"/>
        <pt x="296" y="257" on="0"/>
        <pt x="294" y="264" on="1"/>
        <pt x="292" y="272" on="0"/>
        <pt x="291" y="280" on="1"/>
        <pt x="287" y="280" on="1"/>
        <pt x="282" y="272" on="0"/>
        <pt x="278" y="264" on="1"/>
        <pt x="274" y="257" on="0"/>
        <pt x="266" y="241" on="0"/>
        <pt x="261" y="235" on="1"/>
        <pt x="100" y="0" on="1"/>
        <pt x="-10" y="0" on="1"/>
        <pt x="237" y="355" on="1"/>
        <pt x="118" y="700" on="1"/>
        <pt x="228" y="700" on="1"/>
      </contour>
    </TTGlyph>
    <TTGlyph name="Y" xMin="98" yMin="0" xMax="628" yMax="700">
      <contour>
        <pt x="523" y="700" on="1"/>
        <pt x="628" y="700" on="1"/>
        <pt x="330" y="230" on="1"/>
        <pt x="290" y="0" on="1"/>
        <pt x="190" y="0" on="1"/>
        <pt x="230" y="230" on="1"/>
        <pt x="98" y="700" on="1"/>
        <pt x="203" y="700" on="1"/>
        <pt x="289" y="395" on="1"/>
        <pt x="291" y="385" on="0"/>
        <pt x="295" y="365" on="0"/>
        <pt x="296" y="356" on="1"/>
        <pt x="297" y="345" on="0"/>
        <pt x="297" y="335" on="1"/>
        <pt x="301" y="335" on="1"/>
        <pt x="305" y="345" on="0"/>
        <pt x="309" y="356" on="1"/>
        <pt x="317" y="376" on="0"/>
        <pt x="329" y="395" on="1"/>
      </contour>
    </TTGlyph>
    <TTGlyph name="Yacute" xMin="98" yMin="0" xMax="628" yMax="880">
      <component glyphName=".ttfautohint" x="98" y="0" flags="0x1000"/>
      <component glyphName="Y" x="0" y="0" flags="0x1204"/>
      <component glyphName="acute" x="248" y="180" flags="0x1004"/>
    </TTGlyph>
    <TTGlyph name="Ydieresis" xMin="98" yMin="0" xMax="628" yMax="875">
      <component glyphName=".ttfautohint" x="98" y="0" flags="0x1000"/>
      <component glyphName="Y" x="0" y="0" flags="0x1204"/>
      <component glyphName="dieresis" x="145" y="200" flags="0x1004"/>
    </TTGlyph>
    <TTGlyph name="Z" xMin="0" yMin="0" xMax="553" yMax="700">
      <contour>
        <pt x="0" y="0" on="1"/>
        <pt x="13" y="75" on="1"/>
        <pt x="421" y="630" on="1"/>
        <pt x="111" y="630" on="1"/>
        <pt x="123" y="700" on="1"/>
        <pt x="553" y="700" on="1"/>
        <pt x="540" y="625" on="1"/>
        <pt x="132" y="70" on="1"/>
        <pt x="447" y="70" on="1"/>
        <pt x="435" y="0" on="1"/>
      </contour>
    </TTGlyph>
    <TTGlyph name="Zacute" xMin="0" yMin="0" xMax="553" yMax="900">
      <component glyphName=".ttfautohint" x="0" y="0" flags="0x1000"/>
      <component glyphName="Z" x="0" y="0" flags="0x1204"/>
      <component glyphName="acute" x="220" y="200" flags="0x1004"/>
    </TTGlyph>
    <TTGlyph name="Zcaron" xMin="0" yMin="0" xMax="553" yMax="890">
      <component glyphName=".ttfautohint" x="0" y="0" flags="0x1000"/>
      <component glyphName="Z" x="0" y="0" flags="0x1204"/>
      <component glyphName="caron" x="117" y="200" flags="0x1004"/>
    </TTGlyph>
    <TTGlyph name="Zdotaccent" xMin="0" yMin="0" xMax="553" yMax="880">
      <component glyphName=".ttfautohint" x="0" y="0" flags="0x1000"/>
      <component glyphName="Z" x="0" y="0" flags="0x1204"/>
      <component glyphName="dotaccent" x="207" y="200" flags="0x1004"/>
    </TTGlyph>
    <TTGlyph name="a" xMin="45" yMin="-10" xMax="471" yMax="510">
      <contour>
        <pt x="371" y="320" on="1"/>
        <pt x="382" y="380" on="0"/>
        <pt x="336" y="440" on="0"/>
        <pt x="287" y="440" on="1"/>
        <pt x="264" y="440" on="0"/>
        <pt x="222" y="425" on="0"/>
        <pt x="205" y="417" on="1"/>
        <pt x="186" y="407" on="0"/>
        <pt x="169" y="395" on="1"/>
        <pt x="159" y="395" on="1"/>
        <pt x="135" y="455" on="1"/>
        <pt x="157" y="470" on="0"/>
        <pt x="184" y="482" on="1"/>
        <pt x="207" y="493" on="0"/>
        <pt x="271" y="510" on="0"/>
        <pt x="309" y="510" on="1"/>
        <pt x="352" y="510" on="0"/>
        <pt x="419" y="482" on="0"/>
        <pt x="462" y="431" on="0"/>
        <pt x="478" y="361" on="0"/>
        <pt x="471" y="320" on="1"/>
        <pt x="415" y="0" on="1"/>
        <pt x="345" y="0" on="1"/>
        <pt x="345" y="60" on="1"/>
        <pt x="340" y="60" on="1"/>
        <pt x="323" y="40" on="0"/>
        <pt x="299" y="25" on="1"/>
        <pt x="279" y="11" on="0"/>
        <pt x="221" y="-10" on="0"/>
        <pt x="183" y="-10" on="1"/>
        <pt x="104" y="-10" on="0"/>
        <pt x="32" y="73" on="0"/>
        <pt x="45" y="145" on="1"/>
        <pt x="51" y="179" on="0"/>
        <pt x="85" y="234" on="0"/>
        <pt x="143" y="273" on="0"/>
        <pt x="229" y="295" on="0"/>
        <pt x="287" y="295" on="1"/>
        <pt x="367" y="295" on="1"/>
      </contour>
      <contour>
        <pt x="354" y="225" on="1"/>
        <pt x="274" y="225" on="1"/>
        <pt x="214" y="225" on="0"/>
        <pt x="151" y="179" on="0"/>
        <pt x="145" y="145" on="1"/>
        <pt x="138" y="107" on="0"/>
        <pt x="176" y="65" on="0"/>
        <pt x="221" y="65" on="1"/>
        <pt x="244" y="65" on="0"/>
        <pt x="284" y="84" on="0"/>
        <pt x="301" y="95" on="1"/>
        <pt x="319" y="108" on="0"/>
        <pt x="337" y="125" on="1"/>
      </contour>
    </TTGlyph>
    <TTGlyph name="aacute" xMin="32" yMin="-10" xMax="471" yMax="700">
      <component glyphName=".ttfautohint" x="32" y="0" flags="0x1000"/>
      <component glyphName="a" x="0" y="0" flags="0x1204"/>
      <component glyphName="acute" x="197" y="0" flags="0x1004"/>
    </TTGlyph>
    <TTGlyph name="abreve" xMin="32" yMin="-10" xMax="499" yMax="681">
      <component glyphName=".ttfautohint" x="32" y="0" flags="0x1000"/>
      <component glyphName="a" x="0" y="0" flags="0x1204"/>
      <component glyphName="breve" x="93" y="-9" flags="0x1004"/>
    </TTGlyph>
    <TTGlyph name="acircumflex" xMin="32" yMin="-10" xMax="471" yMax="690">
      <component glyphName=".ttfautohint" x="32" y="0" flags="0x1000"/>
      <component glyphName="a" x="0" y="0" flags="0x1204"/>
      <component glyphName="circumflex" x="95" y="0" flags="0x1004"/>
    </TTGlyph>
    <TTGlyph name="acute" xMin="81" yMin="550" xMax="263" yMax="700">
      <contour>
        <pt x="263" y="700" on="1"/>
        <pt x="146" y="550" on="1"/>
        <pt x="81" y="550" on="1"/>
        <pt x="153" y="700" on="1"/>
      </contour>
    </TTGlyph>
    <TTGlyph name="adieresis" xMin="32" yMin="-10" xMax="479" yMax="675">
      <component glyphName=".ttfautohint" x="32" y="0" flags="0x1000"/>
      <component glyphName="a" x="0" y="0" flags="0x1204"/>
      <component glyphName="dieresis" x="100" y="0" flags="0x1004"/>
    </TTGlyph>
    <TTGlyph name="ae" xMin="45" yMin="-10" xMax="764" yMax="510">
      <contour>
        <pt x="604" y="510" on="1"/>
        <pt x="647" y="510" on="0"/>
        <pt x="715" y="478" on="0"/>
        <pt x="757" y="413" on="0"/>
        <pt x="770" y="316" on="0"/>
        <pt x="759" y="250" on="1"/>
        <pt x="756" y="235" on="1"/>
        <pt x="732" y="215" on="1"/>
        <pt x="452" y="215" on="1"/>
        <pt x="445" y="176" on="0"/>
        <pt x="453" y="117" on="0"/>
        <pt x="478" y="79" on="0"/>
        <pt x="519" y="60" on="0"/>
        <pt x="545" y="60" on="1"/>
        <pt x="568" y="60" on="0"/>
        <pt x="609" y="74" on="0"/>
        <pt x="626" y="82" on="1"/>
        <pt x="645" y="92" on="0"/>
        <pt x="663" y="105" on="1"/>
        <pt x="673" y="105" on="1"/>
        <pt x="697" y="45" on="1"/>
        <pt x="674" y="29" on="0"/>
        <pt x="647" y="17" on="1"/>
        <pt x="624" y="6" on="0"/>
        <pt x="561" y="-10" on="0"/>
        <pt x="523" y="-10" on="1"/>
        <pt x="474" y="-10" on="0"/>
        <pt x="395" y="29" on="0"/>
        <pt x="374" y="70" on="1"/>
        <pt x="350" y="48" on="0"/>
        <pt x="320" y="30" on="1"/>
        <pt x="294" y="15" on="0"/>
        <pt x="225" y="-10" on="0"/>
        <pt x="183" y="-10" on="1"/>
        <pt x="104" y="-10" on="0"/>
        <pt x="32" y="73" on="0"/>
        <pt x="45" y="145" on="1"/>
        <pt x="51" y="179" on="0"/>
        <pt x="85" y="234" on="0"/>
        <pt x="143" y="273" on="0"/>
        <pt x="229" y="295" on="0"/>
        <pt x="287" y="295" on="1"/>
        <pt x="367" y="295" on="1"/>
        <pt x="371" y="320" on="1"/>
        <pt x="382" y="380" on="0"/>
        <pt x="336" y="440" on="0"/>
        <pt x="287" y="440" on="1"/>
        <pt x="264" y="440" on="0"/>
        <pt x="222" y="425" on="0"/>
        <pt x="205" y="417" on="1"/>
        <pt x="186" y="407" on="0"/>
        <pt x="169" y="395" on="1"/>
        <pt x="159" y="395" on="1"/>
        <pt x="135" y="455" on="1"/>
        <pt x="157" y="470" on="0"/>
        <pt x="184" y="482" on="1"/>
        <pt x="207" y="493" on="0"/>
        <pt x="271" y="510" on="0"/>
        <pt x="309" y="510" on="1"/>
        <pt x="366" y="510" on="0"/>
        <pt x="433" y="469" on="0"/>
        <pt x="446" y="435" on="1"/>
        <pt x="478" y="469" on="0"/>
        <pt x="559" y="510" on="0"/>
      </contour>
      <contour>
        <pt x="592" y="440" on="1"/>
        <pt x="551" y="440" on="0"/>
        <pt x="479" y="367" on="0"/>
        <pt x="465" y="285" on="1"/>
        <pt x="665" y="285" on="1"/>
        <pt x="672" y="326" on="0"/>
        <pt x="667" y="385" on="0"/>
        <pt x="646" y="422" on="0"/>
        <pt x="613" y="440" on="0"/>
      </contour>
      <contour>
        <pt x="354" y="225" on="1"/>
        <pt x="274" y="225" on="1"/>
        <pt x="214" y="225" on="0"/>
        <pt x="151" y="179" on="0"/>
        <pt x="145" y="145" on="1"/>
        <pt x="138" y="107" on="0"/>
        <pt x="176" y="65" on="0"/>
        <pt x="221" y="65" on="1"/>
        <pt x="244" y="65" on="0"/>
        <pt x="284" y="84" on="0"/>
        <pt x="301" y="95" on="1"/>
        <pt x="319" y="108" on="0"/>
        <pt x="337" y="125" on="1"/>
      </contour>
    </TTGlyph>
    <TTGlyph name="afii10017" xMin="-10" yMin="0" xMax="530" yMax="700">
      <contour>
        <pt x="430" y="0" on="1"/>
        <pt x="406" y="180" on="1"/>
        <pt x="176" y="180" on="1"/>
        <pt x="90" y="0" on="1"/>
        <pt x="-10" y="0" on="1"/>
        <pt x="318" y="700" on="1"/>
        <pt x="448" y="700" on="1"/>
        <pt x="530" y="0" on="1"/>
      </contour>
      <contour>
        <pt x="209" y="250" on="1"/>
        <pt x="399" y="250" on="1"/>
        <pt x="367" y="525" on="1"/>
        <pt x="365" y="536" on="0"/>
        <pt x="365" y="561" on="0"/>
        <pt x="365" y="572" on="1"/>
        <pt x="365" y="584" on="0"/>
        <pt x="366" y="595" on="1"/>
        <pt x="362" y="595" on="1"/>
        <pt x="359" y="583" on="0"/>
        <pt x="355" y="571" on="1"/>
        <pt x="351" y="560" on="0"/>
        <pt x="342" y="536" on="0"/>
        <pt x="337" y="525" on="1"/>
      </contour>
    </TTGlyph>
    <TTGlyph name="afii10018" xMin="65" yMin="0" xMax="578" yMax="700">
      <contour>
        <pt x="329" y="420" on="1"/>
        <pt x="391" y="420" on="0"/>
        <pt x="478" y="391" on="0"/>
        <pt x="529" y="337" on="0"/>
        <pt x="545" y="259" on="0"/>
        <pt x="537" y="210" on="1"/>
        <pt x="520" y="112" on="0"/>
        <pt x="379" y="0" on="0"/>
        <pt x="255" y="0" on="1"/>
        <pt x="65" y="0" on="1"/>
        <pt x="188" y="700" on="1"/>
        <pt x="578" y="700" on="1"/>
        <pt x="566" y="630" on="1"/>
        <pt x="276" y="630" on="1"/>
        <pt x="239" y="420" on="1"/>
      </contour>
      <contour>
        <pt x="226" y="350" on="1"/>
        <pt x="177" y="70" on="1"/>
        <pt x="267" y="70" on="1"/>
        <pt x="339" y="70" on="0"/>
        <pt x="425" y="142" on="0"/>
        <pt x="437" y="210" on="1"/>
        <pt x="448" y="278" on="0"/>
        <pt x="388" y="350" on="0"/>
        <pt x="316" y="350" on="1"/>
      </contour>
    </TTGlyph>
    <TTGlyph name="afii10019" xMin="65" yMin="0" xMax="567" yMax="700">
      <contour>
        <pt x="425" y="370" on="1"/>
        <pt x="463" y="361" on="0"/>
        <pt x="489" y="338" on="1"/>
        <pt x="500" y="328" on="0"/>
        <pt x="520" y="301" on="0"/>
        <pt x="534" y="265" on="0"/>
        <pt x="538" y="219" on="0"/>
        <pt x="533" y="190" on="1"/>
        <pt x="518" y="104" on="0"/>
        <pt x="382" y="0" on="0"/>
        <pt x="255" y="0" on="1"/>
        <pt x="65" y="0" on="1"/>
        <pt x="188" y="700" on="1"/>
        <pt x="378" y="700" on="1"/>
        <pt x="432" y="700" on="0"/>
        <pt x="510" y="673" on="0"/>
        <pt x="557" y="627" on="0"/>
        <pt x="574" y="562" on="0"/>
        <pt x="567" y="525" on="1"/>
        <pt x="558" y="476" on="0"/>
        <pt x="512" y="416" on="0"/>
        <pt x="487" y="399" on="1"/>
        <pt x="458" y="379" on="0"/>
      </contour>
      <contour>
        <pt x="235" y="400" on="1"/>
        <pt x="325" y="400" on="1"/>
        <pt x="382" y="400" on="0"/>
        <pt x="456" y="462" on="0"/>
        <pt x="465" y="515" on="1"/>
        <pt x="475" y="568" on="0"/>
        <pt x="423" y="630" on="0"/>
        <pt x="366" y="630" on="1"/>
        <pt x="276" y="630" on="1"/>
      </contour>
      <contour>
        <pt x="223" y="330" on="1"/>
        <pt x="177" y="70" on="1"/>
        <pt x="267" y="70" on="1"/>
        <pt x="342" y="70" on="0"/>
        <pt x="424" y="136" on="0"/>
        <pt x="435" y="200" on="1"/>
        <pt x="446" y="264" on="0"/>
        <pt x="388" y="330" on="0"/>
        <pt x="313" y="330" on="1"/>
      </contour>
    </TTGlyph>
    <TTGlyph name="afii10020" xMin="65" yMin="0" xMax="578" yMax="700">
      <contour>
        <pt x="65" y="0" on="1"/>
        <pt x="188" y="700" on="1"/>
        <pt x="578" y="700" on="1"/>
        <pt x="566" y="630" on="1"/>
        <pt x="276" y="630" on="1"/>
        <pt x="165" y="0" on="1"/>
      </contour>
    </TTGlyph>
    <TTGlyph name="afii10021" xMin="-41" yMin="-150" xMax="613" yMax="700">
      <contour>
        <pt x="613" y="700" on="1"/>
        <pt x="502" y="70" on="1"/>
        <pt x="567" y="70" on="1"/>
        <pt x="528" y="-150" on="1"/>
        <pt x="448" y="-150" on="1"/>
        <pt x="460" y="0" on="1"/>
        <pt x="85" y="0" on="1"/>
        <pt x="43" y="-150" on="1"/>
        <pt x="-41" y="-150" on="1"/>
        <pt x="-3" y="70" on="1"/>
        <pt x="47" y="70" on="1"/>
        <pt x="64" y="87" on="0"/>
        <pt x="80" y="113" on="1"/>
        <pt x="94" y="135" on="0"/>
        <pt x="123" y="202" on="0"/>
        <pt x="134" y="250" on="1"/>
        <pt x="238" y="700" on="1"/>
      </contour>
      <contour>
        <pt x="402" y="70" on="1"/>
        <pt x="501" y="630" on="1"/>
        <pt x="321" y="630" on="1"/>
        <pt x="234" y="250" on="1"/>
        <pt x="223" y="202" on="0"/>
        <pt x="194" y="135" on="0"/>
        <pt x="180" y="113" on="1"/>
        <pt x="164" y="87" on="0"/>
        <pt x="147" y="70" on="1"/>
      </contour>
    </TTGlyph>
    <TTGlyph name="afii10022" xMin="65" yMin="0" xMax="578" yMax="700">
      <contour>
        <pt x="65" y="0" on="1"/>
        <pt x="188" y="700" on="1"/>
        <pt x="578" y="700" on="1"/>
        <pt x="566" y="630" on="1"/>
        <pt x="276" y="630" on="1"/>
        <pt x="235" y="400" on="1"/>
        <pt x="465" y="400" on="1"/>
        <pt x="453" y="330" on="1"/>
        <pt x="223" y="330" on="1"/>
        <pt x="177" y="70" on="1"/>
        <pt x="467" y="70" on="1"/>
        <pt x="455" y="0" on="1"/>
      </contour>
    </TTGlyph>
    <TTGlyph name="afii10023" xMin="65" yMin="0" xMax="578" yMax="875">
      <contour>
        <pt x="65" y="0" on="1"/>
        <pt x="188" y="700" on="1"/>
        <pt x="578" y="700" on="1"/>
        <pt x="566" y="630" on="1"/>
        <pt x="276" y="630" on="1"/>
        <pt x="235" y="400" on="1"/>
        <pt x="465" y="400" on="1"/>
        <pt x="453" y="330" on="1"/>
        <pt x="223" y="330" on="1"/>
        <pt x="177" y="70" on="1"/>
        <pt x="467" y="70" on="1"/>
        <pt x="455" y="0" on="1"/>
      </contour>
      <contour>
        <pt x="369" y="820" on="1"/>
        <pt x="364" y="796" on="0"/>
        <pt x="328" y="765" on="0"/>
        <pt x="304" y="765" on="1"/>
        <pt x="280" y="765" on="0"/>
        <pt x="254" y="796" on="0"/>
        <pt x="259" y="820" on="1"/>
        <pt x="264" y="844" on="0"/>
        <pt x="300" y="875" on="0"/>
        <pt x="324" y="875" on="1"/>
        <pt x="348" y="875" on="0"/>
        <pt x="374" y="844" on="0"/>
      </contour>
      <contour>
        <pt x="554" y="820" on="1"/>
        <pt x="549" y="796" on="0"/>
        <pt x="513" y="765" on="0"/>
        <pt x="489" y="765" on="1"/>
        <pt x="465" y="765" on="0"/>
        <pt x="439" y="796" on="0"/>
        <pt x="444" y="820" on="1"/>
        <pt x="449" y="844" on="0"/>
        <pt x="485" y="875" on="0"/>
        <pt x="509" y="875" on="1"/>
        <pt x="533" y="875" on="0"/>
        <pt x="559" y="844" on="0"/>
      </contour>
    </TTGlyph>
    <TTGlyph name="afii10024" xMin="0" yMin="-10" xMax="918" yMax="710">
      <contour>
        <pt x="524" y="395" on="1"/>
        <pt x="569" y="395" on="1"/>
        <pt x="611" y="395" on="0"/>
        <pt x="665" y="436" on="0"/>
        <pt x="677" y="470" on="1"/>
        <pt x="727" y="610" on="1"/>
        <pt x="744" y="655" on="0"/>
        <pt x="811" y="710" on="0"/>
        <pt x="860" y="710" on="1"/>
        <pt x="875" y="710" on="0"/>
        <pt x="896" y="707" on="0"/>
        <pt x="904" y="705" on="1"/>
        <pt x="912" y="702" on="0"/>
        <pt x="918" y="700" on="1"/>
        <pt x="896" y="635" on="1"/>
        <pt x="891" y="635" on="1"/>
        <pt x="885" y="637" on="1"/>
        <pt x="882" y="638" on="0"/>
        <pt x="876" y="640" on="0"/>
        <pt x="872" y="640" on="1"/>
        <pt x="840" y="640" on="0"/>
        <pt x="824" y="595" on="1"/>
        <pt x="775" y="455" on="1"/>
        <pt x="764" y="425" on="0"/>
        <pt x="725" y="389" on="0"/>
        <pt x="706" y="380" on="1"/>
        <pt x="683" y="369" on="0"/>
        <pt x="659" y="365" on="1"/>
        <pt x="683" y="359" on="0"/>
        <pt x="701" y="347" on="1"/>
        <pt x="717" y="336" on="0"/>
        <pt x="744" y="297" on="0"/>
        <pt x="746" y="265" on="1"/>
        <pt x="753" y="105" on="1"/>
        <pt x="756" y="60" on="0"/>
        <pt x="785" y="60" on="1"/>
        <pt x="791" y="60" on="0"/>
        <pt x="799" y="62" on="1"/>
        <pt x="803" y="63" on="0"/>
        <pt x="806" y="65" on="1"/>
        <pt x="811" y="65" on="1"/>
        <pt x="810" y="0" on="1"/>
        <pt x="803" y="-3" on="0"/>
        <pt x="794" y="-5" on="1"/>
        <pt x="776" y="-10" on="0"/>
        <pt x="748" y="-10" on="1"/>
        <pt x="699" y="-10" on="0"/>
        <pt x="652" y="45" on="0"/>
        <pt x="650" y="90" on="1"/>
        <pt x="644" y="250" on="1"/>
        <pt x="642" y="284" on="0"/>
        <pt x="605" y="325" on="0"/>
        <pt x="567" y="325" on="1"/>
        <pt x="512" y="325" on="1"/>
        <pt x="455" y="0" on="1"/>
        <pt x="355" y="0" on="1"/>
        <pt x="412" y="325" on="1"/>
        <pt x="357" y="325" on="1"/>
        <pt x="319" y="325" on="0"/>
        <pt x="268" y="284" on="0"/>
        <pt x="254" y="250" on="1"/>
        <pt x="190" y="90" on="1"/>
        <pt x="173" y="45" on="0"/>
        <pt x="107" y="-10" on="0"/>
        <pt x="58" y="-10" on="1"/>
        <pt x="29" y="-10" on="0"/>
        <pt x="14" y="-5" on="1"/>
        <pt x="5" y="-3" on="0"/>
        <pt x="0" y="0" on="1"/>
        <pt x="21" y="65" on="1"/>
        <pt x="26" y="65" on="1"/>
        <pt x="28" y="63" on="0"/>
        <pt x="32" y="62" on="1"/>
        <pt x="38" y="60" on="0"/>
        <pt x="45" y="60" on="1"/>
        <pt x="75" y="60" on="0"/>
        <pt x="93" y="105" on="1"/>
        <pt x="156" y="265" on="1"/>
        <pt x="169" y="297" on="0"/>
        <pt x="210" y="336" on="0"/>
        <pt x="230" y="347" on="1"/>
        <pt x="253" y="359" on="0"/>
        <pt x="279" y="365" on="1"/>
        <pt x="255" y="369" on="0"/>
        <pt x="237" y="380" on="1"/>
        <pt x="221" y="389" on="0"/>
        <pt x="195" y="425" on="0"/>
        <pt x="195" y="455" on="1"/>
        <pt x="194" y="595" on="1"/>
        <pt x="195" y="618" on="0"/>
        <pt x="177" y="640" on="0"/>
        <pt x="162" y="640" on="1"/>
        <pt x="158" y="640" on="0"/>
        <pt x="151" y="638" on="0"/>
        <pt x="148" y="637" on="1"/>
        <pt x="144" y="636" on="0"/>
        <pt x="141" y="635" on="1"/>
        <pt x="136" y="635" on="1"/>
        <pt x="138" y="700" on="1"/>
        <pt x="144" y="702" on="0"/>
        <pt x="154" y="705" on="1"/>
        <pt x="162" y="707" on="0"/>
        <pt x="185" y="710" on="0"/>
        <pt x="200" y="710" on="1"/>
        <pt x="249" y="710" on="0"/>
        <pt x="297" y="655" on="0"/>
        <pt x="297" y="610" on="1"/>
        <pt x="297" y="470" on="1"/>
        <pt x="297" y="436" on="0"/>
        <pt x="337" y="395" on="0"/>
        <pt x="379" y="395" on="1"/>
        <pt x="424" y="395" on="1"/>
        <pt x="478" y="700" on="1"/>
        <pt x="578" y="700" on="1"/>
      </contour>
    </TTGlyph>
    <TTGlyph name="afii10025" xMin="2" yMin="-10" xMax="523" yMax="710">
      <contour>
        <pt x="302" y="640" on="1"/>
        <pt x="272" y="640" on="0"/>
        <pt x="221" y="625" on="0"/>
        <pt x="203" y="617" on="1"/>
        <pt x="181" y="607" on="0"/>
        <pt x="164" y="595" on="1"/>
        <pt x="154" y="595" on="1"/>
        <pt x="130" y="655" on="1"/>
        <pt x="152" y="670" on="0"/>
        <pt x="182" y="682" on="1"/>
        <pt x="208" y="693" on="0"/>
        <pt x="280" y="710" on="0"/>
        <pt x="325" y="710" on="1"/>
        <pt x="381" y="710" on="0"/>
        <pt x="462" y="682" on="0"/>
        <pt x="512" y="633" on="0"/>
        <pt x="530" y="567" on="0"/>
        <pt x="523" y="530" on="1"/>
        <pt x="514" y="481" on="0"/>
        <pt x="464" y="419" on="0"/>
        <pt x="438" y="401" on="1"/>
        <pt x="407" y="380" on="0"/>
        <pt x="370" y="370" on="1"/>
        <pt x="408" y="360" on="0"/>
        <pt x="434" y="337" on="1"/>
        <pt x="445" y="327" on="0"/>
        <pt x="465" y="300" on="0"/>
        <pt x="479" y="263" on="0"/>
        <pt x="482" y="215" on="0"/>
        <pt x="477" y="185" on="1"/>
        <pt x="469" y="142" on="0"/>
        <pt x="427" y="70" on="0"/>
        <pt x="355" y="19" on="0"/>
        <pt x="254" y="-10" on="0"/>
        <pt x="188" y="-10" on="1"/>
        <pt x="139" y="-10" on="0"/>
        <pt x="69" y="6" on="0"/>
        <pt x="46" y="17" on="1"/>
        <pt x="20" y="29" on="0"/>
        <pt x="2" y="45" on="1"/>
        <pt x="48" y="105" on="1"/>
        <pt x="58" y="105" on="1"/>
        <pt x="71" y="92" on="0"/>
        <pt x="90" y="82" on="1"/>
        <pt x="107" y="74" on="0"/>
        <pt x="156" y="60" on="0"/>
        <pt x="190" y="60" on="1"/>
        <pt x="277" y="60" on="0"/>
        <pt x="368" y="131" on="0"/>
        <pt x="379" y="195" on="1"/>
        <pt x="390" y="259" on="0"/>
        <pt x="330" y="330" on="0"/>
        <pt x="258" y="330" on="1"/>
        <pt x="168" y="330" on="1"/>
        <pt x="180" y="400" on="1"/>
        <pt x="270" y="400" on="1"/>
        <pt x="330" y="400" on="0"/>
        <pt x="412" y="467" on="0"/>
        <pt x="421" y="520" on="1"/>
        <pt x="431" y="573" on="0"/>
        <pt x="370" y="640" on="0"/>
      </contour>
    </TTGlyph>
    <TTGlyph name="afii10026" xMin="65" yMin="0" xMax="638" yMax="700">
      <contour>
        <pt x="165" y="0" on="1"/>
        <pt x="65" y="0" on="1"/>
        <pt x="188" y="700" on="1"/>
        <pt x="288" y="700" on="1"/>
        <pt x="209" y="255" on="1"/>
        <pt x="207" y="244" on="0"/>
        <pt x="201" y="214" on="0"/>
        <pt x="198" y="201" on="1"/>
        <pt x="194" y="185" on="0"/>
        <pt x="190" y="170" on="1"/>
        <pt x="194" y="170" on="1"/>
        <pt x="201" y="185" on="0"/>
        <pt x="209" y="201" on="1"/>
        <pt x="216" y="214" on="0"/>
        <pt x="231" y="244" on="0"/>
        <pt x="239" y="255" on="1"/>
        <pt x="538" y="700" on="1"/>
        <pt x="638" y="700" on="1"/>
        <pt x="515" y="0" on="1"/>
        <pt x="415" y="0" on="1"/>
        <pt x="493" y="445" on="1"/>
        <pt x="495" y="456" on="0"/>
        <pt x="501" y="485" on="0"/>
        <pt x="504" y="499" on="1"/>
        <pt x="508" y="514" on="0"/>
        <pt x="512" y="530" on="1"/>
        <pt x="508" y="530" on="1"/>
        <pt x="501" y="514" on="0"/>
        <pt x="493" y="499" on="1"/>
        <pt x="486" y="485" on="0"/>
        <pt x="471" y="456" on="0"/>
        <pt x="463" y="445" on="1"/>
      </contour>
    </TTGlyph>
    <TTGlyph name="afii10027" xMin="65" yMin="0" xMax="638" yMax="880">
      <contour>
        <pt x="165" y="0" on="1"/>
        <pt x="65" y="0" on="1"/>
        <pt x="188" y="700" on="1"/>
        <pt x="288" y="700" on="1"/>
        <pt x="209" y="255" on="1"/>
        <pt x="207" y="244" on="0"/>
        <pt x="201" y="214" on="0"/>
        <pt x="198" y="201" on="1"/>
        <pt x="194" y="185" on="0"/>
        <pt x="190" y="170" on="1"/>
        <pt x="194" y="170" on="1"/>
        <pt x="201" y="185" on="0"/>
        <pt x="209" y="201" on="1"/>
        <pt x="216" y="214" on="0"/>
        <pt x="231" y="244" on="0"/>
        <pt x="239" y="255" on="1"/>
        <pt x="538" y="700" on="1"/>
        <pt x="638" y="700" on="1"/>
        <pt x="515" y="0" on="1"/>
        <pt x="415" y="0" on="1"/>
        <pt x="493" y="445" on="1"/>
        <pt x="495" y="456" on="0"/>
        <pt x="501" y="485" on="0"/>
        <pt x="504" y="499" on="1"/>
        <pt x="508" y="514" on="0"/>
        <pt x="512" y="530" on="1"/>
        <pt x="508" y="530" on="1"/>
        <pt x="501" y="514" on="0"/>
        <pt x="493" y="499" on="1"/>
        <pt x="486" y="485" on="0"/>
        <pt x="471" y="456" on="0"/>
        <pt x="463" y="445" on="1"/>
      </contour>
      <contour>
        <pt x="432" y="810" on="1"/>
        <pt x="462" y="810" on="0"/>
        <pt x="498" y="842" on="0"/>
        <pt x="505" y="880" on="1"/>
        <pt x="595" y="880" on="1"/>
        <pt x="584" y="820" on="0"/>
        <pt x="497" y="750" on="0"/>
        <pt x="422" y="750" on="1"/>
        <pt x="347" y="750" on="0"/>
        <pt x="284" y="820" on="0"/>
        <pt x="295" y="880" on="1"/>
        <pt x="385" y="880" on="1"/>
        <pt x="378" y="842" on="0"/>
        <pt x="402" y="810" on="0"/>
      </contour>
    </TTGlyph>
    <TTGlyph name="afii10028" xMin="65" yMin="-10" xMax="643" yMax="710">
      <contour>
        <pt x="384" y="365" on="1"/>
        <pt x="408" y="359" on="0"/>
        <pt x="426" y="347" on="1"/>
        <pt x="442" y="336" on="0"/>
        <pt x="469" y="297" on="0"/>
        <pt x="471" y="265" on="1"/>
        <pt x="478" y="105" on="1"/>
        <pt x="481" y="60" on="0"/>
        <pt x="510" y="60" on="1"/>
        <pt x="516" y="60" on="0"/>
        <pt x="524" y="62" on="1"/>
        <pt x="528" y="63" on="0"/>
        <pt x="531" y="65" on="1"/>
        <pt x="536" y="65" on="1"/>
        <pt x="535" y="0" on="1"/>
        <pt x="528" y="-3" on="0"/>
        <pt x="519" y="-5" on="1"/>
        <pt x="501" y="-10" on="0"/>
        <pt x="473" y="-10" on="1"/>
        <pt x="424" y="-10" on="0"/>
        <pt x="377" y="45" on="0"/>
        <pt x="375" y="90" on="1"/>
        <pt x="369" y="250" on="1"/>
        <pt x="367" y="284" on="0"/>
        <pt x="330" y="325" on="0"/>
        <pt x="292" y="325" on="1"/>
        <pt x="222" y="325" on="1"/>
        <pt x="165" y="0" on="1"/>
        <pt x="65" y="0" on="1"/>
        <pt x="188" y="700" on="1"/>
        <pt x="288" y="700" on="1"/>
        <pt x="234" y="395" on="1"/>
        <pt x="294" y="395" on="1"/>
        <pt x="336" y="395" on="0"/>
        <pt x="390" y="436" on="0"/>
        <pt x="402" y="470" on="1"/>
        <pt x="452" y="610" on="1"/>
        <pt x="469" y="655" on="0"/>
        <pt x="536" y="710" on="0"/>
        <pt x="585" y="710" on="1"/>
        <pt x="600" y="710" on="0"/>
        <pt x="621" y="707" on="0"/>
        <pt x="629" y="705" on="1"/>
        <pt x="637" y="702" on="0"/>
        <pt x="643" y="700" on="1"/>
        <pt x="621" y="635" on="1"/>
        <pt x="616" y="635" on="1"/>
        <pt x="610" y="637" on="1"/>
        <pt x="607" y="638" on="0"/>
        <pt x="601" y="640" on="0"/>
        <pt x="597" y="640" on="1"/>
        <pt x="565" y="640" on="0"/>
        <pt x="549" y="595" on="1"/>
        <pt x="500" y="455" on="1"/>
        <pt x="489" y="425" on="0"/>
        <pt x="450" y="389" on="0"/>
        <pt x="431" y="380" on="1"/>
        <pt x="408" y="369" on="0"/>
      </contour>
    </TTGlyph>
    <TTGlyph name="afii10029" xMin="-15" yMin="-10" xMax="618" yMax="700">
      <contour>
        <pt x="30" y="60" on="1"/>
        <pt x="49" y="60" on="0"/>
        <pt x="89" y="103" on="0"/>
        <pt x="103" y="160" on="1"/>
        <pt x="228" y="700" on="1"/>
        <pt x="618" y="700" on="1"/>
        <pt x="495" y="0" on="1"/>
        <pt x="395" y="0" on="1"/>
        <pt x="506" y="630" on="1"/>
        <pt x="311" y="630" on="1"/>
        <pt x="203" y="160" on="1"/>
        <pt x="183" y="73" on="0"/>
        <pt x="95" y="-10" on="0"/>
        <pt x="38" y="-10" on="1"/>
        <pt x="15" y="-10" on="0"/>
        <pt x="0" y="-5" on="1"/>
        <pt x="-9" y="-3" on="0"/>
        <pt x="-15" y="0" on="1"/>
        <pt x="1" y="65" on="1"/>
        <pt x="11" y="65" on="1"/>
        <pt x="13" y="63" on="0"/>
        <pt x="17" y="62" on="1"/>
        <pt x="23" y="60" on="0"/>
      </contour>
    </TTGlyph>
    <TTGlyph name="afii10030" xMin="65" yMin="0" xMax="848" yMax="700">
      <contour>
        <pt x="423" y="275" on="1"/>
        <pt x="428" y="261" on="0"/>
        <pt x="430" y="244" on="1"/>
        <pt x="431" y="234" on="0"/>
        <pt x="432" y="225" on="1"/>
        <pt x="436" y="225" on="1"/>
        <pt x="441" y="234" on="0"/>
        <pt x="445" y="244" on="1"/>
        <pt x="449" y="252" on="0"/>
        <pt x="458" y="269" on="0"/>
        <pt x="463" y="275" on="1"/>
        <pt x="748" y="700" on="1"/>
        <pt x="848" y="700" on="1"/>
        <pt x="725" y="0" on="1"/>
        <pt x="625" y="0" on="1"/>
        <pt x="699" y="420" on="1"/>
        <pt x="701" y="431" on="0"/>
        <pt x="707" y="460" on="0"/>
        <pt x="710" y="474" on="1"/>
        <pt x="714" y="489" on="0"/>
        <pt x="718" y="505" on="1"/>
        <pt x="714" y="505" on="1"/>
        <pt x="707" y="489" on="0"/>
        <pt x="699" y="474" on="1"/>
        <pt x="692" y="460" on="0"/>
        <pt x="677" y="431" on="0"/>
        <pt x="669" y="420" on="1"/>
        <pt x="467" y="125" on="1"/>
        <pt x="367" y="125" on="1"/>
        <pt x="269" y="420" on="1"/>
        <pt x="265" y="431" on="0"/>
        <pt x="260" y="460" on="0"/>
        <pt x="258" y="474" on="1"/>
        <pt x="255" y="489" on="0"/>
        <pt x="254" y="505" on="1"/>
        <pt x="250" y="505" on="1"/>
        <pt x="248" y="489" on="0"/>
        <pt x="246" y="474" on="1"/>
        <pt x="244" y="460" on="0"/>
        <pt x="241" y="431" on="0"/>
        <pt x="239" y="420" on="1"/>
        <pt x="165" y="0" on="1"/>
        <pt x="65" y="0" on="1"/>
        <pt x="188" y="700" on="1"/>
        <pt x="288" y="700" on="1"/>
      </contour>
    </TTGlyph>
    <TTGlyph name="afii10031" xMin="65" yMin="0" xMax="638" yMax="700">
      <contour>
        <pt x="638" y="700" on="1"/>
        <pt x="515" y="0" on="1"/>
        <pt x="415" y="0" on="1"/>
        <pt x="471" y="320" on="1"/>
        <pt x="221" y="320" on="1"/>
        <pt x="165" y="0" on="1"/>
        <pt x="65" y="0" on="1"/>
        <pt x="188" y="700" on="1"/>
        <pt x="288" y="700" on="1"/>
        <pt x="233" y="390" on="1"/>
        <pt x="483" y="390" on="1"/>
        <pt x="538" y="700" on="1"/>
      </contour>
    </TTGlyph>
    <TTGlyph name="afii10032" xMin="80" yMin="-10" xMax="593" yMax="710">
      <contour>
        <pt x="191" y="350" on="1"/>
        <pt x="176" y="267" on="0"/>
        <pt x="181" y="156" on="0"/>
        <pt x="209" y="89" on="0"/>
        <pt x="257" y="60" on="0"/>
        <pt x="285" y="60" on="1"/>
        <pt x="313" y="60" on="0"/>
        <pt x="370" y="89" on="0"/>
        <pt x="423" y="156" on="0"/>
        <pt x="466" y="267" on="0"/>
        <pt x="481" y="350" on="1"/>
        <pt x="496" y="432" on="0"/>
        <pt x="491" y="544" on="0"/>
        <pt x="462" y="611" on="0"/>
        <pt x="415" y="640" on="0"/>
        <pt x="387" y="640" on="1"/>
        <pt x="359" y="640" on="0"/>
        <pt x="302" y="611" on="0"/>
        <pt x="249" y="544" on="0"/>
        <pt x="206" y="432" on="0"/>
      </contour>
      <contour>
        <pt x="581" y="350" on="1"/>
        <pt x="564" y="252" on="0"/>
        <pt x="504" y="116" on="0"/>
        <pt x="424" y="29" on="0"/>
        <pt x="327" y="-10" on="0"/>
        <pt x="273" y="-10" on="1"/>
        <pt x="219" y="-10" on="0"/>
        <pt x="135" y="29" on="0"/>
        <pt x="86" y="116" on="0"/>
        <pt x="74" y="252" on="0"/>
        <pt x="91" y="350" on="1"/>
        <pt x="108" y="447" on="0"/>
        <pt x="168" y="584" on="0"/>
        <pt x="248" y="671" on="0"/>
        <pt x="346" y="710" on="0"/>
        <pt x="400" y="710" on="1"/>
        <pt x="454" y="710" on="0"/>
        <pt x="537" y="671" on="0"/>
        <pt x="587" y="584" on="0"/>
        <pt x="598" y="447" on="0"/>
      </contour>
    </TTGlyph>
    <TTGlyph name="afii10033" xMin="65" yMin="0" xMax="638" yMax="700">
      <contour>
        <pt x="638" y="700" on="1"/>
        <pt x="515" y="0" on="1"/>
        <pt x="415" y="0" on="1"/>
        <pt x="526" y="630" on="1"/>
        <pt x="276" y="630" on="1"/>
        <pt x="165" y="0" on="1"/>
        <pt x="65" y="0" on="1"/>
        <pt x="188" y="700" on="1"/>
      </contour>
    </TTGlyph>
    <TTGlyph name="afii10034" xMin="65" yMin="0" xMax="577" yMax="700">
      <contour>
        <pt x="299" y="310" on="1"/>
        <pt x="374" y="310" on="0"/>
        <pt x="463" y="387" on="0"/>
        <pt x="477" y="470" on="1"/>
        <pt x="492" y="553" on="0"/>
        <pt x="431" y="630" on="0"/>
        <pt x="356" y="630" on="1"/>
        <pt x="276" y="630" on="1"/>
        <pt x="219" y="310" on="1"/>
      </contour>
      <contour>
        <pt x="207" y="240" on="1"/>
        <pt x="165" y="0" on="1"/>
        <pt x="65" y="0" on="1"/>
        <pt x="188" y="700" on="1"/>
        <pt x="368" y="700" on="1"/>
        <pt x="496" y="700" on="0"/>
        <pt x="597" y="583" on="0"/>
        <pt x="577" y="470" on="1"/>
        <pt x="557" y="357" on="0"/>
        <pt x="415" y="240" on="0"/>
        <pt x="287" y="240" on="1"/>
      </contour>
    </TTGlyph>
    <TTGlyph name="afii10035" xMin="80" yMin="-10" xMax="570" yMax="710">
      <contour>
        <pt x="91" y="350" on="1"/>
        <pt x="108" y="447" on="0"/>
        <pt x="168" y="584" on="0"/>
        <pt x="249" y="671" on="0"/>
        <pt x="349" y="710" on="0"/>
        <pt x="405" y="710" on="1"/>
        <pt x="447" y="710" on="0"/>
        <pt x="508" y="693" on="0"/>
        <pt x="529" y="682" on="1"/>
        <pt x="553" y="670" on="0"/>
        <pt x="570" y="655" on="1"/>
        <pt x="524" y="595" on="1"/>
        <pt x="514" y="595" on="1"/>
        <pt x="501" y="607" on="0"/>
        <pt x="484" y="617" on="1"/>
        <pt x="470" y="625" on="0"/>
        <pt x="428" y="640" on="0"/>
        <pt x="402" y="640" on="1"/>
        <pt x="368" y="640" on="0"/>
        <pt x="305" y="611" on="0"/>
        <pt x="250" y="544" on="0"/>
        <pt x="206" y="432" on="0"/>
        <pt x="191" y="350" on="1"/>
        <pt x="176" y="267" on="0"/>
        <pt x="182" y="156" on="0"/>
        <pt x="215" y="89" on="0"/>
        <pt x="272" y="60" on="0"/>
        <pt x="310" y="60" on="1"/>
        <pt x="336" y="60" on="0"/>
        <pt x="383" y="74" on="0"/>
        <pt x="400" y="82" on="1"/>
        <pt x="420" y="92" on="0"/>
        <pt x="438" y="105" on="1"/>
        <pt x="448" y="105" on="1"/>
        <pt x="472" y="45" on="1"/>
        <pt x="449" y="29" on="0"/>
        <pt x="421" y="17" on="1"/>
        <pt x="397" y="6" on="0"/>
        <pt x="330" y="-10" on="0"/>
        <pt x="288" y="-10" on="1"/>
        <pt x="228" y="-10" on="0"/>
        <pt x="138" y="29" on="0"/>
        <pt x="86" y="116" on="0"/>
        <pt x="74" y="252" on="0"/>
      </contour>
    </TTGlyph>
    <TTGlyph name="afii10036" xMin="96" yMin="0" xMax="568" yMax="700">
      <contour>
        <pt x="165" y="0" on="1"/>
        <pt x="276" y="630" on="1"/>
        <pt x="96" y="630" on="1"/>
        <pt x="108" y="700" on="1"/>
        <pt x="568" y="700" on="1"/>
        <pt x="556" y="630" on="1"/>
        <pt x="376" y="630" on="1"/>
        <pt x="265" y="0" on="1"/>
      </contour>
    </TTGlyph>
    <TTGlyph name="afii10037" xMin="38" yMin="-15" xMax="624" yMax="700">
      <contour>
        <pt x="295" y="335" on="1"/>
        <pt x="297" y="325" on="0"/>
        <pt x="300" y="300" on="0"/>
        <pt x="301" y="288" on="1"/>
        <pt x="302" y="274" on="0"/>
        <pt x="303" y="260" on="1"/>
        <pt x="307" y="260" on="1"/>
        <pt x="313" y="274" on="0"/>
        <pt x="319" y="288" on="1"/>
        <pt x="324" y="299" on="0"/>
        <pt x="335" y="325" on="0"/>
        <pt x="340" y="335" on="1"/>
        <pt x="524" y="700" on="1"/>
        <pt x="624" y="700" on="1"/>
        <pt x="338" y="125" on="1"/>
        <pt x="324" y="97" on="0"/>
        <pt x="282" y="46" on="0"/>
        <pt x="230" y="8" on="0"/>
        <pt x="170" y="-15" on="0"/>
        <pt x="138" y="-15" on="1"/>
        <pt x="113" y="-15" on="0"/>
        <pt x="77" y="-6" on="0"/>
        <pt x="64" y="0" on="1"/>
        <pt x="49" y="6" on="0"/>
        <pt x="38" y="15" on="1"/>
        <pt x="75" y="80" on="1"/>
        <pt x="85" y="80" on="1"/>
        <pt x="91" y="72" on="0"/>
        <pt x="99" y="67" on="1"/>
        <pt x="106" y="62" on="0"/>
        <pt x="126" y="55" on="0"/>
        <pt x="140" y="55" on="1"/>
        <pt x="170" y="55" on="0"/>
        <pt x="222" y="95" on="0"/>
        <pt x="238" y="125" on="1"/>
        <pt x="268" y="185" on="1"/>
        <pt x="223" y="185" on="1"/>
        <pt x="108" y="700" on="1"/>
        <pt x="213" y="700" on="1"/>
      </contour>
    </TTGlyph>
    <TTGlyph name="afii10038" xMin="81" yMin="-30" xMax="761" yMax="730">
      <contour>
        <pt x="429" y="110" on="1"/>
        <pt x="517" y="117" on="0"/>
        <pt x="641" y="234" on="0"/>
        <pt x="661" y="350" on="1"/>
        <pt x="682" y="466" on="0"/>
        <pt x="599" y="582" on="0"/>
        <pt x="514" y="590" on="1"/>
      </contour>
      <contour>
        <pt x="438" y="730" on="1"/>
        <pt x="538" y="730" on="1"/>
        <pt x="526" y="660" on="1"/>
        <pt x="664" y="652" on="0"/>
        <pt x="787" y="497" on="0"/>
        <pt x="761" y="350" on="1"/>
        <pt x="735" y="203" on="0"/>
        <pt x="557" y="48" on="0"/>
        <pt x="417" y="40" on="1"/>
        <pt x="404" y="-30" on="1"/>
        <pt x="304" y="-30" on="1"/>
        <pt x="317" y="40" on="1"/>
        <pt x="178" y="48" on="0"/>
        <pt x="55" y="203" on="0"/>
        <pt x="81" y="350" on="1"/>
        <pt x="107" y="497" on="0"/>
        <pt x="285" y="652" on="0"/>
        <pt x="426" y="660" on="1"/>
      </contour>
      <contour>
        <pt x="414" y="590" on="1"/>
        <pt x="326" y="582" on="0"/>
        <pt x="202" y="467" on="0"/>
        <pt x="181" y="350" on="1"/>
        <pt x="161" y="233" on="0"/>
        <pt x="244" y="118" on="0"/>
        <pt x="329" y="110" on="1"/>
      </contour>
    </TTGlyph>
    <TTGlyph name="afii10039" xMin="-10" yMin="0" xMax="608" yMax="700">
      <contour>
        <pt x="303" y="475" on="1"/>
        <pt x="305" y="468" on="0"/>
        <pt x="308" y="453" on="0"/>
        <pt x="310" y="446" on="1"/>
        <pt x="312" y="438" on="0"/>
        <pt x="313" y="430" on="1"/>
        <pt x="317" y="430" on="1"/>
        <pt x="321" y="438" on="0"/>
        <pt x="325" y="446" on="1"/>
        <pt x="329" y="453" on="0"/>
        <pt x="338" y="468" on="0"/>
        <pt x="343" y="475" on="1"/>
        <pt x="498" y="700" on="1"/>
        <pt x="608" y="700" on="1"/>
        <pt x="367" y="355" on="1"/>
        <pt x="490" y="0" on="1"/>
        <pt x="380" y="0" on="1"/>
        <pt x="301" y="235" on="1"/>
        <pt x="299" y="241" on="0"/>
        <pt x="296" y="257" on="0"/>
        <pt x="294" y="264" on="1"/>
        <pt x="292" y="272" on="0"/>
        <pt x="291" y="280" on="1"/>
        <pt x="287" y="280" on="1"/>
        <pt x="282" y="272" on="0"/>
        <pt x="278" y="264" on="1"/>
        <pt x="274" y="257" on="0"/>
        <pt x="266" y="241" on="0"/>
        <pt x="261" y="235" on="1"/>
        <pt x="100" y="0" on="1"/>
        <pt x="-10" y="0" on="1"/>
        <pt x="237" y="355" on="1"/>
        <pt x="118" y="700" on="1"/>
        <pt x="228" y="700" on="1"/>
      </contour>
    </TTGlyph>
    <TTGlyph name="afii10040" xMin="65" yMin="-150" xMax="628" yMax="700">
      <contour>
        <pt x="65" y="0" on="1"/>
        <pt x="188" y="700" on="1"/>
        <pt x="288" y="700" on="1"/>
        <pt x="177" y="70" on="1"/>
        <pt x="417" y="70" on="1"/>
        <pt x="528" y="700" on="1"/>
        <pt x="628" y="700" on="1"/>
        <pt x="517" y="70" on="1"/>
        <pt x="582" y="70" on="1"/>
        <pt x="543" y="-150" on="1"/>
        <pt x="463" y="-150" on="1"/>
        <pt x="475" y="0" on="1"/>
      </contour>
    </TTGlyph>
    <TTGlyph name="afii10041" xMin="115" yMin="0" xMax="608" yMax="700">
      <contour>
        <pt x="508" y="700" on="1"/>
        <pt x="608" y="700" on="1"/>
        <pt x="485" y="0" on="1"/>
        <pt x="385" y="0" on="1"/>
        <pt x="433" y="275" on="1"/>
        <pt x="414" y="271" on="0"/>
        <pt x="391" y="267" on="1"/>
        <pt x="371" y="264" on="0"/>
        <pt x="320" y="260" on="0"/>
        <pt x="290" y="260" on="1"/>
        <pt x="241" y="260" on="0"/>
        <pt x="168" y="289" on="0"/>
        <pt x="123" y="340" on="0"/>
        <pt x="107" y="412" on="0"/>
        <pt x="115" y="455" on="1"/>
        <pt x="158" y="700" on="1"/>
        <pt x="258" y="700" on="1"/>
        <pt x="215" y="455" on="1"/>
        <pt x="205" y="398" on="0"/>
        <pt x="264" y="330" on="0"/>
        <pt x="328" y="330" on="1"/>
        <pt x="352" y="330" on="0"/>
        <pt x="395" y="334" on="0"/>
        <pt x="411" y="337" on="1"/>
        <pt x="429" y="341" on="0"/>
        <pt x="445" y="345" on="1"/>
      </contour>
    </TTGlyph>
    <TTGlyph name="afii10042" xMin="65" yMin="0" xMax="928" yMax="700">
      <contour>
        <pt x="805" y="0" on="1"/>
        <pt x="65" y="0" on="1"/>
        <pt x="188" y="700" on="1"/>
        <pt x="288" y="700" on="1"/>
        <pt x="177" y="70" on="1"/>
        <pt x="397" y="70" on="1"/>
        <pt x="508" y="700" on="1"/>
        <pt x="608" y="700" on="1"/>
        <pt x="497" y="70" on="1"/>
        <pt x="717" y="70" on="1"/>
        <pt x="828" y="700" on="1"/>
        <pt x="928" y="700" on="1"/>
      </contour>
    </TTGlyph>
    <TTGlyph name="afii10043" xMin="65" yMin="-150" xMax="928" yMax="700">
      <contour>
        <pt x="65" y="0" on="1"/>
        <pt x="188" y="700" on="1"/>
        <pt x="288" y="700" on="1"/>
        <pt x="177" y="70" on="1"/>
        <pt x="397" y="70" on="1"/>
        <pt x="508" y="700" on="1"/>
        <pt x="608" y="700" on="1"/>
        <pt x="497" y="70" on="1"/>
        <pt x="717" y="70" on="1"/>
        <pt x="828" y="700" on="1"/>
        <pt x="928" y="700" on="1"/>
        <pt x="817" y="70" on="1"/>
        <pt x="882" y="70" on="1"/>
        <pt x="843" y="-150" on="1"/>
        <pt x="763" y="-150" on="1"/>
        <pt x="775" y="0" on="1"/>
      </contour>
    </TTGlyph>
    <TTGlyph name="afii10044" xMin="96" yMin="0" xMax="598" yMax="700">
      <contour>
        <pt x="108" y="700" on="1"/>
        <pt x="348" y="700" on="1"/>
        <pt x="302" y="440" on="1"/>
        <pt x="392" y="440" on="1"/>
        <pt x="516" y="440" on="0"/>
        <pt x="617" y="325" on="0"/>
        <pt x="598" y="220" on="1"/>
        <pt x="580" y="114" on="0"/>
        <pt x="440" y="0" on="0"/>
        <pt x="315" y="0" on="1"/>
        <pt x="125" y="0" on="1"/>
        <pt x="236" y="630" on="1"/>
        <pt x="96" y="630" on="1"/>
      </contour>
      <contour>
        <pt x="290" y="370" on="1"/>
        <pt x="237" y="70" on="1"/>
        <pt x="327" y="70" on="1"/>
        <pt x="472" y="70" on="0"/>
        <pt x="498" y="220" on="1"/>
        <pt x="525" y="370" on="0"/>
        <pt x="380" y="370" on="1"/>
      </contour>
    </TTGlyph>
    <TTGlyph name="afii10045" xMin="65" yMin="0" xMax="808" yMax="700">
      <contour>
        <pt x="708" y="700" on="1"/>
        <pt x="808" y="700" on="1"/>
        <pt x="685" y="0" on="1"/>
        <pt x="585" y="0" on="1"/>
      </contour>
      <contour>
        <pt x="322" y="440" on="1"/>
        <pt x="446" y="440" on="0"/>
        <pt x="547" y="325" on="0"/>
        <pt x="528" y="220" on="1"/>
        <pt x="510" y="114" on="0"/>
        <pt x="370" y="0" on="0"/>
        <pt x="245" y="0" on="1"/>
        <pt x="65" y="0" on="1"/>
        <pt x="188" y="700" on="1"/>
        <pt x="288" y="700" on="1"/>
        <pt x="242" y="440" on="1"/>
      </contour>
      <contour>
        <pt x="230" y="370" on="1"/>
        <pt x="177" y="70" on="1"/>
        <pt x="257" y="70" on="1"/>
        <pt x="402" y="70" on="0"/>
        <pt x="428" y="220" on="1"/>
        <pt x="455" y="370" on="0"/>
        <pt x="310" y="370" on="1"/>
      </contour>
    </TTGlyph>
    <TTGlyph name="afii10046" xMin="65" yMin="0" xMax="538" yMax="700">
      <contour>
        <pt x="332" y="440" on="1"/>
        <pt x="456" y="440" on="0"/>
        <pt x="557" y="325" on="0"/>
        <pt x="538" y="220" on="1"/>
        <pt x="520" y="114" on="0"/>
        <pt x="380" y="0" on="0"/>
        <pt x="255" y="0" on="1"/>
        <pt x="65" y="0" on="1"/>
        <pt x="188" y="700" on="1"/>
        <pt x="288" y="700" on="1"/>
        <pt x="242" y="440" on="1"/>
      </contour>
      <contour>
        <pt x="230" y="370" on="1"/>
        <pt x="177" y="70" on="1"/>
        <pt x="267" y="70" on="1"/>
        <pt x="412" y="70" on="0"/>
        <pt x="438" y="220" on="1"/>
        <pt x="465" y="370" on="0"/>
        <pt x="320" y="370" on="1"/>
      </contour>
    </TTGlyph>
    <TTGlyph name="afii10047" xMin="7" yMin="-10" xMax="508" yMax="710">
      <contour>
        <pt x="496" y="350" on="1"/>
        <pt x="479" y="252" on="0"/>
        <pt x="418" y="116" on="0"/>
        <pt x="336" y="29" on="0"/>
        <pt x="233" y="-10" on="0"/>
        <pt x="173" y="-10" on="1"/>
        <pt x="131" y="-10" on="0"/>
        <pt x="70" y="6" on="0"/>
        <pt x="49" y="17" on="1"/>
        <pt x="24" y="29" on="0"/>
        <pt x="7" y="45" on="1"/>
        <pt x="53" y="105" on="1"/>
        <pt x="63" y="105" on="1"/>
        <pt x="76" y="92" on="0"/>
        <pt x="93" y="82" on="1"/>
        <pt x="107" y="74" on="0"/>
        <pt x="149" y="60" on="0"/>
        <pt x="175" y="60" on="1"/>
        <pt x="211" y="60" on="0"/>
        <pt x="276" y="86" on="0"/>
        <pt x="332" y="147" on="0"/>
        <pt x="376" y="247" on="0"/>
        <pt x="391" y="320" on="1"/>
        <pt x="156" y="320" on="1"/>
        <pt x="168" y="390" on="1"/>
        <pt x="402" y="390" on="1"/>
        <pt x="411" y="461" on="0"/>
        <pt x="402" y="557" on="0"/>
        <pt x="370" y="615" on="0"/>
        <pt x="319" y="640" on="0"/>
        <pt x="287" y="640" on="1"/>
        <pt x="261" y="640" on="0"/>
        <pt x="214" y="625" on="0"/>
        <pt x="197" y="617" on="1"/>
        <pt x="177" y="607" on="0"/>
        <pt x="159" y="595" on="1"/>
        <pt x="149" y="595" on="1"/>
        <pt x="125" y="655" on="1"/>
        <pt x="147" y="670" on="0"/>
        <pt x="176" y="682" on="1"/>
        <pt x="200" y="693" on="0"/>
        <pt x="268" y="710" on="0"/>
        <pt x="310" y="710" on="1"/>
        <pt x="366" y="710" on="0"/>
        <pt x="451" y="671" on="0"/>
        <pt x="502" y="584" on="0"/>
        <pt x="513" y="447" on="0"/>
      </contour>
    </TTGlyph>
    <TTGlyph name="afii10048" xMin="65" yMin="-10" xMax="803" yMax="710">
      <contour>
        <pt x="620" y="710" on="1"/>
        <pt x="671" y="710" on="0"/>
        <pt x="750" y="671" on="0"/>
        <pt x="797" y="584" on="0"/>
        <pt x="808" y="447" on="0"/>
        <pt x="791" y="350" on="1"/>
        <pt x="774" y="252" on="0"/>
        <pt x="714" y="116" on="0"/>
        <pt x="636" y="29" on="0"/>
        <pt x="544" y="-10" on="0"/>
        <pt x="493" y="-10" on="1"/>
        <pt x="444" y="-10" on="0"/>
        <pt x="368" y="26" on="0"/>
        <pt x="320" y="104" on="0"/>
        <pt x="304" y="230" on="0"/>
        <pt x="316" y="320" on="1"/>
        <pt x="221" y="320" on="1"/>
        <pt x="165" y="0" on="1"/>
        <pt x="65" y="0" on="1"/>
        <pt x="188" y="700" on="1"/>
        <pt x="288" y="700" on="1"/>
        <pt x="233" y="390" on="1"/>
        <pt x="328" y="390" on="1"/>
        <pt x="347" y="476" on="0"/>
        <pt x="407" y="598" on="0"/>
        <pt x="482" y="675" on="0"/>
        <pt x="571" y="710" on="0"/>
      </contour>
      <contour>
        <pt x="505" y="60" on="1"/>
        <pt x="529" y="60" on="0"/>
        <pt x="583" y="89" on="0"/>
        <pt x="633" y="156" on="0"/>
        <pt x="676" y="267" on="0"/>
        <pt x="691" y="350" on="1"/>
        <pt x="706" y="432" on="0"/>
        <pt x="701" y="544" on="0"/>
        <pt x="675" y="611" on="0"/>
        <pt x="631" y="640" on="0"/>
        <pt x="607" y="640" on="1"/>
        <pt x="583" y="640" on="0"/>
        <pt x="529" y="611" on="0"/>
        <pt x="479" y="544" on="0"/>
        <pt x="436" y="432" on="0"/>
        <pt x="421" y="350" on="1"/>
        <pt x="406" y="267" on="0"/>
        <pt x="411" y="156" on="0"/>
        <pt x="437" y="89" on="0"/>
        <pt x="481" y="60" on="0"/>
      </contour>
    </TTGlyph>
    <TTGlyph name="afii10049" xMin="-5" yMin="-10" xMax="578" yMax="700">
      <contour>
        <pt x="337" y="270" on="1"/>
        <pt x="303" y="270" on="0"/>
        <pt x="250" y="229" on="0"/>
        <pt x="234" y="195" on="1"/>
        <pt x="185" y="90" on="1"/>
        <pt x="162" y="41" on="0"/>
        <pt x="98" y="-10" on="0"/>
        <pt x="53" y="-10" on="1"/>
        <pt x="24" y="-10" on="0"/>
        <pt x="9" y="-5" on="1"/>
        <pt x="0" y="-3" on="0"/>
        <pt x="-5" y="0" on="1"/>
        <pt x="16" y="65" on="1"/>
        <pt x="21" y="65" on="1"/>
        <pt x="23" y="63" on="0"/>
        <pt x="27" y="62" on="1"/>
        <pt x="33" y="60" on="0"/>
        <pt x="40" y="60" on="1"/>
        <pt x="51" y="60" on="0"/>
        <pt x="78" y="82" on="0"/>
        <pt x="88" y="105" on="1"/>
        <pt x="137" y="210" on="1"/>
        <pt x="149" y="236" on="0"/>
        <pt x="181" y="269" on="0"/>
        <pt x="196" y="279" on="1"/>
        <pt x="214" y="290" on="0"/>
        <pt x="232" y="295" on="1"/>
        <pt x="204" y="299" on="0"/>
        <pt x="156" y="330" on="0"/>
        <pt x="122" y="379" on="0"/>
        <pt x="108" y="446" on="0"/>
        <pt x="115" y="485" on="1"/>
        <pt x="133" y="587" on="0"/>
        <pt x="275" y="700" on="0"/>
        <pt x="403" y="700" on="1"/>
        <pt x="578" y="700" on="1"/>
        <pt x="455" y="0" on="1"/>
        <pt x="355" y="0" on="1"/>
        <pt x="402" y="270" on="1"/>
      </contour>
      <contour>
        <pt x="414" y="340" on="1"/>
        <pt x="466" y="630" on="1"/>
        <pt x="391" y="630" on="1"/>
        <pt x="241" y="630" on="0"/>
        <pt x="215" y="485" on="1"/>
        <pt x="189" y="340" on="0"/>
        <pt x="339" y="340" on="1"/>
      </contour>
    </TTGlyph>
    <TTGlyph name="afii10050" xMin="65" yMin="0" xMax="596" yMax="800">
      <contour>
        <pt x="596" y="800" on="1"/>
        <pt x="566" y="630" on="1"/>
        <pt x="276" y="630" on="1"/>
        <pt x="165" y="0" on="1"/>
        <pt x="65" y="0" on="1"/>
        <pt x="188" y="700" on="1"/>
        <pt x="488" y="700" on="1"/>
        <pt x="516" y="800" on="1"/>
      </contour>
    </TTGlyph>
    <TTGlyph name="afii10051" xMin="86" yMin="-30" xMax="609" yMax="700">
      <contour>
        <pt x="587" y="130" on="1"/>
        <pt x="581" y="94" on="0"/>
        <pt x="548" y="35" on="0"/>
        <pt x="499" y="-7" on="0"/>
        <pt x="438" y="-30" on="0"/>
        <pt x="404" y="-30" on="1"/>
        <pt x="387" y="-30" on="0"/>
        <pt x="357" y="-26" on="0"/>
        <pt x="346" y="-23" on="1"/>
        <pt x="333" y="-19" on="0"/>
        <pt x="322" y="-15" on="1"/>
        <pt x="343" y="50" on="1"/>
        <pt x="353" y="50" on="1"/>
        <pt x="359" y="47" on="0"/>
        <pt x="367" y="45" on="1"/>
        <pt x="380" y="40" on="0"/>
        <pt x="397" y="40" on="1"/>
        <pt x="431" y="40" on="0"/>
        <pt x="479" y="85" on="0"/>
        <pt x="487" y="130" on="1"/>
        <pt x="509" y="255" on="1"/>
        <pt x="520" y="312" on="0"/>
        <pt x="461" y="380" on="0"/>
        <pt x="397" y="380" on="1"/>
        <pt x="372" y="380" on="0"/>
        <pt x="330" y="375" on="0"/>
        <pt x="314" y="372" on="1"/>
        <pt x="296" y="368" on="0"/>
        <pt x="279" y="365" on="1"/>
        <pt x="215" y="0" on="1"/>
        <pt x="115" y="0" on="1"/>
        <pt x="226" y="630" on="1"/>
        <pt x="86" y="630" on="1"/>
        <pt x="98" y="700" on="1"/>
        <pt x="518" y="700" on="1"/>
        <pt x="506" y="630" on="1"/>
        <pt x="326" y="630" on="1"/>
        <pt x="291" y="435" on="1"/>
        <pt x="309" y="438" on="0"/>
        <pt x="332" y="442" on="1"/>
        <pt x="352" y="445" on="0"/>
        <pt x="404" y="450" on="0"/>
        <pt x="434" y="450" on="1"/>
        <pt x="483" y="450" on="0"/>
        <pt x="556" y="421" on="0"/>
        <pt x="601" y="370" on="0"/>
        <pt x="617" y="298" on="0"/>
        <pt x="609" y="255" on="1"/>
      </contour>
    </TTGlyph>
    <TTGlyph name="afii10052" xMin="65" yMin="0" xMax="578" yMax="900">
      <contour>
        <pt x="65" y="0" on="1"/>
        <pt x="188" y="700" on="1"/>
        <pt x="578" y="700" on="1"/>
        <pt x="566" y="630" on="1"/>
        <pt x="276" y="630" on="1"/>
        <pt x="165" y="0" on="1"/>
      </contour>
      <contour>
        <pt x="538" y="900" on="1"/>
        <pt x="422" y="750" on="1"/>
        <pt x="357" y="750" on="1"/>
        <pt x="428" y="900" on="1"/>
      </contour>
    </TTGlyph>
    <TTGlyph name="afii10053" xMin="80" yMin="-10" xMax="570" yMax="710">
      <contour>
        <pt x="91" y="350" on="1"/>
        <pt x="108" y="447" on="0"/>
        <pt x="168" y="584" on="0"/>
        <pt x="249" y="671" on="0"/>
        <pt x="349" y="710" on="0"/>
        <pt x="405" y="710" on="1"/>
        <pt x="447" y="710" on="0"/>
        <pt x="508" y="693" on="0"/>
        <pt x="529" y="682" on="1"/>
        <pt x="553" y="670" on="0"/>
        <pt x="570" y="655" on="1"/>
        <pt x="524" y="595" on="1"/>
        <pt x="514" y="595" on="1"/>
        <pt x="501" y="607" on="0"/>
        <pt x="484" y="617" on="1"/>
        <pt x="470" y="625" on="0"/>
        <pt x="428" y="640" on="0"/>
        <pt x="402" y="640" on="1"/>
        <pt x="370" y="640" on="0"/>
        <pt x="311" y="615" on="0"/>
        <pt x="259" y="557" on="0"/>
        <pt x="215" y="461" on="0"/>
        <pt x="199" y="390" on="1"/>
        <pt x="433" y="390" on="1"/>
        <pt x="421" y="320" on="1"/>
        <pt x="186" y="320" on="1"/>
        <pt x="175" y="247" on="0"/>
        <pt x="184" y="147" on="0"/>
        <pt x="219" y="86" on="0"/>
        <pt x="274" y="60" on="0"/>
        <pt x="310" y="60" on="1"/>
        <pt x="336" y="60" on="0"/>
        <pt x="383" y="74" on="0"/>
        <pt x="400" y="82" on="1"/>
        <pt x="420" y="92" on="0"/>
        <pt x="438" y="105" on="1"/>
        <pt x="448" y="105" on="1"/>
        <pt x="472" y="45" on="1"/>
        <pt x="449" y="29" on="0"/>
        <pt x="421" y="17" on="1"/>
        <pt x="397" y="6" on="0"/>
        <pt x="330" y="-10" on="0"/>
        <pt x="288" y="-10" on="1"/>
        <pt x="228" y="-10" on="0"/>
        <pt x="138" y="29" on="0"/>
        <pt x="86" y="116" on="0"/>
        <pt x="74" y="252" on="0"/>
      </contour>
    </TTGlyph>
    <TTGlyph name="afii10054" xMin="17" yMin="-10" xMax="540" yMax="710">
      <contour>
        <pt x="355" y="710" on="1"/>
        <pt x="404" y="710" on="0"/>
        <pt x="473" y="693" on="0"/>
        <pt x="496" y="682" on="1"/>
        <pt x="522" y="670" on="0"/>
        <pt x="540" y="655" on="1"/>
        <pt x="494" y="595" on="1"/>
        <pt x="484" y="595" on="1"/>
        <pt x="471" y="607" on="0"/>
        <pt x="452" y="617" on="1"/>
        <pt x="435" y="625" on="0"/>
        <pt x="386" y="640" on="0"/>
        <pt x="352" y="640" on="1"/>
        <pt x="326" y="640" on="0"/>
        <pt x="279" y="622" on="0"/>
        <pt x="242" y="592" on="0"/>
        <pt x="217" y="552" on="0"/>
        <pt x="213" y="530" on="1"/>
        <pt x="206" y="490" on="0"/>
        <pt x="245" y="439" on="0"/>
        <pt x="311" y="400" on="0"/>
        <pt x="389" y="365" on="0"/>
        <pt x="452" y="316" on="0"/>
        <pt x="488" y="245" on="0"/>
        <pt x="478" y="190" on="1"/>
        <pt x="470" y="145" on="0"/>
        <pt x="428" y="71" on="0"/>
        <pt x="360" y="19" on="0"/>
        <pt x="269" y="-10" on="0"/>
        <pt x="213" y="-10" on="1"/>
        <pt x="164" y="-10" on="0"/>
        <pt x="91" y="6" on="0"/>
        <pt x="66" y="17" on="1"/>
        <pt x="37" y="29" on="0"/>
        <pt x="17" y="45" on="1"/>
        <pt x="63" y="105" on="1"/>
        <pt x="73" y="105" on="1"/>
        <pt x="89" y="92" on="0"/>
        <pt x="110" y="82" on="1"/>
        <pt x="128" y="74" on="0"/>
        <pt x="181" y="60" on="0"/>
        <pt x="215" y="60" on="1"/>
        <pt x="283" y="60" on="0"/>
        <pt x="367" y="127" on="0"/>
        <pt x="376" y="180" on="1"/>
        <pt x="383" y="220" on="0"/>
        <pt x="344" y="271" on="0"/>
        <pt x="278" y="310" on="0"/>
        <pt x="200" y="345" on="0"/>
        <pt x="137" y="394" on="0"/>
        <pt x="101" y="465" on="0"/>
        <pt x="111" y="520" on="1"/>
        <pt x="118" y="561" on="0"/>
        <pt x="160" y="631" on="0"/>
        <pt x="223" y="682" on="0"/>
        <pt x="306" y="710" on="0"/>
      </contour>
    </TTGlyph>
    <TTGlyph name="afii10055" xMin="65" yMin="0" xMax="288" yMax="700">
      <contour>
        <pt x="188" y="700" on="1"/>
        <pt x="288" y="700" on="1"/>
        <pt x="165" y="0" on="1"/>
        <pt x="65" y="0" on="1"/>
      </contour>
    </TTGlyph>
    <TTGlyph name="afii10056" xMin="55" yMin="0" xMax="398" yMax="900">
      <contour>
        <pt x="178" y="700" on="1"/>
        <pt x="278" y="700" on="1"/>
        <pt x="155" y="0" on="1"/>
        <pt x="55" y="0" on="1"/>
      </contour>
      <contour>
        <pt x="218" y="840" on="1"/>
        <pt x="213" y="814" on="0"/>
        <pt x="173" y="780" on="0"/>
        <pt x="147" y="780" on="1"/>
        <pt x="121" y="780" on="0"/>
        <pt x="93" y="814" on="0"/>
        <pt x="98" y="840" on="1"/>
        <pt x="103" y="866" on="0"/>
        <pt x="142" y="900" on="0"/>
        <pt x="168" y="900" on="1"/>
        <pt x="194" y="900" on="0"/>
        <pt x="223" y="866" on="0"/>
      </contour>
      <contour>
        <pt x="398" y="840" on="1"/>
        <pt x="393" y="814" on="0"/>
        <pt x="353" y="780" on="0"/>
        <pt x="327" y="780" on="1"/>
        <pt x="301" y="780" on="0"/>
        <pt x="273" y="814" on="0"/>
        <pt x="278" y="840" on="1"/>
        <pt x="283" y="866" on="0"/>
        <pt x="322" y="900" on="0"/>
        <pt x="348" y="900" on="1"/>
        <pt x="374" y="900" on="0"/>
        <pt x="403" y="866" on="0"/>
      </contour>
    </TTGlyph>
    <TTGlyph name="afii10057" xMin="-19" yMin="-10" xMax="438" yMax="700">
      <contour>
        <pt x="110" y="60" on="1"/>
        <pt x="167" y="60" on="0"/>
        <pt x="236" y="122" on="0"/>
        <pt x="248" y="190" on="1"/>
        <pt x="338" y="700" on="1"/>
        <pt x="438" y="700" on="1"/>
        <pt x="348" y="190" on="1"/>
        <pt x="331" y="92" on="0"/>
        <pt x="210" y="-10" on="0"/>
        <pt x="108" y="-10" on="1"/>
        <pt x="78" y="-10" on="0"/>
        <pt x="31" y="4" on="0"/>
        <pt x="14" y="12" on="1"/>
        <pt x="-5" y="22" on="0"/>
        <pt x="-19" y="35" on="1"/>
        <pt x="22" y="100" on="1"/>
        <pt x="32" y="100" on="1"/>
        <pt x="42" y="89" on="0"/>
        <pt x="54" y="80" on="1"/>
        <pt x="65" y="72" on="0"/>
        <pt x="93" y="60" on="0"/>
      </contour>
    </TTGlyph>
    <TTGlyph name="afii10058" xMin="-15" yMin="-10" xMax="859" yMax="700">
      <contour>
        <pt x="653" y="440" on="1"/>
        <pt x="777" y="440" on="0"/>
        <pt x="878" y="325" on="0"/>
        <pt x="859" y="220" on="1"/>
        <pt x="841" y="114" on="0"/>
        <pt x="701" y="0" on="0"/>
        <pt x="576" y="0" on="1"/>
        <pt x="385" y="0" on="1"/>
        <pt x="496" y="630" on="1"/>
        <pt x="311" y="630" on="1"/>
        <pt x="203" y="160" on="1"/>
        <pt x="183" y="73" on="0"/>
        <pt x="95" y="-10" on="0"/>
        <pt x="38" y="-10" on="1"/>
        <pt x="15" y="-10" on="0"/>
        <pt x="0" y="-5" on="1"/>
        <pt x="-9" y="-3" on="0"/>
        <pt x="-15" y="0" on="1"/>
        <pt x="1" y="65" on="1"/>
        <pt x="11" y="65" on="1"/>
        <pt x="13" y="63" on="0"/>
        <pt x="17" y="62" on="1"/>
        <pt x="23" y="60" on="0"/>
        <pt x="30" y="60" on="1"/>
        <pt x="49" y="60" on="0"/>
        <pt x="89" y="103" on="0"/>
        <pt x="103" y="160" on="1"/>
        <pt x="228" y="700" on="1"/>
        <pt x="609" y="700" on="1"/>
        <pt x="563" y="440" on="1"/>
      </contour>
      <contour>
        <pt x="551" y="370" on="1"/>
        <pt x="498" y="70" on="1"/>
        <pt x="588" y="70" on="1"/>
        <pt x="733" y="70" on="0"/>
        <pt x="759" y="220" on="1"/>
        <pt x="786" y="370" on="0"/>
        <pt x="641" y="370" on="1"/>
      </contour>
    </TTGlyph>
    <TTGlyph name="afii10059" xMin="65" yMin="0" xMax="877" yMax="700">
      <contour>
        <pt x="669" y="420" on="1"/>
        <pt x="731" y="420" on="0"/>
        <pt x="818" y="391" on="0"/>
        <pt x="869" y="337" on="0"/>
        <pt x="885" y="259" on="0"/>
        <pt x="877" y="210" on="1"/>
        <pt x="860" y="112" on="0"/>
        <pt x="719" y="0" on="0"/>
        <pt x="595" y="0" on="1"/>
        <pt x="405" y="0" on="1"/>
        <pt x="466" y="350" on="1"/>
        <pt x="226" y="350" on="1"/>
        <pt x="165" y="0" on="1"/>
        <pt x="65" y="0" on="1"/>
        <pt x="188" y="700" on="1"/>
        <pt x="288" y="700" on="1"/>
        <pt x="239" y="420" on="1"/>
        <pt x="479" y="420" on="1"/>
        <pt x="528" y="700" on="1"/>
        <pt x="628" y="700" on="1"/>
        <pt x="579" y="420" on="1"/>
      </contour>
      <contour>
        <pt x="566" y="350" on="1"/>
        <pt x="517" y="70" on="1"/>
        <pt x="607" y="70" on="1"/>
        <pt x="679" y="70" on="0"/>
        <pt x="765" y="142" on="0"/>
        <pt x="777" y="210" on="1"/>
        <pt x="788" y="278" on="0"/>
        <pt x="728" y="350" on="0"/>
        <pt x="656" y="350" on="1"/>
      </contour>
    </TTGlyph>
    <TTGlyph name="afii10060" xMin="86" yMin="0" xMax="609" yMax="700">
      <contour>
        <pt x="215" y="0" on="1"/>
        <pt x="115" y="0" on="1"/>
        <pt x="226" y="630" on="1"/>
        <pt x="86" y="630" on="1"/>
        <pt x="98" y="700" on="1"/>
        <pt x="518" y="700" on="1"/>
        <pt x="506" y="630" on="1"/>
        <pt x="326" y="630" on="1"/>
        <pt x="291" y="435" on="1"/>
        <pt x="309" y="438" on="0"/>
        <pt x="332" y="442" on="1"/>
        <pt x="352" y="445" on="0"/>
        <pt x="404" y="450" on="0"/>
        <pt x="434" y="450" on="1"/>
        <pt x="483" y="450" on="0"/>
        <pt x="556" y="421" on="0"/>
        <pt x="601" y="370" on="0"/>
        <pt x="617" y="298" on="0"/>
        <pt x="609" y="255" on="1"/>
        <pt x="565" y="0" on="1"/>
        <pt x="465" y="0" on="1"/>
        <pt x="509" y="255" on="1"/>
        <pt x="520" y="312" on="0"/>
        <pt x="461" y="380" on="0"/>
        <pt x="397" y="380" on="1"/>
        <pt x="372" y="380" on="0"/>
        <pt x="330" y="375" on="0"/>
        <pt x="314" y="372" on="1"/>
        <pt x="296" y="368" on="0"/>
        <pt x="279" y="365" on="1"/>
      </contour>
    </TTGlyph>
    <TTGlyph name="afii10061" xMin="65" yMin="-10" xMax="643" yMax="890">
      <contour>
        <pt x="536" y="890" on="1"/>
        <pt x="420" y="740" on="1"/>
        <pt x="355" y="740" on="1"/>
        <pt x="426" y="890" on="1"/>
      </contour>
      <contour>
        <pt x="389" y="365" on="1"/>
        <pt x="410" y="359" on="0"/>
        <pt x="428" y="347" on="1"/>
        <pt x="443" y="336" on="0"/>
        <pt x="469" y="297" on="0"/>
        <pt x="471" y="265" on="1"/>
        <pt x="478" y="105" on="1"/>
        <pt x="481" y="60" on="0"/>
        <pt x="510" y="60" on="1"/>
        <pt x="516" y="60" on="0"/>
        <pt x="524" y="62" on="1"/>
        <pt x="528" y="63" on="0"/>
        <pt x="531" y="65" on="1"/>
        <pt x="536" y="65" on="1"/>
        <pt x="535" y="0" on="1"/>
        <pt x="528" y="-3" on="0"/>
        <pt x="519" y="-5" on="1"/>
        <pt x="501" y="-10" on="0"/>
        <pt x="473" y="-10" on="1"/>
        <pt x="424" y="-10" on="0"/>
        <pt x="377" y="45" on="0"/>
        <pt x="375" y="90" on="1"/>
        <pt x="369" y="250" on="1"/>
        <pt x="367" y="284" on="0"/>
        <pt x="330" y="325" on="0"/>
        <pt x="292" y="325" on="1"/>
        <pt x="222" y="325" on="1"/>
        <pt x="165" y="0" on="1"/>
        <pt x="65" y="0" on="1"/>
        <pt x="188" y="700" on="1"/>
        <pt x="288" y="700" on="1"/>
        <pt x="234" y="395" on="1"/>
        <pt x="294" y="395" on="1"/>
        <pt x="336" y="395" on="0"/>
        <pt x="390" y="436" on="0"/>
        <pt x="402" y="470" on="1"/>
        <pt x="452" y="610" on="1"/>
        <pt x="469" y="655" on="0"/>
        <pt x="536" y="710" on="0"/>
        <pt x="585" y="710" on="1"/>
        <pt x="600" y="710" on="0"/>
        <pt x="621" y="707" on="0"/>
        <pt x="629" y="705" on="1"/>
        <pt x="637" y="702" on="0"/>
        <pt x="643" y="700" on="1"/>
        <pt x="621" y="635" on="1"/>
        <pt x="616" y="635" on="1"/>
        <pt x="610" y="637" on="1"/>
        <pt x="607" y="638" on="0"/>
        <pt x="601" y="640" on="0"/>
        <pt x="597" y="640" on="1"/>
        <pt x="565" y="640" on="0"/>
        <pt x="549" y="595" on="1"/>
        <pt x="500" y="455" on="1"/>
        <pt x="489" y="425" on="0"/>
        <pt x="452" y="389" on="0"/>
        <pt x="434" y="380" on="1"/>
        <pt x="413" y="369" on="0"/>
      </contour>
    </TTGlyph>
    <TTGlyph name="afii10062" xMin="38" yMin="-15" xMax="624" yMax="870">
      <contour>
        <pt x="387" y="800" on="1"/>
        <pt x="417" y="800" on="0"/>
        <pt x="452" y="832" on="0"/>
        <pt x="459" y="870" on="1"/>
        <pt x="549" y="870" on="1"/>
        <pt x="538" y="810" on="0"/>
        <pt x="451" y="740" on="0"/>
        <pt x="376" y="740" on="1"/>
        <pt x="301" y="740" on="0"/>
        <pt x="238" y="810" on="0"/>
        <pt x="249" y="870" on="1"/>
        <pt x="339" y="870" on="1"/>
        <pt x="332" y="832" on="0"/>
        <pt x="357" y="800" on="0"/>
      </contour>
      <contour>
        <pt x="295" y="335" on="1"/>
        <pt x="297" y="325" on="0"/>
        <pt x="300" y="300" on="0"/>
        <pt x="301" y="288" on="1"/>
        <pt x="302" y="274" on="0"/>
        <pt x="303" y="260" on="1"/>
        <pt x="307" y="260" on="1"/>
        <pt x="313" y="274" on="0"/>
        <pt x="319" y="288" on="1"/>
        <pt x="324" y="299" on="0"/>
        <pt x="335" y="325" on="0"/>
        <pt x="340" y="335" on="1"/>
        <pt x="524" y="700" on="1"/>
        <pt x="624" y="700" on="1"/>
        <pt x="338" y="125" on="1"/>
        <pt x="324" y="97" on="0"/>
        <pt x="282" y="46" on="0"/>
        <pt x="230" y="8" on="0"/>
        <pt x="170" y="-15" on="0"/>
        <pt x="138" y="-15" on="1"/>
        <pt x="113" y="-15" on="0"/>
        <pt x="77" y="-6" on="0"/>
        <pt x="64" y="0" on="1"/>
        <pt x="49" y="6" on="0"/>
        <pt x="38" y="15" on="1"/>
        <pt x="75" y="80" on="1"/>
        <pt x="85" y="80" on="1"/>
        <pt x="91" y="72" on="0"/>
        <pt x="99" y="67" on="1"/>
        <pt x="106" y="62" on="0"/>
        <pt x="126" y="55" on="0"/>
        <pt x="140" y="55" on="1"/>
        <pt x="170" y="55" on="0"/>
        <pt x="222" y="95" on="0"/>
        <pt x="238" y="125" on="1"/>
        <pt x="268" y="185" on="1"/>
        <pt x="223" y="185" on="1"/>
        <pt x="108" y="700" on="1"/>
        <pt x="213" y="700" on="1"/>
      </contour>
    </TTGlyph>
    <TTGlyph name="afii10065" xMin="45" yMin="-10" xMax="471" yMax="510">
      <contour>
        <pt x="371" y="320" on="1"/>
        <pt x="382" y="380" on="0"/>
        <pt x="336" y="440" on="0"/>
        <pt x="287" y="440" on="1"/>
        <pt x="264" y="440" on="0"/>
        <pt x="222" y="425" on="0"/>
        <pt x="205" y="417" on="1"/>
        <pt x="186" y="407" on="0"/>
        <pt x="169" y="395" on="1"/>
        <pt x="159" y="395" on="1"/>
        <pt x="135" y="455" on="1"/>
        <pt x="157" y="470" on="0"/>
        <pt x="184" y="482" on="1"/>
        <pt x="207" y="493" on="0"/>
        <pt x="271" y="510" on="0"/>
        <pt x="309" y="510" on="1"/>
        <pt x="352" y="510" on="0"/>
        <pt x="419" y="482" on="0"/>
        <pt x="462" y="431" on="0"/>
        <pt x="478" y="361" on="0"/>
        <pt x="471" y="320" on="1"/>
        <pt x="415" y="0" on="1"/>
        <pt x="345" y="0" on="1"/>
        <pt x="345" y="60" on="1"/>
        <pt x="340" y="60" on="1"/>
        <pt x="323" y="40" on="0"/>
        <pt x="299" y="25" on="1"/>
        <pt x="279" y="11" on="0"/>
        <pt x="221" y="-10" on="0"/>
        <pt x="183" y="-10" on="1"/>
        <pt x="104" y="-10" on="0"/>
        <pt x="32" y="73" on="0"/>
        <pt x="45" y="145" on="1"/>
        <pt x="51" y="179" on="0"/>
        <pt x="85" y="234" on="0"/>
        <pt x="143" y="273" on="0"/>
        <pt x="229" y="295" on="0"/>
        <pt x="287" y="295" on="1"/>
        <pt x="367" y="295" on="1"/>
      </contour>
      <contour>
        <pt x="354" y="225" on="1"/>
        <pt x="274" y="225" on="1"/>
        <pt x="214" y="225" on="0"/>
        <pt x="151" y="179" on="0"/>
        <pt x="145" y="145" on="1"/>
        <pt x="138" y="107" on="0"/>
        <pt x="176" y="65" on="0"/>
        <pt x="221" y="65" on="1"/>
        <pt x="244" y="65" on="0"/>
        <pt x="284" y="84" on="0"/>
        <pt x="301" y="95" on="1"/>
        <pt x="319" y="108" on="0"/>
        <pt x="337" y="125" on="1"/>
      </contour>
    </TTGlyph>
    <TTGlyph name="afii10066" xMin="70" yMin="-10" xMax="556" yMax="715">
      <contour>
        <pt x="411" y="605" on="1"/>
        <pt x="361" y="596" on="0"/>
        <pt x="285" y="565" on="0"/>
        <pt x="231" y="514" on="0"/>
        <pt x="197" y="441" on="0"/>
        <pt x="188" y="390" on="1"/>
        <pt x="217" y="428" on="0"/>
        <pt x="298" y="470" on="0"/>
        <pt x="347" y="470" on="1"/>
        <pt x="384" y="470" on="0"/>
        <pt x="446" y="439" on="0"/>
        <pt x="486" y="378" on="0"/>
        <pt x="500" y="288" on="0"/>
        <pt x="490" y="230" on="1"/>
        <pt x="480" y="172" on="0"/>
        <pt x="434" y="82" on="0"/>
        <pt x="368" y="21" on="0"/>
        <pt x="285" y="-10" on="0"/>
        <pt x="238" y="-10" on="1"/>
        <pt x="144" y="-10" on="0"/>
        <pt x="50" y="113" on="0"/>
        <pt x="70" y="230" on="1"/>
        <pt x="87" y="325" on="1"/>
        <pt x="104" y="421" on="0"/>
        <pt x="157" y="550" on="0"/>
        <pt x="236" y="633" on="0"/>
        <pt x="342" y="678" on="0"/>
        <pt x="411" y="690" on="1"/>
        <pt x="556" y="715" on="1"/>
        <pt x="556" y="630" on="1"/>
      </contour>
      <contour>
        <pt x="309" y="395" on="1"/>
        <pt x="264" y="395" on="0"/>
        <pt x="185" y="316" on="0"/>
        <pt x="170" y="230" on="1"/>
        <pt x="162" y="185" on="0"/>
        <pt x="168" y="121" on="0"/>
        <pt x="191" y="79" on="0"/>
        <pt x="227" y="60" on="0"/>
        <pt x="250" y="60" on="1"/>
        <pt x="295" y="60" on="0"/>
        <pt x="374" y="140" on="0"/>
        <pt x="390" y="230" on="1"/>
        <pt x="397" y="273" on="0"/>
        <pt x="391" y="335" on="0"/>
        <pt x="368" y="376" on="0"/>
        <pt x="331" y="395" on="0"/>
      </contour>
    </TTGlyph>
    <TTGlyph name="afii10067" xMin="50" yMin="0" xMax="485" yMax="500">
      <contour>
        <pt x="370" y="260" on="1"/>
        <pt x="401" y="254" on="0"/>
        <pt x="424" y="239" on="1"/>
        <pt x="434" y="232" on="0"/>
        <pt x="451" y="214" on="0"/>
        <pt x="463" y="188" on="0"/>
        <pt x="467" y="156" on="0"/>
        <pt x="463" y="135" on="1"/>
        <pt x="458" y="107" on="0"/>
        <pt x="427" y="58" on="0"/>
        <pt x="372" y="21" on="0"/>
        <pt x="292" y="0" on="0"/>
        <pt x="240" y="0" on="1"/>
        <pt x="50" y="0" on="1"/>
        <pt x="138" y="500" on="1"/>
        <pt x="328" y="500" on="1"/>
        <pt x="373" y="500" on="0"/>
        <pt x="437" y="479" on="0"/>
        <pt x="475" y="443" on="0"/>
        <pt x="489" y="396" on="0"/>
        <pt x="485" y="370" on="1"/>
        <pt x="479" y="336" on="0"/>
        <pt x="441" y="293" on="0"/>
        <pt x="421" y="281" on="1"/>
        <pt x="397" y="267" on="0"/>
      </contour>
      <contour>
        <pt x="225" y="430" on="1"/>
        <pt x="201" y="290" on="1"/>
        <pt x="291" y="290" on="1"/>
        <pt x="329" y="290" on="0"/>
        <pt x="378" y="330" on="0"/>
        <pt x="383" y="360" on="1"/>
        <pt x="388" y="390" on="0"/>
        <pt x="353" y="430" on="0"/>
        <pt x="315" y="430" on="1"/>
      </contour>
      <contour>
        <pt x="188" y="220" on="1"/>
        <pt x="162" y="70" on="1"/>
        <pt x="252" y="70" on="1"/>
        <pt x="305" y="70" on="0"/>
        <pt x="359" y="111" on="0"/>
        <pt x="365" y="145" on="1"/>
        <pt x="371" y="179" on="0"/>
        <pt x="331" y="220" on="0"/>
        <pt x="278" y="220" on="1"/>
      </contour>
    </TTGlyph>
    <TTGlyph name="afii10068" xMin="50" yMin="0" xMax="468" yMax="500">
      <contour>
        <pt x="455" y="430" on="1"/>
        <pt x="225" y="430" on="1"/>
        <pt x="150" y="0" on="1"/>
        <pt x="50" y="0" on="1"/>
        <pt x="138" y="500" on="1"/>
        <pt x="468" y="500" on="1"/>
      </contour>
    </TTGlyph>
    <TTGlyph name="afii10069" xMin="-44" yMin="-140" xMax="523" yMax="500">
      <contour>
        <pt x="523" y="500" on="1"/>
        <pt x="447" y="70" on="1"/>
        <pt x="512" y="70" on="1"/>
        <pt x="475" y="-140" on="1"/>
        <pt x="395" y="-140" on="1"/>
        <pt x="405" y="0" on="1"/>
        <pt x="80" y="0" on="1"/>
        <pt x="40" y="-140" on="1"/>
        <pt x="-44" y="-140" on="1"/>
        <pt x="-8" y="70" on="1"/>
        <pt x="42" y="70" on="1"/>
        <pt x="59" y="86" on="0"/>
        <pt x="75" y="109" on="1"/>
        <pt x="89" y="129" on="0"/>
        <pt x="115" y="184" on="0"/>
        <pt x="123" y="220" on="1"/>
        <pt x="188" y="500" on="1"/>
      </contour>
      <contour>
        <pt x="347" y="70" on="1"/>
        <pt x="410" y="430" on="1"/>
        <pt x="270" y="430" on="1"/>
        <pt x="223" y="220" on="1"/>
        <pt x="215" y="184" on="0"/>
        <pt x="189" y="129" on="0"/>
        <pt x="175" y="109" on="1"/>
        <pt x="159" y="86" on="0"/>
        <pt x="142" y="70" on="1"/>
      </contour>
    </TTGlyph>
    <TTGlyph name="afii10070" xMin="69" yMin="-10" xMax="484" yMax="510">
      <contour>
        <pt x="319" y="510" on="1"/>
        <pt x="364" y="510" on="0"/>
        <pt x="434" y="478" on="0"/>
        <pt x="477" y="413" on="0"/>
        <pt x="490" y="316" on="0"/>
        <pt x="479" y="250" on="1"/>
        <pt x="476" y="235" on="1"/>
        <pt x="452" y="215" on="1"/>
        <pt x="162" y="215" on="1"/>
        <pt x="148" y="136" on="0"/>
        <pt x="205" y="60" on="0"/>
        <pt x="265" y="60" on="1"/>
        <pt x="288" y="60" on="0"/>
        <pt x="329" y="74" on="0"/>
        <pt x="346" y="82" on="1"/>
        <pt x="365" y="92" on="0"/>
        <pt x="383" y="105" on="1"/>
        <pt x="393" y="105" on="1"/>
        <pt x="417" y="45" on="1"/>
        <pt x="394" y="29" on="0"/>
        <pt x="367" y="17" on="1"/>
        <pt x="344" y="6" on="0"/>
        <pt x="281" y="-10" on="0"/>
        <pt x="243" y="-10" on="1"/>
        <pt x="141" y="-10" on="0"/>
        <pt x="46" y="118" on="0"/>
        <pt x="69" y="250" on="1"/>
        <pt x="80" y="316" on="0"/>
        <pt x="127" y="413" on="0"/>
        <pt x="193" y="478" on="0"/>
        <pt x="274" y="510" on="0"/>
      </contour>
      <contour>
        <pt x="307" y="440" on="1"/>
        <pt x="262" y="440" on="0"/>
        <pt x="189" y="367" on="0"/>
        <pt x="175" y="285" on="1"/>
        <pt x="385" y="285" on="1"/>
        <pt x="399" y="368" on="0"/>
        <pt x="352" y="440" on="0"/>
      </contour>
    </TTGlyph>
    <TTGlyph name="afii10071" xMin="69" yMin="-10" xMax="484" yMax="675">
      <contour>
        <pt x="319" y="510" on="1"/>
        <pt x="364" y="510" on="0"/>
        <pt x="434" y="478" on="0"/>
        <pt x="477" y="413" on="0"/>
        <pt x="490" y="316" on="0"/>
        <pt x="479" y="250" on="1"/>
        <pt x="476" y="235" on="1"/>
        <pt x="452" y="215" on="1"/>
        <pt x="162" y="215" on="1"/>
        <pt x="148" y="136" on="0"/>
        <pt x="205" y="60" on="0"/>
        <pt x="265" y="60" on="1"/>
        <pt x="288" y="60" on="0"/>
        <pt x="329" y="74" on="0"/>
        <pt x="346" y="82" on="1"/>
        <pt x="365" y="92" on="0"/>
        <pt x="383" y="105" on="1"/>
        <pt x="393" y="105" on="1"/>
        <pt x="417" y="45" on="1"/>
        <pt x="394" y="29" on="0"/>
        <pt x="367" y="17" on="1"/>
        <pt x="344" y="6" on="0"/>
        <pt x="281" y="-10" on="0"/>
        <pt x="243" y="-10" on="1"/>
        <pt x="141" y="-10" on="0"/>
        <pt x="46" y="118" on="0"/>
        <pt x="69" y="250" on="1"/>
        <pt x="80" y="316" on="0"/>
        <pt x="127" y="413" on="0"/>
        <pt x="193" y="478" on="0"/>
        <pt x="274" y="510" on="0"/>
      </contour>
      <contour>
        <pt x="307" y="440" on="1"/>
        <pt x="262" y="440" on="0"/>
        <pt x="189" y="367" on="0"/>
        <pt x="175" y="285" on="1"/>
        <pt x="385" y="285" on="1"/>
        <pt x="399" y="368" on="0"/>
        <pt x="352" y="440" on="0"/>
      </contour>
      <contour>
        <pt x="310" y="620" on="1"/>
        <pt x="305" y="596" on="0"/>
        <pt x="269" y="565" on="0"/>
        <pt x="245" y="565" on="1"/>
        <pt x="221" y="565" on="0"/>
        <pt x="195" y="596" on="0"/>
        <pt x="200" y="620" on="1"/>
        <pt x="204" y="644" on="0"/>
        <pt x="241" y="675" on="0"/>
        <pt x="265" y="675" on="1"/>
        <pt x="289" y="675" on="0"/>
        <pt x="314" y="644" on="0"/>
      </contour>
      <contour>
        <pt x="484" y="620" on="1"/>
        <pt x="479" y="596" on="0"/>
        <pt x="443" y="565" on="0"/>
        <pt x="419" y="565" on="1"/>
        <pt x="395" y="565" on="0"/>
        <pt x="369" y="596" on="0"/>
        <pt x="374" y="620" on="1"/>
        <pt x="378" y="644" on="0"/>
        <pt x="415" y="675" on="0"/>
        <pt x="439" y="675" on="1"/>
        <pt x="463" y="675" on="0"/>
        <pt x="488" y="644" on="0"/>
      </contour>
    </TTGlyph>
    <TTGlyph name="afii10072" xMin="0" yMin="-10" xMax="763" yMax="510">
      <contour>
        <pt x="647" y="325" on="1"/>
        <pt x="638" y="304" on="0"/>
        <pt x="610" y="279" on="0"/>
        <pt x="581" y="265" on="0"/>
        <pt x="558" y="260" on="0"/>
        <pt x="555" y="260" on="1"/>
        <pt x="557" y="260" on="0"/>
        <pt x="580" y="253" on="0"/>
        <pt x="607" y="237" on="0"/>
        <pt x="630" y="208" on="0"/>
        <pt x="632" y="185" on="1"/>
        <pt x="640" y="90" on="1"/>
        <pt x="643" y="60" on="0"/>
        <pt x="665" y="60" on="1"/>
        <pt x="671" y="60" on="0"/>
        <pt x="679" y="62" on="1"/>
        <pt x="683" y="63" on="0"/>
        <pt x="686" y="65" on="1"/>
        <pt x="691" y="65" on="1"/>
        <pt x="690" y="0" on="1"/>
        <pt x="682" y="-3" on="0"/>
        <pt x="672" y="-5" on="1"/>
        <pt x="654" y="-10" on="0"/>
        <pt x="628" y="-10" on="1"/>
        <pt x="586" y="-10" on="0"/>
        <pt x="546" y="34" on="0"/>
        <pt x="543" y="75" on="1"/>
        <pt x="534" y="170" on="1"/>
        <pt x="532" y="193" on="0"/>
        <pt x="504" y="220" on="0"/>
        <pt x="478" y="220" on="1"/>
        <pt x="433" y="220" on="1"/>
        <pt x="395" y="0" on="1"/>
        <pt x="295" y="0" on="1"/>
        <pt x="333" y="220" on="1"/>
        <pt x="288" y="220" on="1"/>
        <pt x="262" y="220" on="0"/>
        <pt x="225" y="193" on="0"/>
        <pt x="214" y="170" on="1"/>
        <pt x="173" y="75" on="1"/>
        <pt x="155" y="34" on="0"/>
        <pt x="100" y="-10" on="0"/>
        <pt x="58" y="-10" on="1"/>
        <pt x="33" y="-10" on="0"/>
        <pt x="16" y="-5" on="1"/>
        <pt x="7" y="-3" on="0"/>
        <pt x="0" y="0" on="1"/>
        <pt x="21" y="65" on="1"/>
        <pt x="26" y="65" on="1"/>
        <pt x="28" y="63" on="0"/>
        <pt x="32" y="62" on="1"/>
        <pt x="38" y="60" on="0"/>
        <pt x="45" y="60" on="1"/>
        <pt x="68" y="60" on="0"/>
        <pt x="80" y="90" on="1"/>
        <pt x="122" y="185" on="1"/>
        <pt x="132" y="207" on="0"/>
        <pt x="164" y="236" on="0"/>
        <pt x="196" y="252" on="0"/>
        <pt x="222" y="259" on="0"/>
        <pt x="225" y="260" on="1"/>
        <pt x="223" y="260" on="0"/>
        <pt x="202" y="264" on="0"/>
        <pt x="178" y="278" on="0"/>
        <pt x="158" y="304" on="0"/>
        <pt x="157" y="325" on="1"/>
        <pt x="152" y="410" on="1"/>
        <pt x="149" y="440" on="0"/>
        <pt x="127" y="440" on="1"/>
        <pt x="123" y="440" on="0"/>
        <pt x="116" y="438" on="0"/>
        <pt x="113" y="437" on="1"/>
        <pt x="109" y="436" on="0"/>
        <pt x="106" y="435" on="1"/>
        <pt x="101" y="435" on="1"/>
        <pt x="103" y="500" on="1"/>
        <pt x="110" y="502" on="0"/>
        <pt x="120" y="505" on="1"/>
        <pt x="128" y="507" on="0"/>
        <pt x="150" y="510" on="0"/>
        <pt x="164" y="510" on="1"/>
        <pt x="207" y="510" on="0"/>
        <pt x="247" y="467" on="0"/>
        <pt x="249" y="425" on="1"/>
        <pt x="254" y="340" on="1"/>
        <pt x="256" y="317" on="0"/>
        <pt x="282" y="290" on="0"/>
        <pt x="311" y="290" on="1"/>
        <pt x="346" y="290" on="1"/>
        <pt x="383" y="500" on="1"/>
        <pt x="483" y="500" on="1"/>
        <pt x="446" y="290" on="1"/>
        <pt x="481" y="290" on="1"/>
        <pt x="510" y="290" on="0"/>
        <pt x="545" y="317" on="0"/>
        <pt x="554" y="340" on="1"/>
        <pt x="589" y="425" on="1"/>
        <pt x="606" y="467" on="0"/>
        <pt x="661" y="510" on="0"/>
        <pt x="704" y="510" on="1"/>
        <pt x="717" y="510" on="0"/>
        <pt x="739" y="507" on="0"/>
        <pt x="747" y="505" on="1"/>
        <pt x="756" y="502" on="0"/>
        <pt x="763" y="500" on="1"/>
        <pt x="741" y="435" on="1"/>
        <pt x="736" y="435" on="1"/>
        <pt x="730" y="437" on="1"/>
        <pt x="727" y="438" on="0"/>
        <pt x="721" y="440" on="0"/>
        <pt x="717" y="440" on="1"/>
        <pt x="694" y="440" on="0"/>
        <pt x="682" y="410" on="1"/>
        <pt x="647" y="325" on="1"/>
      </contour>
    </TTGlyph>
    <TTGlyph name="afii10073" xMin="-3" yMin="-10" xMax="436" yMax="510">
      <contour>
        <pt x="264" y="510" on="1"/>
        <pt x="315" y="510" on="0"/>
        <pt x="385" y="489" on="0"/>
        <pt x="426" y="452" on="0"/>
        <pt x="441" y="403" on="0"/>
        <pt x="436" y="375" on="1"/>
        <pt x="430" y="341" on="0"/>
        <pt x="389" y="297" on="0"/>
        <pt x="367" y="284" on="1"/>
        <pt x="341" y="268" on="0"/>
        <pt x="310" y="260" on="1"/>
        <pt x="341" y="254" on="0"/>
        <pt x="364" y="238" on="1"/>
        <pt x="374" y="231" on="0"/>
        <pt x="391" y="212" on="0"/>
        <pt x="402" y="185" on="0"/>
        <pt x="406" y="151" on="0"/>
        <pt x="402" y="130" on="1"/>
        <pt x="397" y="100" on="0"/>
        <pt x="365" y="49" on="0"/>
        <pt x="309" y="11" on="0"/>
        <pt x="227" y="-10" on="0"/>
        <pt x="173" y="-10" on="1"/>
        <pt x="128" y="-10" on="0"/>
        <pt x="62" y="6" on="0"/>
        <pt x="40" y="17" on="1"/>
        <pt x="14" y="29" on="0"/>
        <pt x="-3" y="45" on="1"/>
        <pt x="43" y="105" on="1"/>
        <pt x="53" y="105" on="1"/>
        <pt x="66" y="92" on="0"/>
        <pt x="84" y="82" on="1"/>
        <pt x="99" y="74" on="0"/>
        <pt x="145" y="60" on="0"/>
        <pt x="175" y="60" on="1"/>
        <pt x="239" y="60" on="0"/>
        <pt x="297" y="102" on="0"/>
        <pt x="304" y="140" on="1"/>
        <pt x="311" y="178" on="0"/>
        <pt x="271" y="220" on="0"/>
        <pt x="218" y="220" on="1"/>
        <pt x="133" y="220" on="1"/>
        <pt x="146" y="290" on="1"/>
        <pt x="231" y="290" on="1"/>
        <pt x="276" y="290" on="0"/>
        <pt x="328" y="331" on="0"/>
        <pt x="334" y="365" on="1"/>
        <pt x="340" y="399" on="0"/>
        <pt x="299" y="440" on="0"/>
        <pt x="242" y="440" on="1"/>
        <pt x="216" y="440" on="0"/>
        <pt x="171" y="425" on="0"/>
        <pt x="154" y="417" on="1"/>
        <pt x="135" y="407" on="0"/>
        <pt x="119" y="395" on="1"/>
        <pt x="109" y="395" on="1"/>
        <pt x="85" y="455" on="1"/>
        <pt x="106" y="470" on="0"/>
        <pt x="133" y="482" on="1"/>
        <pt x="156" y="493" on="0"/>
        <pt x="222" y="510" on="0"/>
      </contour>
    </TTGlyph>
    <TTGlyph name="afii10074" xMin="50" yMin="0" xMax="538" yMax="500">
      <contour>
        <pt x="150" y="0" on="1"/>
        <pt x="50" y="0" on="1"/>
        <pt x="138" y="500" on="1"/>
        <pt x="238" y="500" on="1"/>
        <pt x="187" y="215" on="1"/>
        <pt x="185" y="204" on="0"/>
        <pt x="179" y="180" on="0"/>
        <pt x="177" y="169" on="1"/>
        <pt x="174" y="157" on="0"/>
        <pt x="171" y="145" on="1"/>
        <pt x="175" y="145" on="1"/>
        <pt x="180" y="157" on="0"/>
        <pt x="187" y="169" on="1"/>
        <pt x="193" y="180" on="0"/>
        <pt x="208" y="204" on="0"/>
        <pt x="217" y="215" on="1"/>
        <pt x="438" y="500" on="1"/>
        <pt x="538" y="500" on="1"/>
        <pt x="450" y="0" on="1"/>
        <pt x="350" y="0" on="1"/>
        <pt x="400" y="285" on="1"/>
        <pt x="402" y="296" on="0"/>
        <pt x="408" y="320" on="0"/>
        <pt x="410" y="331" on="1"/>
        <pt x="413" y="343" on="0"/>
        <pt x="416" y="355" on="1"/>
        <pt x="412" y="355" on="1"/>
        <pt x="407" y="343" on="0"/>
        <pt x="400" y="331" on="1"/>
        <pt x="387" y="308" on="0"/>
        <pt x="370" y="285" on="1"/>
      </contour>
    </TTGlyph>
    <TTGlyph name="afii10075" xMin="50" yMin="0" xMax="538" yMax="680">
      <contour>
        <pt x="150" y="0" on="1"/>
        <pt x="50" y="0" on="1"/>
        <pt x="138" y="500" on="1"/>
        <pt x="238" y="500" on="1"/>
        <pt x="187" y="215" on="1"/>
        <pt x="185" y="204" on="0"/>
        <pt x="179" y="180" on="0"/>
        <pt x="177" y="169" on="1"/>
        <pt x="174" y="157" on="0"/>
        <pt x="171" y="145" on="1"/>
        <pt x="175" y="145" on="1"/>
        <pt x="180" y="157" on="0"/>
        <pt x="187" y="169" on="1"/>
        <pt x="193" y="180" on="0"/>
        <pt x="208" y="204" on="0"/>
        <pt x="217" y="215" on="1"/>
        <pt x="438" y="500" on="1"/>
        <pt x="538" y="500" on="1"/>
        <pt x="450" y="0" on="1"/>
        <pt x="350" y="0" on="1"/>
        <pt x="400" y="285" on="1"/>
        <pt x="402" y="296" on="0"/>
        <pt x="408" y="320" on="0"/>
        <pt x="410" y="331" on="1"/>
        <pt x="413" y="343" on="0"/>
        <pt x="416" y="355" on="1"/>
        <pt x="412" y="355" on="1"/>
        <pt x="407" y="343" on="0"/>
        <pt x="400" y="331" on="1"/>
        <pt x="387" y="308" on="0"/>
        <pt x="370" y="285" on="1"/>
      </contour>
      <contour>
        <pt x="357" y="610" on="1"/>
        <pt x="387" y="610" on="0"/>
        <pt x="423" y="642" on="0"/>
        <pt x="429" y="680" on="1"/>
        <pt x="519" y="680" on="1"/>
        <pt x="508" y="620" on="0"/>
        <pt x="421" y="550" on="0"/>
        <pt x="346" y="550" on="1"/>
        <pt x="271" y="550" on="0"/>
        <pt x="208" y="620" on="0"/>
        <pt x="219" y="680" on="1"/>
        <pt x="309" y="680" on="1"/>
        <pt x="303" y="642" on="0"/>
        <pt x="327" y="610" on="0"/>
      </contour>
    </TTGlyph>
    <TTGlyph name="afii10076" xMin="50" yMin="-10" xMax="533" yMax="510">
      <contour>
        <pt x="325" y="260" on="1"/>
        <pt x="345" y="257" on="0"/>
        <pt x="362" y="247" on="1"/>
        <pt x="376" y="239" on="0"/>
        <pt x="400" y="209" on="0"/>
        <pt x="402" y="185" on="1"/>
        <pt x="410" y="90" on="1"/>
        <pt x="413" y="60" on="0"/>
        <pt x="435" y="60" on="1"/>
        <pt x="441" y="60" on="0"/>
        <pt x="449" y="62" on="1"/>
        <pt x="453" y="63" on="0"/>
        <pt x="456" y="65" on="1"/>
        <pt x="461" y="65" on="1"/>
        <pt x="460" y="0" on="1"/>
        <pt x="452" y="-3" on="0"/>
        <pt x="442" y="-5" on="1"/>
        <pt x="424" y="-10" on="0"/>
        <pt x="398" y="-10" on="1"/>
        <pt x="356" y="-10" on="0"/>
        <pt x="316" y="34" on="0"/>
        <pt x="313" y="75" on="1"/>
        <pt x="304" y="170" on="1"/>
        <pt x="302" y="193" on="0"/>
        <pt x="274" y="220" on="0"/>
        <pt x="248" y="220" on="1"/>
        <pt x="188" y="220" on="1"/>
        <pt x="150" y="0" on="1"/>
        <pt x="50" y="0" on="1"/>
        <pt x="138" y="500" on="1"/>
        <pt x="238" y="500" on="1"/>
        <pt x="201" y="290" on="1"/>
        <pt x="251" y="290" on="1"/>
        <pt x="280" y="290" on="0"/>
        <pt x="315" y="317" on="0"/>
        <pt x="324" y="340" on="1"/>
        <pt x="359" y="425" on="1"/>
        <pt x="376" y="467" on="0"/>
        <pt x="431" y="510" on="0"/>
        <pt x="474" y="510" on="1"/>
        <pt x="487" y="510" on="0"/>
        <pt x="509" y="507" on="0"/>
        <pt x="517" y="505" on="1"/>
        <pt x="526" y="502" on="0"/>
        <pt x="533" y="500" on="1"/>
        <pt x="511" y="435" on="1"/>
        <pt x="506" y="435" on="1"/>
        <pt x="500" y="437" on="1"/>
        <pt x="497" y="438" on="0"/>
        <pt x="491" y="440" on="0"/>
        <pt x="487" y="440" on="1"/>
        <pt x="464" y="440" on="0"/>
        <pt x="452" y="410" on="1"/>
        <pt x="417" y="325" on="1"/>
        <pt x="407" y="302" on="0"/>
        <pt x="377" y="277" on="0"/>
        <pt x="362" y="270" on="1"/>
        <pt x="344" y="262" on="0"/>
      </contour>
    </TTGlyph>
    <TTGlyph name="afii10077" xMin="-15" yMin="-10" xMax="528" yMax="500">
      <contour>
        <pt x="30" y="60" on="1"/>
        <pt x="49" y="60" on="0"/>
        <pt x="84" y="100" on="0"/>
        <pt x="98" y="160" on="1"/>
        <pt x="178" y="500" on="1"/>
        <pt x="528" y="500" on="1"/>
        <pt x="440" y="0" on="1"/>
        <pt x="340" y="0" on="1"/>
        <pt x="415" y="430" on="1"/>
        <pt x="260" y="430" on="1"/>
        <pt x="198" y="160" on="1"/>
        <pt x="177" y="70" on="0"/>
        <pt x="94" y="-10" on="0"/>
        <pt x="38" y="-10" on="1"/>
        <pt x="15" y="-10" on="0"/>
        <pt x="0" y="-5" on="1"/>
        <pt x="-9" y="-3" on="0"/>
        <pt x="-15" y="0" on="1"/>
        <pt x="1" y="65" on="1"/>
        <pt x="11" y="65" on="1"/>
        <pt x="13" y="63" on="0"/>
        <pt x="17" y="62" on="1"/>
        <pt x="23" y="60" on="0"/>
      </contour>
    </TTGlyph>
    <TTGlyph name="afii10078" xMin="50" yMin="0" xMax="688" yMax="500">
      <contour>
        <pt x="289" y="85" on="1"/>
        <pt x="226" y="265" on="1"/>
        <pt x="222" y="276" on="0"/>
        <pt x="216" y="301" on="0"/>
        <pt x="214" y="312" on="1"/>
        <pt x="211" y="324" on="0"/>
        <pt x="209" y="335" on="1"/>
        <pt x="205" y="335" on="1"/>
        <pt x="204" y="323" on="0"/>
        <pt x="203" y="311" on="1"/>
        <pt x="201" y="300" on="0"/>
        <pt x="198" y="276" on="0"/>
        <pt x="196" y="265" on="1"/>
        <pt x="150" y="0" on="1"/>
        <pt x="50" y="0" on="1"/>
        <pt x="138" y="500" on="1"/>
        <pt x="243" y="500" on="1"/>
        <pt x="343" y="220" on="1"/>
        <pt x="347" y="208" on="0"/>
        <pt x="351" y="194" on="1"/>
        <pt x="353" y="187" on="0"/>
        <pt x="354" y="180" on="1"/>
        <pt x="358" y="180" on="1"/>
        <pt x="362" y="187" on="0"/>
        <pt x="366" y="194" on="1"/>
        <pt x="370" y="200" on="0"/>
        <pt x="378" y="214" on="0"/>
        <pt x="383" y="220" on="1"/>
        <pt x="583" y="500" on="1"/>
        <pt x="688" y="500" on="1"/>
        <pt x="600" y="0" on="1"/>
        <pt x="500" y="0" on="1"/>
        <pt x="546" y="265" on="1"/>
        <pt x="551" y="290" on="0"/>
        <pt x="557" y="311" on="1"/>
        <pt x="560" y="323" on="0"/>
        <pt x="563" y="335" on="1"/>
        <pt x="559" y="335" on="1"/>
        <pt x="553" y="324" on="0"/>
        <pt x="546" y="312" on="1"/>
        <pt x="540" y="301" on="0"/>
        <pt x="524" y="276" on="0"/>
        <pt x="516" y="265" on="1"/>
        <pt x="389" y="85" on="1"/>
      </contour>
    </TTGlyph>
    <TTGlyph name="afii10079" xMin="50" yMin="0" xMax="538" yMax="500">
      <contour>
        <pt x="450" y="0" on="1"/>
        <pt x="350" y="0" on="1"/>
        <pt x="388" y="220" on="1"/>
        <pt x="188" y="220" on="1"/>
        <pt x="150" y="0" on="1"/>
        <pt x="50" y="0" on="1"/>
        <pt x="138" y="500" on="1"/>
        <pt x="238" y="500" on="1"/>
        <pt x="201" y="290" on="1"/>
        <pt x="401" y="290" on="1"/>
        <pt x="438" y="500" on="1"/>
        <pt x="538" y="500" on="1"/>
      </contour>
    </TTGlyph>
    <TTGlyph name="afii10080" xMin="69" yMin="-10" xMax="503" yMax="510">
      <contour>
        <pt x="499" y="250" on="1"/>
        <pt x="487" y="184" on="0"/>
        <pt x="439" y="87" on="0"/>
        <pt x="372" y="22" on="0"/>
        <pt x="287" y="-10" on="0"/>
        <pt x="238" y="-10" on="1"/>
        <pt x="140" y="-10" on="0"/>
        <pt x="46" y="119" on="0"/>
        <pt x="69" y="250" on="1"/>
        <pt x="92" y="382" on="0"/>
        <pt x="231" y="510" on="0"/>
        <pt x="329" y="510" on="1"/>
        <pt x="378" y="510" on="0"/>
        <pt x="451" y="478" on="0"/>
        <pt x="496" y="413" on="0"/>
        <pt x="510" y="316" on="0"/>
      </contour>
      <contour>
        <pt x="399" y="250" on="1"/>
        <pt x="408" y="302" on="0"/>
        <pt x="403" y="375" on="0"/>
        <pt x="380" y="420" on="0"/>
        <pt x="341" y="440" on="0"/>
        <pt x="317" y="440" on="1"/>
        <pt x="293" y="440" on="0"/>
        <pt x="247" y="420" on="0"/>
        <pt x="208" y="375" on="0"/>
        <pt x="178" y="302" on="0"/>
        <pt x="169" y="250" on="1"/>
        <pt x="160" y="197" on="0"/>
        <pt x="164" y="125" on="0"/>
        <pt x="187" y="80" on="0"/>
        <pt x="226" y="60" on="0"/>
        <pt x="250" y="60" on="1"/>
        <pt x="274" y="60" on="0"/>
        <pt x="320" y="80" on="0"/>
        <pt x="359" y="125" on="0"/>
        <pt x="390" y="197" on="0"/>
      </contour>
    </TTGlyph>
    <TTGlyph name="afii10081" xMin="50" yMin="0" xMax="538" yMax="500">
      <contour>
        <pt x="450" y="0" on="1"/>
        <pt x="350" y="0" on="1"/>
        <pt x="425" y="430" on="1"/>
        <pt x="225" y="430" on="1"/>
        <pt x="150" y="0" on="1"/>
        <pt x="50" y="0" on="1"/>
        <pt x="138" y="500" on="1"/>
        <pt x="538" y="500" on="1"/>
      </contour>
    </TTGlyph>
    <TTGlyph name="afii10082" xMin="14" yMin="-200" xMax="509" yMax="510">
      <contour>
        <pt x="164" y="80" on="1"/>
        <pt x="175" y="74" on="0"/>
        <pt x="189" y="70" on="1"/>
        <pt x="201" y="66" on="0"/>
        <pt x="234" y="60" on="0"/>
        <pt x="255" y="60" on="1"/>
        <pt x="279" y="60" on="0"/>
        <pt x="325" y="80" on="0"/>
        <pt x="364" y="125" on="0"/>
        <pt x="395" y="197" on="0"/>
        <pt x="404" y="250" on="1"/>
        <pt x="413" y="301" on="0"/>
        <pt x="407" y="371" on="0"/>
        <pt x="386" y="415" on="0"/>
        <pt x="352" y="435" on="0"/>
        <pt x="331" y="435" on="1"/>
        <pt x="308" y="435" on="0"/>
        <pt x="267" y="416" on="0"/>
        <pt x="251" y="405" on="1"/>
        <pt x="233" y="392" on="0"/>
        <pt x="216" y="375" on="1"/>
      </contour>
      <contour>
        <pt x="84" y="-200" on="1"/>
        <pt x="14" y="-200" on="1"/>
        <pt x="138" y="500" on="1"/>
        <pt x="208" y="500" on="1"/>
        <pt x="207" y="440" on="1"/>
        <pt x="212" y="440" on="1"/>
        <pt x="229" y="459" on="0"/>
        <pt x="253" y="475" on="1"/>
        <pt x="273" y="488" on="0"/>
        <pt x="331" y="510" on="0"/>
        <pt x="369" y="510" on="1"/>
        <pt x="405" y="510" on="0"/>
        <pt x="464" y="478" on="0"/>
        <pt x="503" y="413" on="0"/>
        <pt x="515" y="316" on="0"/>
        <pt x="504" y="250" on="1"/>
        <pt x="492" y="184" on="0"/>
        <pt x="445" y="87" on="0"/>
        <pt x="380" y="22" on="0"/>
        <pt x="301" y="-10" on="0"/>
        <pt x="258" y="-10" on="1"/>
        <pt x="235" y="-10" on="0"/>
        <pt x="197" y="-1" on="0"/>
        <pt x="183" y="5" on="1"/>
        <pt x="166" y="11" on="0"/>
        <pt x="153" y="20" on="1"/>
        <pt x="120" y="-170" on="1"/>
      </contour>
    </TTGlyph>
    <TTGlyph name="afii10083" xMin="69" yMin="-10" xMax="480" yMax="510">
      <contour>
        <pt x="322" y="440" on="1"/>
        <pt x="296" y="440" on="0"/>
        <pt x="248" y="420" on="0"/>
        <pt x="208" y="375" on="0"/>
        <pt x="178" y="302" on="0"/>
        <pt x="169" y="250" on="1"/>
        <pt x="160" y="197" on="0"/>
        <pt x="165" y="125" on="0"/>
        <pt x="190" y="80" on="0"/>
        <pt x="235" y="60" on="0"/>
        <pt x="265" y="60" on="1"/>
        <pt x="288" y="60" on="0"/>
        <pt x="329" y="74" on="0"/>
        <pt x="346" y="82" on="1"/>
        <pt x="365" y="92" on="0"/>
        <pt x="383" y="105" on="1"/>
        <pt x="393" y="105" on="1"/>
        <pt x="417" y="45" on="1"/>
        <pt x="394" y="29" on="0"/>
        <pt x="367" y="17" on="1"/>
        <pt x="344" y="6" on="0"/>
        <pt x="281" y="-10" on="0"/>
        <pt x="243" y="-10" on="1"/>
        <pt x="141" y="-10" on="0"/>
        <pt x="46" y="118" on="0"/>
        <pt x="69" y="250" on="1"/>
        <pt x="92" y="382" on="0"/>
        <pt x="230" y="510" on="0"/>
        <pt x="324" y="510" on="1"/>
        <pt x="362" y="510" on="0"/>
        <pt x="419" y="493" on="0"/>
        <pt x="439" y="482" on="1"/>
        <pt x="462" y="470" on="0"/>
        <pt x="480" y="455" on="1"/>
        <pt x="434" y="395" on="1"/>
        <pt x="424" y="395" on="1"/>
        <pt x="411" y="407" on="0"/>
        <pt x="395" y="417" on="1"/>
        <pt x="381" y="425" on="0"/>
        <pt x="345" y="440" on="0"/>
      </contour>
    </TTGlyph>
    <TTGlyph name="afii10084" xMin="60" yMin="0" xMax="473" yMax="500">
      <contour>
        <pt x="460" y="430" on="1"/>
        <pt x="310" y="430" on="1"/>
        <pt x="235" y="0" on="1"/>
        <pt x="135" y="0" on="1"/>
        <pt x="210" y="430" on="1"/>
        <pt x="60" y="430" on="1"/>
        <pt x="73" y="500" on="1"/>
        <pt x="473" y="500" on="1"/>
      </contour>
    </TTGlyph>
    <TTGlyph name="afii10085" xMin="-22" yMin="-210" xMax="523" yMax="500">
      <contour>
        <pt x="75" y="-140" on="1"/>
        <pt x="101" y="-140" on="0"/>
        <pt x="148" y="-100" on="0"/>
        <pt x="162" y="-70" on="1"/>
        <pt x="195" y="0" on="1"/>
        <pt x="155" y="0" on="1"/>
        <pt x="78" y="500" on="1"/>
        <pt x="178" y="500" on="1"/>
        <pt x="229" y="170" on="1"/>
        <pt x="231" y="159" on="0"/>
        <pt x="233" y="131" on="0"/>
        <pt x="234" y="119" on="1"/>
        <pt x="235" y="105" on="0"/>
        <pt x="236" y="90" on="1"/>
        <pt x="240" y="90" on="1"/>
        <pt x="246" y="105" on="0"/>
        <pt x="252" y="119" on="1"/>
        <pt x="257" y="131" on="0"/>
        <pt x="268" y="159" on="0"/>
        <pt x="273" y="170" on="1"/>
        <pt x="423" y="500" on="1"/>
        <pt x="523" y="500" on="1"/>
        <pt x="262" y="-70" on="1"/>
        <pt x="235" y="-130" on="0"/>
        <pt x="136" y="-210" on="0"/>
        <pt x="72" y="-210" on="1"/>
        <pt x="49" y="-210" on="0"/>
        <pt x="14" y="-201" on="0"/>
        <pt x="2" y="-195" on="1"/>
        <pt x="-12" y="-189" on="0"/>
        <pt x="-22" y="-180" on="1"/>
        <pt x="14" y="-115" on="1"/>
        <pt x="24" y="-115" on="1"/>
        <pt x="30" y="-123" on="0"/>
        <pt x="38" y="-128" on="1"/>
        <pt x="45" y="-133" on="0"/>
        <pt x="64" y="-140" on="0"/>
      </contour>
    </TTGlyph>
    <TTGlyph name="afii10086" xMin="64" yMin="-200" xMax="654" yMax="700">
      <contour>
        <pt x="375" y="60" on="1"/>
        <pt x="444" y="64" on="0"/>
        <pt x="537" y="152" on="0"/>
        <pt x="554" y="250" on="1"/>
        <pt x="571" y="348" on="0"/>
        <pt x="509" y="436" on="0"/>
        <pt x="442" y="440" on="1"/>
      </contour>
      <contour>
        <pt x="383" y="670" on="1"/>
        <pt x="418" y="700" on="1"/>
        <pt x="488" y="700" on="1"/>
        <pt x="454" y="510" on="1"/>
        <pt x="571" y="506" on="0"/>
        <pt x="676" y="375" on="0"/>
        <pt x="654" y="250" on="1"/>
        <pt x="631" y="125" on="0"/>
        <pt x="481" y="-6" on="0"/>
        <pt x="363" y="-10" on="1"/>
        <pt x="329" y="-200" on="1"/>
        <pt x="229" y="-200" on="1"/>
        <pt x="263" y="-10" on="1"/>
        <pt x="147" y="-6" on="0"/>
        <pt x="41" y="126" on="0"/>
        <pt x="64" y="250" on="1"/>
        <pt x="86" y="375" on="0"/>
        <pt x="237" y="506" on="0"/>
        <pt x="354" y="510" on="1"/>
      </contour>
      <contour>
        <pt x="342" y="440" on="1"/>
        <pt x="273" y="436" on="0"/>
        <pt x="181" y="348" on="0"/>
        <pt x="164" y="250" on="1"/>
        <pt x="147" y="152" on="0"/>
        <pt x="208" y="64" on="0"/>
        <pt x="275" y="60" on="1"/>
      </contour>
    </TTGlyph>
    <TTGlyph name="afii10087" xMin="-10" yMin="0" xMax="503" yMax="500">
      <contour>
        <pt x="235" y="185" on="1"/>
        <pt x="231" y="178" on="0"/>
        <pt x="227" y="171" on="1"/>
        <pt x="223" y="165" on="0"/>
        <pt x="215" y="151" on="0"/>
        <pt x="210" y="145" on="1"/>
        <pt x="100" y="0" on="1"/>
        <pt x="-10" y="0" on="1"/>
        <pt x="189" y="255" on="1"/>
        <pt x="83" y="500" on="1"/>
        <pt x="193" y="500" on="1"/>
        <pt x="248" y="360" on="1"/>
        <pt x="252" y="348" on="0"/>
        <pt x="256" y="334" on="1"/>
        <pt x="258" y="327" on="0"/>
        <pt x="259" y="320" on="1"/>
        <pt x="263" y="320" on="1"/>
        <pt x="267" y="327" on="0"/>
        <pt x="271" y="334" on="1"/>
        <pt x="275" y="340" on="0"/>
        <pt x="283" y="354" on="0"/>
        <pt x="288" y="360" on="1"/>
        <pt x="393" y="500" on="1"/>
        <pt x="503" y="500" on="1"/>
        <pt x="309" y="255" on="1"/>
        <pt x="420" y="0" on="1"/>
        <pt x="310" y="0" on="1"/>
        <pt x="250" y="145" on="1"/>
        <pt x="247" y="151" on="0"/>
        <pt x="244" y="165" on="0"/>
        <pt x="242" y="171" on="1"/>
        <pt x="240" y="178" on="0"/>
        <pt x="239" y="185" on="1"/>
      </contour>
    </TTGlyph>
    <TTGlyph name="afii10088" xMin="50" yMin="-140" xMax="528" yMax="500">
      <contour>
        <pt x="50" y="0" on="1"/>
        <pt x="138" y="500" on="1"/>
        <pt x="238" y="500" on="1"/>
        <pt x="162" y="70" on="1"/>
        <pt x="352" y="70" on="1"/>
        <pt x="428" y="500" on="1"/>
        <pt x="528" y="500" on="1"/>
        <pt x="452" y="70" on="1"/>
        <pt x="517" y="70" on="1"/>
        <pt x="480" y="-140" on="1"/>
        <pt x="400" y="-140" on="1"/>
        <pt x="410" y="0" on="1"/>
      </contour>
    </TTGlyph>
    <TTGlyph name="afii10089" xMin="89" yMin="0" xMax="508" yMax="500">
      <contour>
        <pt x="234" y="170" on="1"/>
        <pt x="195" y="170" on="0"/>
        <pt x="135" y="195" on="0"/>
        <pt x="97" y="239" on="0"/>
        <pt x="83" y="299" on="0"/>
        <pt x="89" y="335" on="1"/>
        <pt x="118" y="500" on="1"/>
        <pt x="218" y="500" on="1"/>
        <pt x="189" y="335" on="1"/>
        <pt x="181" y="293" on="0"/>
        <pt x="227" y="240" on="0"/>
        <pt x="272" y="240" on="1"/>
        <pt x="291" y="240" on="0"/>
        <pt x="324" y="244" on="0"/>
        <pt x="337" y="247" on="1"/>
        <pt x="352" y="251" on="0"/>
        <pt x="364" y="255" on="1"/>
        <pt x="408" y="500" on="1"/>
        <pt x="508" y="500" on="1"/>
        <pt x="420" y="0" on="1"/>
        <pt x="320" y="0" on="1"/>
        <pt x="352" y="185" on="1"/>
        <pt x="335" y="181" on="0"/>
        <pt x="317" y="177" on="1"/>
        <pt x="301" y="174" on="0"/>
        <pt x="258" y="170" on="0"/>
      </contour>
    </TTGlyph>
    <TTGlyph name="afii10090" xMin="50" yMin="0" xMax="778" yMax="500">
      <contour>
        <pt x="690" y="0" on="1"/>
        <pt x="50" y="0" on="1"/>
        <pt x="138" y="500" on="1"/>
        <pt x="238" y="500" on="1"/>
        <pt x="162" y="70" on="1"/>
        <pt x="332" y="70" on="1"/>
        <pt x="408" y="500" on="1"/>
        <pt x="508" y="500" on="1"/>
        <pt x="432" y="70" on="1"/>
        <pt x="602" y="70" on="1"/>
        <pt x="678" y="500" on="1"/>
        <pt x="778" y="500" on="1"/>
      </contour>
    </TTGlyph>
    <TTGlyph name="afii10091" xMin="50" yMin="-140" xMax="778" yMax="500">
      <contour>
        <pt x="50" y="0" on="1"/>
        <pt x="138" y="500" on="1"/>
        <pt x="238" y="500" on="1"/>
        <pt x="162" y="70" on="1"/>
        <pt x="332" y="70" on="1"/>
        <pt x="408" y="500" on="1"/>
        <pt x="508" y="500" on="1"/>
        <pt x="432" y="70" on="1"/>
        <pt x="602" y="70" on="1"/>
        <pt x="678" y="500" on="1"/>
        <pt x="778" y="500" on="1"/>
        <pt x="702" y="70" on="1"/>
        <pt x="767" y="70" on="1"/>
        <pt x="730" y="-140" on="1"/>
        <pt x="650" y="-140" on="1"/>
        <pt x="660" y="0" on="1"/>
      </contour>
    </TTGlyph>
    <TTGlyph name="afii10092" xMin="60" yMin="0" xMax="534" yMax="500">
      <contour>
        <pt x="363" y="330" on="1"/>
        <pt x="468" y="330" on="0"/>
        <pt x="547" y="244" on="0"/>
        <pt x="534" y="165" on="1"/>
        <pt x="520" y="86" on="0"/>
        <pt x="410" y="0" on="0"/>
        <pt x="305" y="0" on="1"/>
        <pt x="115" y="0" on="1"/>
        <pt x="190" y="430" on="1"/>
        <pt x="60" y="430" on="1"/>
        <pt x="73" y="500" on="1"/>
        <pt x="303" y="500" on="1"/>
        <pt x="273" y="330" on="1"/>
      </contour>
      <contour>
        <pt x="260" y="260" on="1"/>
        <pt x="227" y="70" on="1"/>
        <pt x="317" y="70" on="1"/>
        <pt x="370" y="70" on="0"/>
        <pt x="425" y="116" on="0"/>
        <pt x="434" y="165" on="1"/>
        <pt x="442" y="214" on="0"/>
        <pt x="403" y="260" on="0"/>
        <pt x="350" y="260" on="1"/>
      </contour>
    </TTGlyph>
    <TTGlyph name="afii10093" xMin="50" yMin="0" xMax="698" yMax="500">
      <contour>
        <pt x="610" y="0" on="1"/>
        <pt x="510" y="0" on="1"/>
        <pt x="598" y="500" on="1"/>
        <pt x="698" y="500" on="1"/>
      </contour>
      <contour>
        <pt x="288" y="330" on="1"/>
        <pt x="393" y="330" on="0"/>
        <pt x="472" y="244" on="0"/>
        <pt x="459" y="165" on="1"/>
        <pt x="445" y="86" on="0"/>
        <pt x="335" y="0" on="0"/>
        <pt x="230" y="0" on="1"/>
        <pt x="50" y="0" on="1"/>
        <pt x="138" y="500" on="1"/>
        <pt x="238" y="500" on="1"/>
        <pt x="208" y="330" on="1"/>
      </contour>
      <contour>
        <pt x="195" y="260" on="1"/>
        <pt x="162" y="70" on="1"/>
        <pt x="242" y="70" on="1"/>
        <pt x="295" y="70" on="0"/>
        <pt x="350" y="116" on="0"/>
        <pt x="359" y="165" on="1"/>
        <pt x="367" y="214" on="0"/>
        <pt x="328" y="260" on="0"/>
        <pt x="275" y="260" on="1"/>
      </contour>
    </TTGlyph>
    <TTGlyph name="afii10094" xMin="50" yMin="0" xMax="469" yMax="500">
      <contour>
        <pt x="298" y="330" on="1"/>
        <pt x="403" y="330" on="0"/>
        <pt x="482" y="244" on="0"/>
        <pt x="469" y="165" on="1"/>
        <pt x="455" y="86" on="0"/>
        <pt x="345" y="0" on="0"/>
        <pt x="240" y="0" on="1"/>
        <pt x="50" y="0" on="1"/>
        <pt x="138" y="500" on="1"/>
        <pt x="238" y="500" on="1"/>
        <pt x="208" y="330" on="1"/>
      </contour>
      <contour>
        <pt x="195" y="260" on="1"/>
        <pt x="162" y="70" on="1"/>
        <pt x="252" y="70" on="1"/>
        <pt x="305" y="70" on="0"/>
        <pt x="360" y="116" on="0"/>
        <pt x="369" y="165" on="1"/>
        <pt x="377" y="214" on="0"/>
        <pt x="338" y="260" on="0"/>
        <pt x="285" y="260" on="1"/>
      </contour>
    </TTGlyph>
    <TTGlyph name="afii10095" xMin="2" yMin="-10" xMax="424" yMax="510">
      <contour>
        <pt x="237" y="440" on="1"/>
        <pt x="214" y="440" on="0"/>
        <pt x="172" y="425" on="0"/>
        <pt x="155" y="417" on="1"/>
        <pt x="136" y="407" on="0"/>
        <pt x="119" y="395" on="1"/>
        <pt x="109" y="395" on="1"/>
        <pt x="85" y="455" on="1"/>
        <pt x="107" y="470" on="0"/>
        <pt x="134" y="482" on="1"/>
        <pt x="157" y="493" on="0"/>
        <pt x="221" y="510" on="0"/>
        <pt x="259" y="510" on="1"/>
        <pt x="353" y="510" on="0"/>
        <pt x="446" y="381" on="0"/>
        <pt x="424" y="250" on="1"/>
        <pt x="401" y="119" on="0"/>
        <pt x="259" y="-10" on="0"/>
        <pt x="158" y="-10" on="1"/>
        <pt x="120" y="-10" on="0"/>
        <pt x="62" y="6" on="0"/>
        <pt x="42" y="17" on="1"/>
        <pt x="18" y="29" on="0"/>
        <pt x="2" y="45" on="1"/>
        <pt x="48" y="105" on="1"/>
        <pt x="58" y="105" on="1"/>
        <pt x="70" y="92" on="0"/>
        <pt x="86" y="82" on="1"/>
        <pt x="100" y="74" on="0"/>
        <pt x="137" y="60" on="0"/>
        <pt x="160" y="60" on="1"/>
        <pt x="215" y="60" on="0"/>
        <pt x="298" y="134" on="0"/>
        <pt x="317" y="220" on="1"/>
        <pt x="137" y="220" on="1"/>
        <pt x="150" y="290" on="1"/>
        <pt x="330" y="290" on="1"/>
        <pt x="337" y="372" on="0"/>
        <pt x="285" y="440" on="0"/>
      </contour>
    </TTGlyph>
    <TTGlyph name="afii10096" xMin="50" yMin="-10" xMax="689" yMax="510">
      <contour>
        <pt x="684" y="250" on="1"/>
        <pt x="672" y="184" on="0"/>
        <pt x="625" y="87" on="0"/>
        <pt x="559" y="22" on="0"/>
        <pt x="478" y="-10" on="0"/>
        <pt x="433" y="-10" on="1"/>
        <pt x="347" y="-10" on="0"/>
        <pt x="255" y="104" on="0"/>
        <pt x="268" y="220" on="1"/>
        <pt x="188" y="220" on="1"/>
        <pt x="150" y="0" on="1"/>
        <pt x="50" y="0" on="1"/>
        <pt x="138" y="500" on="1"/>
        <pt x="238" y="500" on="1"/>
        <pt x="201" y="290" on="1"/>
        <pt x="281" y="290" on="1"/>
        <pt x="294" y="346" on="0"/>
        <pt x="343" y="429" on="0"/>
        <pt x="407" y="483" on="0"/>
        <pt x="483" y="510" on="0"/>
        <pt x="524" y="510" on="1"/>
        <pt x="569" y="510" on="0"/>
        <pt x="639" y="478" on="0"/>
        <pt x="682" y="413" on="0"/>
        <pt x="695" y="316" on="0"/>
      </contour>
      <contour>
        <pt x="584" y="250" on="1"/>
        <pt x="593" y="302" on="0"/>
        <pt x="588" y="375" on="0"/>
        <pt x="567" y="420" on="0"/>
        <pt x="533" y="440" on="0"/>
        <pt x="512" y="440" on="1"/>
        <pt x="491" y="440" on="0"/>
        <pt x="450" y="420" on="0"/>
        <pt x="413" y="375" on="0"/>
        <pt x="383" y="302" on="0"/>
        <pt x="374" y="250" on="1"/>
        <pt x="365" y="197" on="0"/>
        <pt x="369" y="125" on="0"/>
        <pt x="390" y="80" on="0"/>
        <pt x="424" y="60" on="0"/>
        <pt x="445" y="60" on="1"/>
        <pt x="466" y="60" on="0"/>
        <pt x="507" y="80" on="0"/>
        <pt x="544" y="125" on="0"/>
        <pt x="575" y="197" on="0"/>
      </contour>
    </TTGlyph>
    <TTGlyph name="afii10097" xMin="0" yMin="-10" xMax="498" yMax="500">
      <contour>
        <pt x="273" y="190" on="1"/>
        <pt x="250" y="190" on="0"/>
        <pt x="215" y="163" on="0"/>
        <pt x="204" y="140" on="1"/>
        <pt x="173" y="75" on="1"/>
        <pt x="153" y="33" on="0"/>
        <pt x="100" y="-10" on="0"/>
        <pt x="58" y="-10" on="1"/>
        <pt x="33" y="-10" on="0"/>
        <pt x="16" y="-5" on="1"/>
        <pt x="7" y="-3" on="0"/>
        <pt x="0" y="0" on="1"/>
        <pt x="21" y="65" on="1"/>
        <pt x="26" y="65" on="1"/>
        <pt x="28" y="63" on="0"/>
        <pt x="32" y="62" on="1"/>
        <pt x="38" y="60" on="0"/>
        <pt x="45" y="60" on="1"/>
        <pt x="66" y="60" on="0"/>
        <pt x="80" y="90" on="1"/>
        <pt x="112" y="155" on="1"/>
        <pt x="120" y="172" on="0"/>
        <pt x="144" y="195" on="0"/>
        <pt x="155" y="202" on="1"/>
        <pt x="168" y="210" on="0"/>
        <pt x="182" y="215" on="1"/>
        <pt x="150" y="221" on="0"/>
        <pt x="126" y="237" on="1"/>
        <pt x="116" y="244" on="0"/>
        <pt x="98" y="263" on="0"/>
        <pt x="86" y="289" on="0"/>
        <pt x="81" y="323" on="0"/>
        <pt x="85" y="345" on="1"/>
        <pt x="98" y="416" on="0"/>
        <pt x="208" y="500" on="0"/>
        <pt x="313" y="500" on="1"/>
        <pt x="498" y="500" on="1"/>
        <pt x="410" y="0" on="1"/>
        <pt x="310" y="0" on="1"/>
        <pt x="343" y="190" on="1"/>
      </contour>
      <contour>
        <pt x="355" y="260" on="1"/>
        <pt x="385" y="430" on="1"/>
        <pt x="300" y="430" on="1"/>
        <pt x="247" y="430" on="0"/>
        <pt x="193" y="387" on="0"/>
        <pt x="185" y="345" on="1"/>
        <pt x="178" y="303" on="0"/>
        <pt x="217" y="260" on="0"/>
        <pt x="270" y="260" on="1"/>
      </contour>
    </TTGlyph>
    <TTGlyph name="afii10098" xMin="50" yMin="0" xMax="484" yMax="590">
      <contour>
        <pt x="138" y="500" on="1"/>
        <pt x="378" y="500" on="1"/>
        <pt x="404" y="590" on="1"/>
        <pt x="484" y="590" on="1"/>
        <pt x="455" y="430" on="1"/>
        <pt x="225" y="430" on="1"/>
        <pt x="150" y="0" on="1"/>
        <pt x="50" y="0" on="1"/>
      </contour>
    </TTGlyph>
    <TTGlyph name="afii10099" xMin="65" yMin="-140" xMax="514" yMax="700">
      <contour>
        <pt x="277" y="-70" on="1"/>
        <pt x="311" y="-70" on="0"/>
        <pt x="360" y="-25" on="0"/>
        <pt x="368" y="20" on="1"/>
        <pt x="414" y="280" on="1"/>
        <pt x="422" y="322" on="0"/>
        <pt x="378" y="375" on="0"/>
        <pt x="336" y="375" on="1"/>
        <pt x="313" y="375" on="0"/>
        <pt x="271" y="356" on="0"/>
        <pt x="255" y="345" on="1"/>
        <pt x="236" y="332" on="0"/>
        <pt x="220" y="315" on="1"/>
        <pt x="165" y="0" on="1"/>
        <pt x="65" y="0" on="1"/>
        <pt x="156" y="520" on="1"/>
        <pt x="91" y="520" on="1"/>
        <pt x="104" y="590" on="1"/>
        <pt x="169" y="590" on="1"/>
        <pt x="183" y="670" on="1"/>
        <pt x="218" y="700" on="1"/>
        <pt x="288" y="700" on="1"/>
        <pt x="269" y="590" on="1"/>
        <pt x="404" y="590" on="1"/>
        <pt x="391" y="520" on="1"/>
        <pt x="256" y="520" on="1"/>
        <pt x="235" y="400" on="1"/>
        <pt x="252" y="414" on="0"/>
        <pt x="273" y="425" on="1"/>
        <pt x="291" y="434" on="0"/>
        <pt x="342" y="450" on="0"/>
        <pt x="374" y="450" on="1"/>
        <pt x="411" y="450" on="0"/>
        <pt x="470" y="425" on="0"/>
        <pt x="507" y="380" on="0"/>
        <pt x="521" y="317" on="0"/>
        <pt x="514" y="280" on="1"/>
        <pt x="468" y="20" on="1"/>
        <pt x="462" y="-16" on="0"/>
        <pt x="428" y="-75" on="0"/>
        <pt x="380" y="-117" on="0"/>
        <pt x="319" y="-140" on="0"/>
        <pt x="285" y="-140" on="1"/>
        <pt x="268" y="-140" on="0"/>
        <pt x="240" y="-136" on="0"/>
        <pt x="229" y="-133" on="1"/>
        <pt x="217" y="-129" on="0"/>
        <pt x="207" y="-125" on="1"/>
        <pt x="229" y="-60" on="1"/>
        <pt x="239" y="-60" on="1"/>
        <pt x="244" y="-63" on="0"/>
        <pt x="250" y="-65" on="1"/>
        <pt x="262" y="-70" on="0"/>
      </contour>
    </TTGlyph>
    <TTGlyph name="afii10100" xMin="50" yMin="0" xMax="468" yMax="700">
      <contour>
        <pt x="455" y="430" on="1"/>
        <pt x="225" y="430" on="1"/>
        <pt x="150" y="0" on="1"/>
        <pt x="50" y="0" on="1"/>
        <pt x="138" y="500" on="1"/>
        <pt x="468" y="500" on="1"/>
      </contour>
      <contour>
        <pt x="448" y="700" on="1"/>
        <pt x="331" y="550" on="1"/>
        <pt x="266" y="550" on="1"/>
        <pt x="338" y="700" on="1"/>
      </contour>
    </TTGlyph>
    <TTGlyph name="afii10101" xMin="69" yMin="-10" xMax="480" yMax="510">
      <contour>
        <pt x="322" y="440" on="1"/>
        <pt x="274" y="440" on="0"/>
        <pt x="199" y="373" on="0"/>
        <pt x="177" y="290" on="1"/>
        <pt x="357" y="290" on="1"/>
        <pt x="344" y="220" on="1"/>
        <pt x="164" y="220" on="1"/>
        <pt x="153" y="134" on="0"/>
        <pt x="209" y="60" on="0"/>
        <pt x="265" y="60" on="1"/>
        <pt x="288" y="60" on="0"/>
        <pt x="329" y="74" on="0"/>
        <pt x="346" y="82" on="1"/>
        <pt x="365" y="92" on="0"/>
        <pt x="383" y="105" on="1"/>
        <pt x="393" y="105" on="1"/>
        <pt x="417" y="45" on="1"/>
        <pt x="394" y="29" on="0"/>
        <pt x="367" y="17" on="1"/>
        <pt x="344" y="6" on="0"/>
        <pt x="281" y="-10" on="0"/>
        <pt x="243" y="-10" on="1"/>
        <pt x="141" y="-10" on="0"/>
        <pt x="46" y="118" on="0"/>
        <pt x="69" y="250" on="1"/>
        <pt x="92" y="382" on="0"/>
        <pt x="230" y="510" on="0"/>
        <pt x="324" y="510" on="1"/>
        <pt x="362" y="510" on="0"/>
        <pt x="419" y="493" on="0"/>
        <pt x="439" y="482" on="1"/>
        <pt x="462" y="470" on="0"/>
        <pt x="480" y="455" on="1"/>
        <pt x="434" y="395" on="1"/>
        <pt x="424" y="395" on="1"/>
        <pt x="411" y="407" on="0"/>
        <pt x="395" y="417" on="1"/>
        <pt x="381" y="425" on="0"/>
        <pt x="345" y="440" on="0"/>
      </contour>
    </TTGlyph>
    <TTGlyph name="afii10102" xMin="17" yMin="-10" xMax="465" yMax="510">
      <contour>
        <pt x="193" y="-10" on="1"/>
        <pt x="148" y="-10" on="0"/>
        <pt x="82" y="6" on="0"/>
        <pt x="60" y="17" on="1"/>
        <pt x="34" y="29" on="0"/>
        <pt x="17" y="45" on="1"/>
        <pt x="63" y="105" on="1"/>
        <pt x="73" y="105" on="1"/>
        <pt x="86" y="92" on="0"/>
        <pt x="104" y="82" on="1"/>
        <pt x="119" y="74" on="0"/>
        <pt x="165" y="60" on="0"/>
        <pt x="195" y="60" on="1"/>
        <pt x="259" y="60" on="0"/>
        <pt x="317" y="100" on="0"/>
        <pt x="322" y="130" on="1"/>
        <pt x="327" y="157" on="0"/>
        <pt x="291" y="190" on="0"/>
        <pt x="234" y="214" on="0"/>
        <pt x="165" y="236" on="0"/>
        <pt x="109" y="270" on="0"/>
        <pt x="76" y="322" on="0"/>
        <pt x="84" y="365" on="1"/>
        <pt x="95" y="429" on="0"/>
        <pt x="201" y="510" on="0"/>
        <pt x="299" y="510" on="1"/>
        <pt x="341" y="510" on="0"/>
        <pt x="402" y="493" on="0"/>
        <pt x="423" y="482" on="1"/>
        <pt x="448" y="470" on="0"/>
        <pt x="465" y="455" on="1"/>
        <pt x="419" y="395" on="1"/>
        <pt x="409" y="395" on="1"/>
        <pt x="396" y="407" on="0"/>
        <pt x="379" y="417" on="1"/>
        <pt x="365" y="425" on="0"/>
        <pt x="323" y="440" on="0"/>
        <pt x="297" y="440" on="1"/>
        <pt x="244" y="440" on="0"/>
        <pt x="191" y="401" on="0"/>
        <pt x="186" y="375" on="1"/>
        <pt x="181" y="348" on="0"/>
        <pt x="217" y="315" on="0"/>
        <pt x="274" y="291" on="0"/>
        <pt x="343" y="269" on="0"/>
        <pt x="399" y="235" on="0"/>
        <pt x="431" y="182" on="0"/>
        <pt x="424" y="140" on="1"/>
        <pt x="412" y="72" on="0"/>
        <pt x="302" y="-10" on="0"/>
      </contour>
    </TTGlyph>
    <TTGlyph name="afii10103" xMin="50" yMin="0" xMax="272" yMax="700">
      <contour>
        <pt x="238" y="500" on="1"/>
        <pt x="150" y="0" on="1"/>
        <pt x="50" y="0" on="1"/>
        <pt x="138" y="500" on="1"/>
      </contour>
      <contour>
        <pt x="272" y="640" on="1"/>
        <pt x="267" y="614" on="0"/>
        <pt x="228" y="580" on="0"/>
        <pt x="202" y="580" on="1"/>
        <pt x="176" y="580" on="0"/>
        <pt x="147" y="614" on="0"/>
        <pt x="152" y="640" on="1"/>
        <pt x="157" y="666" on="0"/>
        <pt x="197" y="700" on="0"/>
        <pt x="223" y="700" on="1"/>
        <pt x="249" y="700" on="0"/>
        <pt x="277" y="666" on="0"/>
      </contour>
    </TTGlyph>
    <TTGlyph name="afii10104" xMin="50" yMin="0" xMax="362" yMax="700">
      <contour>
        <pt x="238" y="500" on="1"/>
        <pt x="150" y="0" on="1"/>
        <pt x="50" y="0" on="1"/>
        <pt x="138" y="500" on="1"/>
      </contour>
      <contour>
        <pt x="182" y="640" on="1"/>
        <pt x="177" y="614" on="0"/>
        <pt x="138" y="580" on="0"/>
        <pt x="112" y="580" on="1"/>
        <pt x="86" y="580" on="0"/>
        <pt x="57" y="614" on="0"/>
        <pt x="62" y="640" on="1"/>
        <pt x="67" y="666" on="0"/>
        <pt x="107" y="700" on="0"/>
        <pt x="133" y="700" on="1"/>
        <pt x="159" y="700" on="0"/>
        <pt x="187" y="666" on="0"/>
      </contour>
      <contour>
        <pt x="362" y="640" on="1"/>
        <pt x="357" y="614" on="0"/>
        <pt x="318" y="580" on="0"/>
        <pt x="292" y="580" on="1"/>
        <pt x="266" y="580" on="0"/>
        <pt x="237" y="614" on="0"/>
        <pt x="242" y="640" on="1"/>
        <pt x="247" y="666" on="0"/>
        <pt x="287" y="700" on="0"/>
        <pt x="313" y="700" on="1"/>
        <pt x="339" y="700" on="0"/>
        <pt x="367" y="666" on="0"/>
      </contour>
    </TTGlyph>
    <TTGlyph name="afii10105" xMin="-144" yMin="-200" xMax="272" yMax="700">
      <contour>
        <pt x="272" y="640" on="1"/>
        <pt x="267" y="614" on="0"/>
        <pt x="228" y="580" on="0"/>
        <pt x="202" y="580" on="1"/>
        <pt x="176" y="580" on="0"/>
        <pt x="147" y="614" on="0"/>
        <pt x="152" y="640" on="1"/>
        <pt x="157" y="666" on="0"/>
        <pt x="197" y="700" on="0"/>
        <pt x="223" y="700" on="1"/>
        <pt x="249" y="700" on="0"/>
        <pt x="277" y="666" on="0"/>
      </contour>
      <contour>
        <pt x="-47" y="-130" on="1"/>
        <pt x="-14" y="-130" on="0"/>
        <pt x="34" y="-85" on="0"/>
        <pt x="42" y="-40" on="1"/>
        <pt x="138" y="500" on="1"/>
        <pt x="238" y="500" on="1"/>
        <pt x="142" y="-40" on="1"/>
        <pt x="136" y="-76" on="0"/>
        <pt x="102" y="-135" on="0"/>
        <pt x="52" y="-177" on="0"/>
        <pt x="-13" y="-200" on="0"/>
        <pt x="-50" y="-200" on="1"/>
        <pt x="-73" y="-200" on="0"/>
        <pt x="-108" y="-191" on="0"/>
        <pt x="-120" y="-185" on="1"/>
        <pt x="-134" y="-179" on="0"/>
        <pt x="-144" y="-170" on="1"/>
        <pt x="-108" y="-105" on="1"/>
        <pt x="-98" y="-105" on="1"/>
        <pt x="-92" y="-113" on="0"/>
        <pt x="-84" y="-118" on="1"/>
        <pt x="-77" y="-123" on="0"/>
        <pt x="-58" y="-130" on="0"/>
      </contour>
    </TTGlyph>
    <TTGlyph name="afii10106" xMin="-15" yMin="-10" xMax="739" yMax="500">
      <contour>
        <pt x="568" y="330" on="1"/>
        <pt x="673" y="330" on="0"/>
        <pt x="752" y="244" on="0"/>
        <pt x="739" y="165" on="1"/>
        <pt x="725" y="86" on="0"/>
        <pt x="615" y="0" on="0"/>
        <pt x="510" y="0" on="1"/>
        <pt x="320" y="0" on="1"/>
        <pt x="395" y="430" on="1"/>
        <pt x="260" y="430" on="1"/>
        <pt x="198" y="160" on="1"/>
        <pt x="177" y="70" on="0"/>
        <pt x="94" y="-10" on="0"/>
        <pt x="38" y="-10" on="1"/>
        <pt x="15" y="-10" on="0"/>
        <pt x="0" y="-5" on="1"/>
        <pt x="-9" y="-3" on="0"/>
        <pt x="-15" y="0" on="1"/>
        <pt x="1" y="65" on="1"/>
        <pt x="11" y="65" on="1"/>
        <pt x="13" y="63" on="0"/>
        <pt x="17" y="62" on="1"/>
        <pt x="23" y="60" on="0"/>
        <pt x="30" y="60" on="1"/>
        <pt x="49" y="60" on="0"/>
        <pt x="84" y="100" on="0"/>
        <pt x="98" y="160" on="1"/>
        <pt x="178" y="500" on="1"/>
        <pt x="508" y="500" on="1"/>
        <pt x="478" y="330" on="1"/>
      </contour>
      <contour>
        <pt x="465" y="260" on="1"/>
        <pt x="432" y="70" on="1"/>
        <pt x="522" y="70" on="1"/>
        <pt x="575" y="70" on="0"/>
        <pt x="630" y="116" on="0"/>
        <pt x="639" y="165" on="1"/>
        <pt x="647" y="214" on="0"/>
        <pt x="608" y="260" on="0"/>
        <pt x="555" y="260" on="1"/>
      </contour>
    </TTGlyph>
    <TTGlyph name="afii10107" xMin="50" yMin="0" xMax="747" yMax="500">
      <contour>
        <pt x="574" y="310" on="1"/>
        <pt x="679" y="310" on="0"/>
        <pt x="760" y="226" on="0"/>
        <pt x="747" y="155" on="1"/>
        <pt x="734" y="84" on="0"/>
        <pt x="625" y="0" on="0"/>
        <pt x="520" y="0" on="1"/>
        <pt x="330" y="0" on="1"/>
        <pt x="372" y="240" on="1"/>
        <pt x="192" y="240" on="1"/>
        <pt x="150" y="0" on="1"/>
        <pt x="50" y="0" on="1"/>
        <pt x="138" y="500" on="1"/>
        <pt x="238" y="500" on="1"/>
        <pt x="204" y="310" on="1"/>
        <pt x="384" y="310" on="1"/>
        <pt x="418" y="500" on="1"/>
        <pt x="518" y="500" on="1"/>
        <pt x="484" y="310" on="1"/>
      </contour>
      <contour>
        <pt x="472" y="240" on="1"/>
        <pt x="442" y="70" on="1"/>
        <pt x="532" y="70" on="1"/>
        <pt x="585" y="70" on="0"/>
        <pt x="639" y="113" on="0"/>
        <pt x="647" y="155" on="1"/>
        <pt x="655" y="197" on="0"/>
        <pt x="615" y="240" on="0"/>
        <pt x="562" y="240" on="1"/>
      </contour>
    </TTGlyph>
    <TTGlyph name="afii10108" xMin="65" yMin="0" xMax="514" yMax="700">
      <contour>
        <pt x="169" y="590" on="1"/>
        <pt x="183" y="670" on="1"/>
        <pt x="218" y="700" on="1"/>
        <pt x="288" y="700" on="1"/>
        <pt x="269" y="590" on="1"/>
        <pt x="404" y="590" on="1"/>
        <pt x="391" y="520" on="1"/>
        <pt x="256" y="520" on="1"/>
        <pt x="235" y="400" on="1"/>
        <pt x="252" y="414" on="0"/>
        <pt x="273" y="425" on="1"/>
        <pt x="291" y="434" on="0"/>
        <pt x="342" y="450" on="0"/>
        <pt x="374" y="450" on="1"/>
        <pt x="411" y="450" on="0"/>
        <pt x="470" y="425" on="0"/>
        <pt x="507" y="380" on="0"/>
        <pt x="521" y="317" on="0"/>
        <pt x="514" y="280" on="1"/>
        <pt x="465" y="0" on="1"/>
        <pt x="365" y="0" on="1"/>
        <pt x="414" y="280" on="1"/>
        <pt x="422" y="322" on="0"/>
        <pt x="378" y="375" on="0"/>
        <pt x="336" y="375" on="1"/>
        <pt x="313" y="375" on="0"/>
        <pt x="271" y="356" on="0"/>
        <pt x="255" y="345" on="1"/>
        <pt x="236" y="332" on="0"/>
        <pt x="220" y="315" on="1"/>
        <pt x="165" y="0" on="1"/>
        <pt x="65" y="0" on="1"/>
        <pt x="156" y="520" on="1"/>
        <pt x="91" y="520" on="1"/>
        <pt x="104" y="590" on="1"/>
      </contour>
    </TTGlyph>
    <TTGlyph name="afii10109" xMin="50" yMin="-10" xMax="533" yMax="690">
      <contour>
        <pt x="330" y="260" on="1"/>
        <pt x="349" y="257" on="0"/>
        <pt x="364" y="247" on="1"/>
        <pt x="377" y="239" on="0"/>
        <pt x="400" y="209" on="0"/>
        <pt x="402" y="185" on="1"/>
        <pt x="410" y="90" on="1"/>
        <pt x="413" y="60" on="0"/>
        <pt x="435" y="60" on="1"/>
        <pt x="441" y="60" on="0"/>
        <pt x="449" y="62" on="1"/>
        <pt x="453" y="63" on="0"/>
        <pt x="456" y="65" on="1"/>
        <pt x="461" y="65" on="1"/>
        <pt x="460" y="0" on="1"/>
        <pt x="452" y="-3" on="0"/>
        <pt x="442" y="-5" on="1"/>
        <pt x="424" y="-10" on="0"/>
        <pt x="398" y="-10" on="1"/>
        <pt x="356" y="-10" on="0"/>
        <pt x="316" y="34" on="0"/>
        <pt x="313" y="75" on="1"/>
        <pt x="304" y="170" on="1"/>
        <pt x="302" y="193" on="0"/>
        <pt x="274" y="220" on="0"/>
        <pt x="248" y="220" on="1"/>
        <pt x="188" y="220" on="1"/>
        <pt x="150" y="0" on="1"/>
        <pt x="50" y="0" on="1"/>
        <pt x="138" y="500" on="1"/>
        <pt x="238" y="500" on="1"/>
        <pt x="201" y="290" on="1"/>
        <pt x="251" y="290" on="1"/>
        <pt x="280" y="290" on="0"/>
        <pt x="315" y="317" on="0"/>
        <pt x="324" y="340" on="1"/>
        <pt x="359" y="425" on="1"/>
        <pt x="376" y="467" on="0"/>
        <pt x="431" y="510" on="0"/>
        <pt x="474" y="510" on="1"/>
        <pt x="487" y="510" on="0"/>
        <pt x="509" y="507" on="0"/>
        <pt x="517" y="505" on="1"/>
        <pt x="526" y="502" on="0"/>
        <pt x="533" y="500" on="1"/>
        <pt x="511" y="435" on="1"/>
        <pt x="506" y="435" on="1"/>
        <pt x="500" y="437" on="1"/>
        <pt x="497" y="438" on="0"/>
        <pt x="491" y="440" on="0"/>
        <pt x="487" y="440" on="1"/>
        <pt x="464" y="440" on="0"/>
        <pt x="452" y="410" on="1"/>
        <pt x="417" y="325" on="1"/>
        <pt x="407" y="302" on="0"/>
        <pt x="378" y="277" on="0"/>
        <pt x="364" y="270" on="1"/>
        <pt x="347" y="262" on="0"/>
      </contour>
      <contour>
        <pt x="466" y="690" on="1"/>
        <pt x="350" y="540" on="1"/>
        <pt x="285" y="540" on="1"/>
        <pt x="356" y="690" on="1"/>
      </contour>
    </TTGlyph>
    <TTGlyph name="afii10110" xMin="-22" yMin="-210" xMax="523" yMax="670">
      <contour>
        <pt x="75" y="-140" on="1"/>
        <pt x="101" y="-140" on="0"/>
        <pt x="148" y="-100" on="0"/>
        <pt x="162" y="-70" on="1"/>
        <pt x="195" y="0" on="1"/>
        <pt x="155" y="0" on="1"/>
        <pt x="78" y="500" on="1"/>
        <pt x="178" y="500" on="1"/>
        <pt x="229" y="170" on="1"/>
        <pt x="231" y="159" on="0"/>
        <pt x="233" y="131" on="0"/>
        <pt x="234" y="119" on="1"/>
        <pt x="235" y="105" on="0"/>
        <pt x="236" y="90" on="1"/>
        <pt x="240" y="90" on="1"/>
        <pt x="246" y="105" on="0"/>
        <pt x="252" y="119" on="1"/>
        <pt x="257" y="131" on="0"/>
        <pt x="268" y="159" on="0"/>
        <pt x="273" y="170" on="1"/>
        <pt x="423" y="500" on="1"/>
        <pt x="523" y="500" on="1"/>
        <pt x="262" y="-70" on="1"/>
        <pt x="235" y="-130" on="0"/>
        <pt x="136" y="-210" on="0"/>
        <pt x="72" y="-210" on="1"/>
        <pt x="49" y="-210" on="0"/>
        <pt x="14" y="-201" on="0"/>
        <pt x="2" y="-195" on="1"/>
        <pt x="-12" y="-189" on="0"/>
        <pt x="-22" y="-180" on="1"/>
        <pt x="14" y="-115" on="1"/>
        <pt x="24" y="-115" on="1"/>
        <pt x="30" y="-123" on="0"/>
        <pt x="38" y="-128" on="1"/>
        <pt x="45" y="-133" on="0"/>
        <pt x="64" y="-140" on="0"/>
      </contour>
      <contour>
        <pt x="320" y="600" on="1"/>
        <pt x="350" y="600" on="0"/>
        <pt x="386" y="632" on="0"/>
        <pt x="393" y="670" on="1"/>
        <pt x="483" y="670" on="1"/>
        <pt x="472" y="610" on="0"/>
        <pt x="385" y="540" on="0"/>
        <pt x="310" y="540" on="1"/>
        <pt x="235" y="540" on="0"/>
        <pt x="172" y="610" on="0"/>
        <pt x="183" y="670" on="1"/>
        <pt x="273" y="670" on="1"/>
        <pt x="266" y="632" on="0"/>
        <pt x="290" y="600" on="0"/>
      </contour>
    </TTGlyph>
    <TTGlyph name="afii10145" xMin="65" yMin="-150" xMax="638" yMax="700">
      <contour>
        <pt x="65" y="0" on="1"/>
        <pt x="188" y="700" on="1"/>
        <pt x="288" y="700" on="1"/>
        <pt x="177" y="70" on="1"/>
        <pt x="427" y="70" on="1"/>
        <pt x="538" y="700" on="1"/>
        <pt x="638" y="700" on="1"/>
        <pt x="515" y="0" on="1"/>
        <pt x="340" y="0" on="1"/>
        <pt x="303" y="-150" on="1"/>
        <pt x="223" y="-150" on="1"/>
        <pt x="240" y="0" on="1"/>
      </contour>
    </TTGlyph>
    <TTGlyph name="afii10193" xMin="50" yMin="-140" xMax="538" yMax="500">
      <contour>
        <pt x="50" y="0" on="1"/>
        <pt x="138" y="500" on="1"/>
        <pt x="238" y="500" on="1"/>
        <pt x="162" y="70" on="1"/>
        <pt x="362" y="70" on="1"/>
        <pt x="438" y="500" on="1"/>
        <pt x="538" y="500" on="1"/>
        <pt x="450" y="0" on="1"/>
        <pt x="300" y="0" on="1"/>
        <pt x="265" y="-140" on="1"/>
        <pt x="185" y="-140" on="1"/>
        <pt x="200" y="0" on="1"/>
      </contour>
    </TTGlyph>
    <TTGlyph name="afii61352" xMin="65" yMin="0" xMax="989" yMax="710">
      <contour>
        <pt x="647" y="290" on="1"/>
        <pt x="927" y="290" on="1"/>
        <pt x="914" y="220" on="1"/>
        <pt x="634" y="220" on="1"/>
      </contour>
      <contour>
        <pt x="273" y="445" on="1"/>
        <pt x="269" y="456" on="0"/>
        <pt x="264" y="485" on="0"/>
        <pt x="262" y="499" on="1"/>
        <pt x="259" y="514" on="0"/>
        <pt x="258" y="530" on="1"/>
        <pt x="254" y="530" on="1"/>
        <pt x="252" y="514" on="0"/>
        <pt x="250" y="499" on="1"/>
        <pt x="248" y="485" on="0"/>
        <pt x="245" y="456" on="0"/>
        <pt x="243" y="445" on="1"/>
        <pt x="165" y="0" on="1"/>
        <pt x="65" y="0" on="1"/>
        <pt x="188" y="700" on="1"/>
        <pt x="298" y="700" on="1"/>
        <pt x="429" y="255" on="1"/>
        <pt x="432" y="244" on="0"/>
        <pt x="438" y="214" on="0"/>
        <pt x="440" y="201" on="1"/>
        <pt x="443" y="185" on="0"/>
        <pt x="444" y="170" on="1"/>
        <pt x="448" y="170" on="1"/>
        <pt x="450" y="185" on="0"/>
        <pt x="452" y="201" on="1"/>
        <pt x="454" y="214" on="0"/>
        <pt x="457" y="244" on="0"/>
        <pt x="459" y="255" on="1"/>
        <pt x="538" y="700" on="1"/>
        <pt x="638" y="700" on="1"/>
        <pt x="515" y="0" on="1"/>
        <pt x="405" y="0" on="1"/>
      </contour>
      <contour>
        <pt x="850" y="650" on="1"/>
        <pt x="820" y="650" on="0"/>
        <pt x="771" y="598" on="0"/>
        <pt x="759" y="530" on="1"/>
        <pt x="753" y="496" on="0"/>
        <pt x="756" y="450" on="0"/>
        <pt x="769" y="422" on="0"/>
        <pt x="793" y="410" on="0"/>
        <pt x="808" y="410" on="1"/>
        <pt x="838" y="410" on="0"/>
        <pt x="887" y="462" on="0"/>
        <pt x="899" y="530" on="1"/>
        <pt x="911" y="597" on="0"/>
        <pt x="880" y="650" on="0"/>
      </contour>
      <contour>
        <pt x="861" y="710" on="1"/>
        <pt x="933" y="710" on="0"/>
        <pt x="1004" y="617" on="0"/>
        <pt x="989" y="530" on="1"/>
        <pt x="974" y="443" on="0"/>
        <pt x="869" y="350" on="0"/>
        <pt x="797" y="350" on="1"/>
        <pt x="725" y="350" on="0"/>
        <pt x="654" y="443" on="0"/>
        <pt x="669" y="530" on="1"/>
        <pt x="684" y="617" on="0"/>
        <pt x="789" y="710" on="0"/>
      </contour>
    </TTGlyph>
    <TTGlyph name="agrave" xMin="32" yMin="-10" xMax="471" yMax="700">
      <component glyphName=".ttfautohint" x="32" y="0" flags="0x1000"/>
      <component glyphName="a" x="0" y="0" flags="0x1204"/>
      <component glyphName="grave" x="127" y="0" flags="0x1004"/>
    </TTGlyph>
    <TTGlyph name="amacron" xMin="32" yMin="-10" xMax="491" yMax="660">
      <component glyphName=".ttfautohint" x="32" y="0" flags="0x1000"/>
      <component glyphName="a" x="0" y="0" flags="0x1204"/>
      <component glyphName="macron" x="110" y="0" flags="0x1004"/>
    </TTGlyph>
</ttFont>
